<?xml version="1.0" standalone="no"?>
<!DOCTYPE svg PUBLIC "-//W3C//DTD SVG 1.1//EN" "http://www.w3.org/Graphics/SVG/1.1/DTD/svg11.dtd" >
<svg xmlns="http://www.w3.org/2000/svg" xmlns:xlink="http://www.w3.org/1999/xlink" version="1.1">
<metadata>
Created by FontForge 20161013 at Mon Nov 25 03:55:01 2013
 By ,,,
Copyright (c) 2012 by Toni Hurme. All rights reserved.
</metadata>
<defs>
<font id="HurmeGeometricSans1-BlackObl" horiz-adv-x="619" >
  <font-face 
    font-family="Hurme Geometric Sans 1"
    font-weight="900"
    font-style="italic"
    font-stretch="normal"
    units-per-em="1000"
    panose-1="2 11 10 0 2 0 0 0 0 0"
    ascent="767"
    descent="-233"
    x-height="504"
    cap-height="697"
    bbox="-156 -250 1304 1052"
    underline-thickness="50"
    underline-position="-290"
    slope="-11.5"
    unicode-range="U+000D-FB04"
  />
<missing-glyph horiz-adv-x="712" 
d="M641 0h-712l142 697h712zM167 585l-96 -473h474l96 473h-474zM339 264l-141 -117l-67 84l141 117l-93 117l101 84l93 -117l141 117l67 -84l-141 -117l93 -117l-101 -84z" />
    <glyph glyph-name="ff" unicode="ff" horiz-adv-x="757" 
d="M219 0h-185l70 343h-84l33 161h84l13 57q17 73 76 111.5t148 38.5q50 0 81 -10l-28 -142q-18 6 -42 6q-31 0 -44.5 -11.5t-19.5 -40.5l-1 -9h168l13 57q17 73 76 111.5t148 38.5q55 0 91 -10l-28 -142q-22 6 -52 6q-31 0 -44.5 -11.5t-19.5 -40.5l-1 -9h97l-33 -161h-95
l-70 -343h-185l70 343h-166z" />
    <glyph glyph-name="fi" unicode="fi" horiz-adv-x="679" 
d="M219 0h-185l70 343h-84l33 161h84l13 57q20 74 89.5 112t174.5 38q84 0 131 -10l-28 -142q-37 6 -92 6q-51 0 -73 -11t-31 -41l-1 -9h345l-103 -504h-185l70 343h-158z" />
    <glyph glyph-name="fl" unicode="fl" horiz-adv-x="683" 
d="M219 0h-185l70 343h-84l33 161h84l13 57q17 73 76 111.5t148 38.5q55 0 91 -10l-28 -142q-23 6 -52 6q-33 0 -47 -11t-20 -41l-1 -9h100l-33 -161h-95zM566 0h-185l142 697h185z" />
    <glyph glyph-name="ffi" unicode="ffi" horiz-adv-x="1020" 
d="M219 0h-185l70 343h-84l33 161h84l13 57q17 73 76 111.5t148 38.5q50 0 81 -10l-28 -142q-18 6 -42 6q-31 0 -44.5 -11.5t-19.5 -40.5l-1 -9h158l13 57q20 74 89.5 112t174.5 38q84 0 131 -10l-28 -142q-38 6 -92 6q-51 0 -73 -11t-31 -41l-1 -9h345l-103 -504h-185
l70 343h-158l-70 -343h-185l70 343h-156z" />
    <glyph glyph-name="ffl" unicode="ffl" horiz-adv-x="1023" 
d="M219 0h-185l70 343h-84l33 161h84l13 57q17 73 76 111.5t148 38.5q50 0 81 -10l-28 -142q-18 6 -42 6q-31 0 -44.5 -11.5t-19.5 -40.5l-1 -9h168l13 57q17 73 76 111.5t148 38.5q55 0 91 -10l-28 -142q-22 6 -52 6q-31 0 -44.5 -11.5t-19.5 -40.5l-1 -9h97l-33 -161h-95
l-70 -343h-185l70 343h-166zM906 0h-174l142 697h174z" />
    <glyph glyph-name="fj" unicode="fj" horiz-adv-x="675" 
d="M219 0h-185l70 343h-84l33 161h84l13 57q20 74 89.5 112t174.5 38q84 0 131 -10l-28 -142q-37 6 -92 6q-51 0 -73 -11t-31 -41l-1 -9h345l-109 -534q-39 -191 -212 -191q-60 0 -97 5l32 158q30 -2 34 -2q29 0 43 13t20 44l71 346h-158z" />
    <glyph glyph-name="ffj" unicode="ffj" horiz-adv-x="1016" 
d="M219 0h-185l70 343h-84l33 161h84l13 57q17 73 76 111.5t148 38.5q50 0 81 -10l-28 -142q-18 6 -42 6q-31 0 -44.5 -11.5t-19.5 -40.5l-1 -9h158l13 57q20 74 89.5 112t174.5 38q84 0 131 -10l-28 -142q-38 6 -92 6q-51 0 -73 -11t-31 -41l-1 -9h345l-109 -534
q-39 -191 -212 -191q-60 0 -97 5l32 158q30 -2 34 -2q29 0 43 13t20 44l71 346h-158l-70 -343h-185l70 343h-156z" />
    <glyph glyph-name=".notdef" horiz-adv-x="712" 
d="M641 0h-712l142 697h712zM167 585l-96 -473h474l96 473h-474zM339 264l-141 -117l-67 84l141 117l-93 117l101 84l93 -117l141 117l67 -84l-141 -117l93 -117l-101 -84z" />
    <glyph glyph-name=".null" horiz-adv-x="0" 
 />
    <glyph glyph-name="nonmarkingreturn" horiz-adv-x="333" 
 />
    <glyph glyph-name="NULL" horiz-adv-x="0" 
 />
    <glyph glyph-name="NULL" horiz-adv-x="0" 
 />
    <glyph glyph-name="CR.001" unicode="&#xd;" horiz-adv-x="0" 
 />
    <glyph glyph-name="space" unicode=" " horiz-adv-x="400" 
 />
    <glyph glyph-name="exclam" unicode="!" horiz-adv-x="312" 
d="M207 207h-161l72 490h217zM4 74q0 44 31 75q31 33 76 33q40 0 65 -24t25 -62q0 -43 -31 -74q-32 -32 -77 -32q-39 0 -64 23.5t-25 60.5z" />
    <glyph glyph-name="quotedbl" unicode="&#x22;" horiz-adv-x="447" 
d="M413 445h-121l29 252h166zM194 445h-121l29 252h166z" />
    <glyph glyph-name="numbersign" unicode="#" horiz-adv-x="701" 
d="M191 63h-157l40 89h-83l32 156h121l33 73h-82l31 156h121l39 85h156l-39 -85h72l39 85h157l-39 -85h79l-31 -156h-118l-33 -73h79l-32 -156h-117l-40 -89h-157l40 89h-71zM334 381l-33 -73h71l33 73h-71z" />
    <glyph glyph-name="dollar" unicode="$" horiz-adv-x="604" 
d="M-40 154l154 99q14 -35 46.5 -60t75.5 -33l25 121q-193 60 -193 198q0 95 76 162t207 67l20 99h79l-23 -111q56 -14 99.5 -46.5t64.5 -71.5l-141 -99q-20 38 -59 54l-22 -108q196 -61 196 -197q0 -101 -74 -167q-73 -65 -212 -70l-20 -97h-79l21 101q-92 12 -155.5 56
t-85.5 103zM300 449l20 95q-29 -2 -47.5 -16t-18.5 -32q0 -30 46 -47zM330 256l-20 -98q65 12 65 51q0 27 -45 47z" />
    <glyph glyph-name="percent" unicode="%" horiz-adv-x="776" 
d="M209 402q-66 0 -107.5 37.5t-41.5 96.5q0 68 52 119q52 52 125 52q66 0 108 -38.5t42 -98.5q0 -66 -52 -117q-51 -51 -126 -51zM166 0h-175l616 697h175zM221 521q15 0 25 10.5t10 25.5q0 13 -8.5 21.5t-21.5 8.5q-14 0 -24.5 -11.5t-10.5 -25.5q0 -13 8.5 -21t21.5 -8z
M389 124q0 68 52 119q52 52 125 52q66 0 108 -38.5t42 -98.5q0 -66 -52 -117q-51 -51 -126 -51q-66 0 -107.5 37.5t-41.5 96.5zM520 138q0 -13 8.5 -21t21.5 -8q15 0 25 10.5t10 25.5q0 13 -8.5 21.5t-21.5 8.5q-14 0 -24.5 -11.5t-10.5 -25.5z" />
    <glyph glyph-name="ampersand" unicode="&#x26;" horiz-adv-x="872" 
d="M-1 198q0 84 53 157q52 73 136 102q-3 12 -3 32q0 94 76 160q77 66 191 66q89 0 148 -44q58 -43 58 -110q0 -34 -22 -57h249l-35 -170h-122q-10 -63 -31 -113q-19 -46 -67 -91l107 -130h-234l-29 35q-91 -50 -200 -50q-128 0 -201.5 57t-73.5 156zM354 487q0 -40 30 -79
l49 -63l22 106q22 5 36 23t14 41q0 25 -18.5 41.5t-47.5 16.5q-35 0 -60 -26t-25 -60zM188 214q0 -31 25 -49t69 -18q42 0 78 12q-33 43 -86 104q-22 27 -28 37q-58 -21 -58 -86zM442 334l71 -90q35 27 46 90h-117z" />
    <glyph glyph-name="quotesingle" unicode="'" horiz-adv-x="228" 
d="M194 445h-121l29 252h166z" />
    <glyph glyph-name="parenleft" unicode="(" horiz-adv-x="342" 
d="M171 213q0 -177 99 -305l-98 -87q-160 148 -160 388q0 174 89 332q88 157 237 250l65 -93q-107 -88 -170 -216q-62 -129 -62 -269z" />
    <glyph glyph-name="parenright" unicode=")" horiz-adv-x="342" 
d="M-13 -179l-65 93q108 88 169 215q63 129 63 270q0 177 -99 305l98 87q160 -148 160 -388q0 -174 -89 -332q-88 -157 -237 -250z" />
    <glyph glyph-name="asterisk" unicode="*" horiz-adv-x="366" 
d="M209 463l-62 -84l-82 81l83 65l-93 29l55 104l80 -53l7 92h117l-36 -102l97 36l17 -112l-98 -11l49 -76l-103 -57z" />
    <glyph glyph-name="plus" unicode="+" horiz-adv-x="590" 
d="M331 98h-174l35 173h-165l32 156h165l35 173h174l-35 -173h165l-32 -156h-165z" />
    <glyph glyph-name="comma" unicode="," horiz-adv-x="266" 
d="M-120 -128l136 239h171l-175 -239h-132z" />
    <glyph glyph-name="hyphen" unicode="-" horiz-adv-x="460" 
d="M395 209h-386l31 156h386z" />
    <glyph glyph-name="period" unicode="." horiz-adv-x="226" 
d="M50 -10q-39 0 -64 23.5t-25 60.5q0 43 32 75q31 33 75 33q40 0 65 -24t25 -62q0 -43 -31 -74q-32 -32 -77 -32z" />
    <glyph glyph-name="slash" unicode="/" horiz-adv-x="469" 
d="M541 723l-505 -859h-168l505 859h168z" />
    <glyph glyph-name="zero" unicode="0" horiz-adv-x="612" 
d="M13 207q0 30 10 80l35 174q25 127 106 186q82 59 187 59q113 0 180 -63q68 -62 68 -156q0 -28 -11 -80l-35 -173q-25 -128 -106 -187q-79 -58 -186 -58q-113 0 -181 62q-67 61 -67 156zM194 218q0 -27 21.5 -45t59.5 -18q78 0 96 84l43 209l1 6q1 5 1.5 12t0.5 11
q0 28 -21.5 46t-59.5 18q-78 0 -96 -85l-44 -209q-2 -24 -2 -29z" />
    <glyph glyph-name="one" unicode="1" horiz-adv-x="386" 
d="M254 0h-190l107 525h-104l35 172h294z" />
    <glyph glyph-name="two" unicode="2" horiz-adv-x="560" 
d="M467 0h-545l381 381l25 24l27 28q23 28 23 53q0 26 -19.5 43.5t-49.5 17.5q-34 0 -58 -23t-32 -67h-167q24 131 98 190q75 60 174 60q100 0 161 -58q63 -59 63 -148q0 -26 -5 -51q-4 -26 -27.5 -65t-61.5 -75l-143 -138h191z" />
    <glyph glyph-name="three" unicode="3" horiz-adv-x="568" 
d="M-38 130l162 97q25 -64 102 -64q48 0 77.5 24.5t29.5 61.5q0 33 -32 52t-89 19q-63 0 -114 -10l192 215h-196l35 172h492l-224 -259l-1 -1q58 -14 93.5 -61t35.5 -112q0 -112 -87 -192q-85 -79 -223 -79q-85 0 -155 37q-71 38 -98 100z" />
    <glyph glyph-name="four" unicode="4" horiz-adv-x="641" 
d="M352 118h-388l362 579h202l-254 -413h112l25 122h185l-83 -406h-185z" />
    <glyph glyph-name="five" unicode="5" horiz-adv-x="562" 
d="M-35 139l170 94q7 -31 35.5 -50.5t64.5 -19.5q41 0 66.5 23t25.5 59q0 30 -33.5 50t-84.5 20q-89 0 -161 -15l140 397h368l-35 -172h-220l-24 -61h9q103 0 167 -58q65 -59 65 -148q0 -112 -84 -188q-83 -77 -217 -77q-86 0 -159 41q-72 40 -93 105z" />
    <glyph glyph-name="six" unicode="6" horiz-adv-x="581" 
d="M-8 228q0 54 26 115q11 24 37 57q33 42 42 52l56 65l159 180h216l-176 -200h1q87 -2 142 -62q55 -61 55 -154q0 -111 -87 -196q-86 -85 -215 -85q-114 0 -185 64q-71 65 -71 164zM181 247q0 -34 23 -55t59 -21q39 0 67.5 28t28.5 64q0 34 -23 55.5t-59 21.5
q-39 0 -67.5 -28t-28.5 -65z" />
    <glyph glyph-name="seven" unicode="7" horiz-adv-x="557" 
d="M197 0h-205l338 525h-272l35 172h546z" />
    <glyph glyph-name="eight" unicode="8" horiz-adv-x="591" 
d="M0 216q0 59 35.5 111t94.5 81q-28 34 -28 79q2 89 72 153q70 66 172 66q90 0 149 -53q58 -52 58 -135q0 -38 -18.5 -72.5t-49.5 -55.5q60 -56 60 -138q0 -106 -83 -183q-82 -76 -210 -76q-111 0 -182 62q-70 63 -70 161zM322 445q27 0 45 17.5t18 41.5q0 20 -15.5 33
t-39.5 13t-42.5 -17t-18.5 -38q0 -23 14.5 -36.5t38.5 -13.5zM192 231q0 -30 21 -49t54 -19q37 0 63 24t26 56q0 30 -22 49.5t-56 19.5q-35 0 -60.5 -24.5t-25.5 -56.5z" />
    <glyph glyph-name="nine" unicode="9" horiz-adv-x="587" 
d="M263 0h-213l184 208h-1q-65 0 -130 61q-66 61 -66 153q0 113 86 197q86 85 214 85q111 0 182 -65q72 -64 72 -163q0 -73 -28 -122q-26 -48 -105 -136zM309 365q38 0 66 28.5t28 65.5q0 32 -22 53.5t-56 21.5q-39 0 -67.5 -28t-28.5 -64q0 -34 22.5 -55.5t57.5 -21.5z" />
    <glyph glyph-name="colon" unicode=":" horiz-adv-x="246" 
d="M121 289q-39 0 -64 23.5t-25 60.5q0 44 31 75q31 33 76 33q40 0 65 -24t25 -62q0 -43 -31 -74q-32 -32 -77 -32zM68 27q-39 0 -64 23.5t-25 60.5q0 44 31 75q32 33 76 33q40 0 65 -24t25 -62q0 -43 -31 -74q-32 -32 -77 -32z" />
    <glyph glyph-name="semicolon" unicode=";" horiz-adv-x="266" 
d="M135 287q-39 0 -64 23.5t-25 60.5q0 44 31 75q32 33 76 33q40 0 65 -24t25 -62q0 -43 -31 -74q-32 -32 -77 -32zM-120 -128l136 239h171l-175 -239h-132z" />
    <glyph glyph-name="less" unicode="&#x3c;" horiz-adv-x="495" 
d="M423 227l-33 -162l-382 291l501 291l-38 -185l-193 -114z" />
    <glyph glyph-name="equal" unicode="=" horiz-adv-x="600" 
d="M561 392h-504l31 156h504zM511 148h-504l32 156h504z" />
    <glyph glyph-name="greater" unicode="&#x3e;" horiz-adv-x="495" 
d="M489 356l-501 -291l38 185l193 114l-145 121l33 162z" />
    <glyph glyph-name="question" unicode="?" horiz-adv-x="457" 
d="M224 179q-71 0 -116 39t-45 100q0 118 144 173l36 13q29 13 29 19q0 16 -39 16q-78 0 -166 -47l35 170q66 45 156 45q92 0 150 -42q59 -42 59 -107q0 -117 -144 -171q-60 -22 -72 -32q-8 -8 -8 -18q0 -19 36 -19q31 0 75 14l-27 -133q-45 -20 -103 -20zM71 63q0 41 31 72
t73 31q39 0 63.5 -23t24.5 -59q0 -40 -31 -71q-30 -30 -74 -30q-38 0 -62.5 22.5t-24.5 57.5z" />
    <glyph glyph-name="at" unicode="@" horiz-adv-x="803" 
d="M11 257q0 158 122 280q121 121 291 121q152 0 250 -90q98 -89 98 -227q0 -102 -67 -181q-66 -79 -163 -79q-65 0 -95 41q-16 22 -16 51q-29 -45 -94 -45q-49 0 -88 39q-38 41 -38 104q0 73 52 125t116 52q70 0 77 -31l6 27h128l-44 -220q-1 -1 -1 -7q0 -21 19 -21
q31 0 50 40q21 41 21 92q0 88 -63 143q-62 57 -160 57q-108 0 -184 -79q-76 -77 -76 -181q0 -94 61 -152q62 -59 159 -59q42 0 71 13l28 -119q-43 -24 -111 -24q-154 0 -252 92q-97 93 -97 238zM388 247q19 0 32.5 13t13.5 27q0 19 -11 31t-29 12q-35 2 -44 -31
q-8 -29 12 -45q11 -9 26 -7z" />
    <glyph glyph-name="A" unicode="A" horiz-adv-x="770" 
d="M192 91l-64 -91h-200l537 744l235 -744h-184l-26 91h-298zM406 404l-116 -166h163z" />
    <glyph glyph-name="B" unicode="B" horiz-adv-x="645" 
d="M368 0h-382l142 697h306q76 0 124 -45q48 -44 48 -112q0 -54 -32 -103q-31 -47 -89 -61q54 -14 81.5 -53t27.5 -92q0 -93 -62 -163q-62 -68 -164 -68zM286 543l-25 -124h93q29 0 49.5 21t20.5 49q0 24 -15.5 39t-41.5 15h-81zM235 289l-27 -133h127q32 0 53.5 22t21.5 53
q0 26 -17.5 42t-45.5 16h-112z" />
    <glyph glyph-name="C" unicode="C" horiz-adv-x="674" 
d="M22 310q-3 100 54.5 193t157 149.5t210.5 54.5q152 0 238 -77l-37 -184q-82 91 -214 91q-88 0 -152 -64q-63 -63 -63 -147q0 -74 49 -120t127 -46q116 0 207 69l-38 -188q-69 -51 -185 -51q-156 0 -255 90t-99 230z" />
    <glyph glyph-name="D" unicode="D" horiz-adv-x="744" 
d="M338 0h-352l142 697h269q144 0 235 -88t91 -225q0 -150 -111 -267t-274 -117zM281 517l-70 -345h129q79 0 134 58t55 133q0 67 -43.5 110.5t-112.5 43.5h-92z" />
    <glyph glyph-name="E" unicode="E" 
d="M508 0h-522l142 697h514l-35 -171h-324l-20 -96h302l-31 -156h-302l-22 -106h332z" />
    <glyph glyph-name="F" unicode="F" horiz-adv-x="594" 
d="M176 0h-190l142 697h504l-35 -171h-314l-22 -108h285l-33 -161h-285z" />
    <glyph glyph-name="G" unicode="G" horiz-adv-x="754" 
d="M22 310q-3 100 54.5 193t157 149.5t210.5 54.5q152 0 238 -77l-37 -184q-39 42 -97.5 66.5t-119.5 24.5q-87 0 -150 -64q-62 -64 -62 -147q0 -74 49 -120t127 -46q74 0 133 44l13 63h-180l32 158h344l-65 -322q-124 -113 -293 -113q-156 0 -255 90t-99 230z" />
    <glyph glyph-name="H" unicode="H" horiz-adv-x="756" 
d="M176 0h-190l142 697h190l-49 -242h262l49 242h190l-142 -697h-190l57 281h-262z" />
    <glyph glyph-name="I" unicode="I" horiz-adv-x="312" 
d="M180 0h-190l142 697h190z" />
    <glyph glyph-name="J" unicode="J" horiz-adv-x="391" 
d="M-66 5l35 167q25 -12 71 -12q42 0 64.5 20t31.5 63l93 454h190l-91 -449q-28 -135 -92.5 -196.5t-188.5 -61.5q-72 0 -113 15z" />
    <glyph glyph-name="K" unicode="K" horiz-adv-x="699" 
d="M176 0h-190l142 697h190l-59 -287l271 287h237l-333 -349l202 -348h-212l-184 316z" />
    <glyph glyph-name="L" unicode="L" horiz-adv-x="532" 
d="M441 0h-455l142 697h190l-107 -525h265z" />
    <glyph glyph-name="M" unicode="M" horiz-adv-x="878" 
d="M163 0h-177l147 724l292 -386l474 395l-149 -733h-177l63 310l-243 -208l-164 224z" />
    <glyph glyph-name="N" unicode="N" horiz-adv-x="758" 
d="M168 0h-182l148 725l381 -396l75 368h182l-148 -725l-381 394z" />
    <glyph glyph-name="O" unicode="O" horiz-adv-x="829" 
d="M22 311q0 102 55 193q55 92 153 147q98 56 213 56q157 0 260 -92q103 -91 103 -234q0 -156 -120 -276q-121 -119 -300 -119q-159 0 -262 91q-102 91 -102 234zM218 325q0 -76 49 -122q50 -47 129 -47q88 0 151 64q63 65 63 145q0 75 -50 123q-49 49 -128 49
q-86 0 -150 -64t-64 -148z" />
    <glyph glyph-name="P" unicode="P" horiz-adv-x="651" 
d="M176 0h-190l142 697h293q103 0 168 -63q66 -62 66 -159q0 -109 -81 -191q-79 -82 -197 -82h-160zM283 525l-31 -151h131q33 0 57.5 26t24.5 60q0 28 -19 46.5t-49 18.5h-114z" />
    <glyph glyph-name="Q" unicode="Q" horiz-adv-x="827" 
d="M23 311q0 102 55 193q56 92 153 147q98 56 213 56q157 0 260 -92q103 -91 103 -234q0 -153 -113 -269l91 -112h-196l-25 30q-73 -44 -187 -44q-155 0 -255 91q-99 91 -99 234zM219 325q0 -76 49 -122q50 -47 129 -47q17 0 45 5l-119 148h202l48 -60q38 56 38 116
q0 75 -50 123q-49 49 -128 49q-86 0 -150 -64t-64 -148z" />
    <glyph glyph-name="R" unicode="R" horiz-adv-x="680" 
d="M176 0h-190l142 697h296q101 0 163 -61q64 -60 64 -154q0 -75 -43 -142q-44 -66 -114 -99l114 -241h-207l-98 217h-83zM283 525l-32 -156h121q35 0 60.5 27t25.5 61q0 30 -19.5 49t-51.5 19h-104z" />
    <glyph glyph-name="S" unicode="S" horiz-adv-x="594" 
d="M-29 77l38 179q99 -96 248 -96q54 0 81.5 14t27.5 36q0 18 -30 34t-116 48q-155 59 -155 195q0 92 76 156t195 64q157 0 243 -77l-37 -177q-39 42 -94.5 63.5t-107.5 21.5q-44 0 -67 -11t-23 -29q0 -24 39 -44l37 -16q5 -2 11.5 -4.5t16 -6t16.5 -6.5l41 -15
q145 -58 145 -186q0 -99 -78 -165q-79 -65 -217 -65q-193 0 -290 87z" />
    <glyph glyph-name="T" unicode="T" horiz-adv-x="572" 
d="M312 0h-190l107 525h-188l35 172h562l-35 -172h-184z" />
    <glyph glyph-name="U" unicode="U" horiz-adv-x="724" 
d="M30 258q0 39 11 94l70 345h190l-82 -400q-2 -16 -2 -30q0 -49 31 -77t87 -28q112 0 139 132l82 403h190l-83 -407q-31 -153 -113.5 -226.5t-231.5 -73.5q-74 0 -143 30q-64 25 -104 84.5t-41 153.5z" />
    <glyph glyph-name="V" unicode="V" horiz-adv-x="774" 
d="M844 697l-537 -735l-235 735h194l109 -341l249 341h220z" />
    <glyph glyph-name="W" unicode="W" horiz-adv-x="995" 
d="M505 358l-304 -388l-117 727h185l53 -320l246 316l98 -303l181 307h206l-426 -728z" />
    <glyph glyph-name="X" unicode="X" horiz-adv-x="692" 
d="M153 0h-222l300 364l-146 333h203l83 -189l157 189h221l-286 -349l156 -348h-204l-92 205z" />
    <glyph glyph-name="Y" unicode="Y" horiz-adv-x="716" 
d="M381 0h-188l50 247l-171 450h199l96 -260l198 260h221l-358 -465z" />
    <glyph glyph-name="Z" unicode="Z" horiz-adv-x="656" 
d="M559 0h-629l431 525h-257l35 172h577l-429 -525h307z" />
    <glyph glyph-name="bracketleft" unicode="[" horiz-adv-x="408" 
d="M269 541l-129 -635h172l-32 -156h-346l193 947h346l-32 -156h-172z" />
    <glyph glyph-name="backslash" unicode="\" horiz-adv-x="469" 
d="M403 -136h-157l-166 859h158z" />
    <glyph glyph-name="bracketright" unicode="]" horiz-adv-x="408" 
d="M-84 -94h172l129 635h-172l32 156h346l-193 -947h-346z" />
    <glyph glyph-name="asciicircum" unicode="^" horiz-adv-x="536" 
d="M188 350h-183l340 375l186 -375h-166l-62 125z" />
    <glyph glyph-name="underscore" unicode="_" horiz-adv-x="482" 
d="M-117 -167l28 137h506l-28 -137h-506z" />
    <glyph glyph-name="grave" unicode="`" horiz-adv-x="510" 
d="M398 552h-135l-74 145h185z" />
    <glyph glyph-name="a" unicode="a" horiz-adv-x="639" 
d="M-2 222q0 118 88 203t199 85q57 0 98 -16t50 -43l11 53h181l-103 -504h-178l12 56q-42 -62 -138 -62q-88 0 -154 63t-66 165zM189 243q0 -38 26.5 -62.5t69.5 -24.5q49 0 81 31q33 31 33 73q0 38 -26.5 63t-69.5 25q-46 0 -81 -32q-33 -32 -33 -73z" />
    <glyph glyph-name="b" unicode="b" horiz-adv-x="639" 
d="M156 0h-181l142 697h181l-50 -246q41 59 134 59q89 0 153 -64q66 -63 66 -164q0 -118 -88 -203q-86 -85 -198 -85q-57 0 -98 16t-50 43zM201 244q0 -38 26.5 -63t69.5 -25q48 0 80 31q33 31 33 74q0 38 -26.5 62.5t-68.5 24.5q-47 0 -81 -32q-33 -32 -33 -72z" />
    <glyph glyph-name="c" unicode="c" horiz-adv-x="500" 
d="M-1 225q0 117 92 206q94 89 221 89q113 0 174 -49l-33 -160q-53 39 -131 39q-56 0 -96 -33q-40 -31 -40 -75q0 -37 31 -60.5t80 -23.5q73 0 131 35l-33 -167q-52 -38 -134 -38q-115 0 -189 66q-73 67 -73 171z" />
    <glyph glyph-name="d" unicode="d" horiz-adv-x="639" 
d="M-2 222q0 118 88 203t199 85q57 0 98 -16t50 -43l50 246h181l-142 -697h-178l12 56q-42 -62 -138 -62q-88 0 -154 63t-66 165zM189 243q0 -38 26.5 -62.5t69.5 -24.5q49 0 81 31q33 31 33 73q0 38 -26.5 63t-69.5 25q-46 0 -81 -32q-33 -32 -33 -73z" />
    <glyph glyph-name="e" unicode="e" horiz-adv-x="588" 
d="M-2 220q0 119 88 207q89 89 218 89q110 0 179 -63q70 -61 70 -159q0 -42 -17 -93h-358v-2q0 -25 30 -41t78 -16q94 0 172 33l-36 -154q-66 -32 -170 -32q-115 0 -185 64q-69 65 -69 167zM190 313h188v3q0 26 -22.5 42.5t-58.5 16.5q-38 0 -68 -17.5t-39 -44.5z" />
    <glyph glyph-name="f" unicode="f" horiz-adv-x="406" 
d="M219 0h-185l70 343h-84l33 161h84l13 57q17 73 76 111.5t148 38.5q55 0 91 -10l-28 -142q-23 6 -52 6q-33 0 -47 -11t-20 -41l-1 -9h100l-33 -161h-95z" />
    <glyph glyph-name="g" unicode="g" horiz-adv-x="635" 
d="M-31 -157l31 156q33 -30 89 -50t110 -20q78 1 113 31.5t42 65.5l6 26q-38 -54 -141 -54q-90 0 -155 61q-66 61 -66 163q0 118 88 203t199 85q57 0 98 -16t50 -43l11 53h181l-94 -458q-15 -73 -48 -130q-23 -41 -54 -68q-33 -30 -87.5 -49t-119.5 -19q-165 0 -253 63z
M185 243q0 -38 27.5 -62.5t70.5 -24.5q50 0 82 31q34 31 34 73q0 38 -27.5 63t-70.5 25q-47 0 -82 -32q-34 -31 -34 -73z" />
    <glyph glyph-name="h" unicode="h" horiz-adv-x="597" 
d="M160 0h-185l142 697h185l-52 -255q53 74 138 74q78 0 121.5 -44.5t43.5 -122.5q0 -22 -5 -50l-62 -299h-185l57 282q2 18 2 20q0 26 -15.5 41t-43.5 15q-33 0 -55 -21t-30 -60z" />
    <glyph glyph-name="i" unicode="i" horiz-adv-x="277" 
d="M186 527q-42 0 -68.5 25.5t-26.5 65.5q0 44 33 77q33 34 80 34q42 0 68.5 -26t26.5 -66q0 -43 -33 -77q-33 -33 -80 -33zM160 0h-185l103 504h185z" />
    <glyph glyph-name="j" unicode="j" horiz-adv-x="272" 
d="M185 527q-42 0 -68.5 25.5t-26.5 65.5q0 44 33 77q33 34 80 34q42 0 68.5 -26t26.5 -66q0 -43 -33 -77q-33 -33 -80 -33zM-27 -3l104 507h185l-109 -534q-39 -191 -212 -191q-60 0 -97 5l32 158q30 -2 34 -2q29 0 43 13t20 44z" />
    <glyph glyph-name="k" unicode="k" horiz-adv-x="563" 
d="M160 0h-185l142 697h185l-79 -386l159 193h208l-209 -247l116 -257h-201l-91 219z" />
    <glyph glyph-name="l" unicode="l" horiz-adv-x="277" 
d="M160 0h-185l142 697h185z" />
    <glyph glyph-name="m" unicode="m" horiz-adv-x="886" 
d="M160 0h-185l103 504h185l-13 -62q50 74 129 74q103 0 135 -78q69 78 173 78q72 0 113.5 -44.5t41.5 -122.5q0 -22 -5 -50l-62 -299h-185l57 282q2 18 2 20q0 56 -49 56q-58 0 -76 -83l-57 -275h-185l57 282q2 18 2 20q0 56 -49 56q-59 0 -76 -81z" />
    <glyph glyph-name="n" unicode="n" horiz-adv-x="609" 
d="M160 0h-185l103 504h185l-13 -62q54 74 143 74q77 0 124 -44t47 -123q0 -22 -5 -50l-62 -299h-185l57 282q2 18 2 20q0 26 -17 41t-48 15q-35 0 -58.5 -22t-31.5 -59z" />
    <glyph glyph-name="o" unicode="o" horiz-adv-x="620" 
d="M-1 227q0 115 93 204q94 88 224 88q118 0 191 -69q74 -68 74 -173q0 -115 -92 -204q-91 -88 -224 -88q-116 0 -192 68q-74 68 -74 174zM184 243q0 -39 27 -64t70 -25q47 0 81 32q34 31 34 74q0 39 -27 64.5t-70 25.5q-46 0 -81 -32q-34 -31 -34 -75z" />
    <glyph glyph-name="p" unicode="p" horiz-adv-x="639" 
d="M167 53l-50 -246h-181l142 697h181l-11 -53q41 59 134 59q89 0 153 -64q66 -63 66 -164q0 -118 -88 -203q-86 -85 -198 -85q-57 0 -98 16t-50 43zM201 244q0 -38 26.5 -63t69.5 -25q48 0 80 31q33 31 33 74q0 38 -26.5 62.5t-68.5 24.5q-47 0 -81 -32q-33 -32 -33 -72z
" />
    <glyph glyph-name="q" unicode="q" horiz-adv-x="633" 
d="M-2 222q0 118 88 203t199 85q57 0 98 -16t50 -43l11 53h181l-142 -697h-181l52 247q-44 -60 -136 -60q-88 0 -154 63t-66 165zM189 243q0 -38 26.5 -62.5t69.5 -24.5q49 0 81 31q33 31 33 73q0 38 -26.5 63t-69.5 25q-46 0 -81 -32q-33 -32 -33 -73z" />
    <glyph glyph-name="r" unicode="r" horiz-adv-x="431" 
d="M160 0h-185l103 504h185l-13 -62q53 74 138 74q34 0 61 -6l-33 -165q-38 5 -66 5q-118 0 -149 -153z" />
    <glyph glyph-name="s" unicode="s" horiz-adv-x="498" 
d="M-24 43l31 151q95 -59 196 -59q67 0 67 23q0 6 -11 11q-5 2 -44 11q-46 10 -58 14q-64 18 -92 49.5t-28 89.5q0 77 69 131q68 55 169 55q113 0 175 -42l-30 -150q-59 40 -158 40q-57 0 -57 -22q0 -10 15 -16q26 -8 52 -13q41 -8 55 -12q63 -18 91 -49t28 -92
q0 -79 -67 -128q-67 -48 -183 -48q-126 0 -220 56z" />
    <glyph glyph-name="t" unicode="t" horiz-adv-x="376" 
d="M192 0h-185l70 343h-69l33 161h69l39 193h185l-39 -193h104l-33 -161h-104z" />
    <glyph glyph-name="u" unicode="u" horiz-adv-x="602" 
d="M9 201q0 28 10 78l46 225h187l-54 -266q-2 -22 -2 -25q0 -24 18 -39.5t52 -15.5q68 0 83 73l57 273h186l-56 -277q-17 -87 -63 -142q-81 -97 -222 -97q-111 0 -177 60q-65 62 -65 153z" />
    <glyph glyph-name="v" unicode="v" horiz-adv-x="596" 
d="M642 504l-420 -531l-204 531h184l75 -196l153 196h212z" />
    <glyph glyph-name="w" unicode="w" horiz-adv-x="750" 
d="M357 224l-207 -251l-121 531h176l48 -198l142 179l85 -176l123 195h182l-315 -531z" />
    <glyph glyph-name="x" unicode="x" horiz-adv-x="573" 
d="M250 129l-118 -129h-211l242 266l-119 238h192l55 -110l99 110h204l-218 -250l135 -254h-193z" />
    <glyph glyph-name="y" unicode="y" horiz-adv-x="629" 
d="M19 -194l125 198l-111 500h181l59 -295l185 295h197l-440 -698h-196z" />
    <glyph glyph-name="z" unicode="z" horiz-adv-x="546" 
d="M470 0h-553l321 343h-202l33 161h518l-316 -343h232z" />
    <glyph glyph-name="braceleft" unicode="{" horiz-adv-x="390" 
d="M26 -39l36 176l1 5q1 4 1.5 9.5t0.5 8.5q0 27 -19.5 44.5t-51.5 17.5l17 82q85 0 101 78l42 206q22 109 129 109h143l-31 -149h-39q-44 0 -53 -44l-24 -119q-12 -57 -46.5 -87.5t-84.5 -34.5q39 -5 61.5 -29.5t22.5 -60.5q0 -13 -4 -33l-22 -106q-2 -14 -2 -15
q0 -18 13 -29.5t34 -11.5h29l-31 -149h-117q-50 0 -80.5 27t-30.5 70q0 5 5 35z" />
    <glyph glyph-name="bar" unicode="|" horiz-adv-x="296" 
d="M158 -28h-174l154 753h174z" />
    <glyph glyph-name="braceright" unicode="}" horiz-adv-x="390" 
d="M52 22l24 119q12 57 46.5 87.5t84.5 34.5q-39 5 -61.5 29.5t-22.5 60.5q0 13 4 33l22 106q2 14 2 15q0 18 -13 29.5t-34 11.5h-29l31 149h117q50 0 80.5 -27t30.5 -70q0 -5 -5 -35l-36 -176l-1 -5q0 -4 -1 -9.5t-1 -8.5q0 -27 19.5 -44.5t51.5 -17.5l-17 -82
q-84 0 -101 -78l-42 -206q-22 -109 -129 -109h-143l31 149h39q44 0 53 44z" />
    <glyph glyph-name="asciitilde" unicode="~" horiz-adv-x="492" 
d="M106 270l-95 16q18 76 62 122t100 46q44 0 92 -22t76 -22q32 0 50 42l95 -16q-21 -85 -63.5 -130t-102.5 -45q-46 0 -94 22t-76 22q-32 0 -44 -35z" />
    <glyph glyph-name="exclamdown" unicode="&#xa1;" horiz-adv-x="312" 
d="M161 322q-39 0 -64 23.5t-25 60.5q0 44 31 75q31 33 76 33q40 0 65 -24t25 -62q0 -43 -31 -74q-32 -32 -77 -32zM154 -193h-217l127 490h161z" />
    <glyph glyph-name="cent" unicode="&#xa2;" horiz-adv-x="537" 
d="M210 0h-88l44 110q-69 30 -108 86.5t-39 130.5q0 117 91 205q92 89 221 89q4 0 34 -2l31 78h88l-38 -96q63 -25 111 -91l-144 -105q-17 21 -32 31l-71 -180h1q44 3 79 38l112 -117q-87 -90 -213 -90q-26 0 -44 2zM234 277l69 173h-1q-42 -8 -70 -38.5t-28 -68.5
q0 -41 30 -66z" />
    <glyph glyph-name="sterling" unicode="&#xa3;" horiz-adv-x="603" 
d="M512 0h-557l26 127h9q76 0 128 34q53 35 53 79q0 18 -6 37h-119l24 117h60q-20 43 -20 95q0 87 77 155t184 68q91 0 150 -53t59 -135q0 -18 -3 -32h-157v3q0 19 -18.5 32t-47.5 13q-28 0 -48 -20.5t-20 -47.5q0 -30 22 -78h170l-24 -117h-109q10 -23 10 -41
q0 -54 -56 -84h244z" />
    <glyph glyph-name="currency" unicode="&#xa4;" horiz-adv-x="678" 
d="M188 121l-85 -80l-98 121l88 63q-15 36 -15 80q0 92 61 165l-74 78l119 100l68 -94q52 21 106 21q73 0 129 -31l86 82l99 -120l-92 -66q15 -38 15 -82q0 -88 -58 -159l71 -77l-120 -98l-64 90q-56 -21 -111 -21q-72 0 -125 28zM328 247q41 0 68 29q28 28 28 66
q0 34 -22.5 56t-57.5 22q-39 0 -67.5 -29t-28.5 -68q0 -33 22.5 -54.5t57.5 -21.5z" />
    <glyph glyph-name="yen" unicode="&#xa5;" horiz-adv-x="716" 
d="M381 0h-188l26 129h-212l25 120h210l-28 73h-167l24 120h98l-97 255h199l96 -260l198 260h221l-197 -255h94l-24 -120h-162l-56 -73h203l-25 -120h-212z" />
    <glyph glyph-name="brokenbar" unicode="&#xa6;" horiz-adv-x="296" 
d="M248 415h-174l58 282h174zM164 0h-174l60 294h174z" />
    <glyph glyph-name="section" unicode="&#xa7;" horiz-adv-x="575" 
d="M-27 9h176v-8q0 -26 16.5 -43t41.5 -17q27 0 46.5 17.5t19.5 39.5q0 25 -14 37q-17 16 -113 51q-139 52 -139 165q0 87 93 148q-24 31 -24 91q0 88 76 155t181 67q103 0 167 -52q66 -51 66 -131q0 -4 -5 -34h-176v7q0 26 -16.5 43.5t-41.5 17.5q-27 0 -47 -18.5
t-20 -42.5q0 -25 14 -37q11 -11 50 -28l35 -12l28 -10q140 -53 140 -163q0 -47 -22.5 -81t-71.5 -66q24 -35 24 -92q0 -86 -74 -154q-73 -67 -182 -67q-103 0 -168 51t-65 131q0 5 5 35zM295 190l23 -8q28 19 28 55q0 45 -108 77l-21 6q-30 -22 -30 -53q0 -43 108 -77z" />
    <glyph glyph-name="dieresis" unicode="&#xa8;" horiz-adv-x="510" 
d="M407 540q-34 0 -55.5 19.5t-21.5 49.5q0 36 27 62.5t65 26.5q34 0 56 -20t22 -51q0 -34 -27.5 -60.5t-65.5 -26.5zM197 540q-34 0 -55.5 19.5t-21.5 49.5q0 36 27 62.5t65 26.5q34 0 56 -20t22 -51q0 -34 -27.5 -60.5t-65.5 -26.5z" />
    <glyph glyph-name="copyright" unicode="&#xa9;" horiz-adv-x="807" 
d="M21 304q-3 107 52.5 203.5t152.5 154.5t208 56q155 0 252 -94q98 -93 98 -238q0 -164 -119 -286t-298 -122q-152 0 -249 91t-97 235zM155 316q0 -94 63 -154t162 -60q115 0 193 81q79 82 79 187q0 95 -64 156q-65 62 -164 62q-111 0 -190 -82t-79 -190zM199 324
q0 85 67 149t161 64q108 0 162 -80l-111 -81q-22 31 -57 31q-32 0 -56 -21t-24 -49q0 -26 18.5 -42t47.5 -16q33 0 59 26l87 -90q-65 -66 -156 -66q-87 0 -142 49q-56 50 -56 126z" />
    <glyph glyph-name="ordfeminine" unicode="&#xaa;" horiz-adv-x="477" 
d="M193 309q-61 0 -100 29.5t-39 76.5q0 63 49 96.5t155 44.5q12 2 33 3.5t27.5 4.5t6.5 11q0 7 -10.5 12t-26.5 5q-46 0 -99 -41l-73 75q70 76 182 76q82 0 125 -30t43 -86q0 -17 -3 -35l-23 -109q-1 -4 -2 -9v-3q0 -18 15 -18q3 0 6 1l-19 -92q-18 -9 -44 -9q-34 0 -54 9
t-29 30q-39 -42 -120 -42zM238 426q57 0 68 53l1 5q-2 -3 -13 -5.5t-27.5 -5t-23.5 -4.5q-40 -7 -40 -25t35 -18z" />
    <glyph glyph-name="guillemotleft" unicode="&#xab;" horiz-adv-x="643" 
d="M542 61h-171l-87 192l166 192h186l-177 -201zM267 61h-171l-87 192l166 192h186l-177 -201z" />
    <glyph glyph-name="logicalnot" unicode="&#xac;" horiz-adv-x="662" 
d="M449 389h-394l32 156h568l-67 -327h-174z" />
    <glyph glyph-name="registered" unicode="&#xae;" horiz-adv-x="424" 
d="M232 349q-76 0 -126 44q-49 45 -49 116q0 81 61 142t147 61q78 0 127 -46q50 -47 50 -117q0 -78 -61 -139t-149 -61zM238 422q52 0 88 36q37 36 37 83q0 43 -29.5 70.5t-75.5 27.5q-50 0 -87 -37q-36 -36 -36 -85q0 -41 28.5 -68t74.5 -27zM226 460h-53l29 146h65
q22 0 36.5 -14t14.5 -35q0 -32 -31 -45l24 -52h-56l-15 38h-7zM245 560l-5 -22h16q12 0 12 12q0 10 -10 10h-13z" />
    <glyph glyph-name="overscore" unicode="&#xaf;" horiz-adv-x="510" 
d="M461 557h-328l22 109h328z" />
    <glyph glyph-name="degree" unicode="&#xb0;" horiz-adv-x="444" 
d="M240 345q-76 0 -126 44q-48 44 -48 113q0 82 60 140q61 59 147 59q77 0 127 -45q49 -45 49 -115q0 -79 -60 -137q-59 -59 -149 -59zM252 460q30 0 51 21t21 48q0 25 -17 41t-44 16q-29 0 -50 -21.5t-21 -49.5q0 -24 16.5 -39.5t43.5 -15.5z" />
    <glyph glyph-name="plusminus" unicode="&#xb1;" horiz-adv-x="600" 
d="M356 195h-174l35 173h-165l32 156h165l35 173h174l-35 -173h165l-32 -156h-165zM481 0h-504l32 156h504z" />
    <glyph glyph-name="twosuperior" unicode="&#xb2;" horiz-adv-x="340" 
d="M322 328h-321l216 204q28 25 28 43q0 9 -8 15.5t-18 6.5q-33 0 -41 -42h-115q12 77 55 113t105 36q61 0 99.5 -34t38.5 -88q0 -57 -49 -97l-49 -40h83z" />
    <glyph glyph-name="threesuperior" unicode="&#xb3;" horiz-adv-x="333" 
d="M164 323q-46 0 -86.5 17.5t-58.5 46.5l110 70q10 -19 38 -19q38 0 38 28q0 26 -56 26q-10 0 -58 -6l90 94h-101l24 117h284l-125 -140h1q34 -9 54.5 -33.5t20.5 -56.5q0 -63 -48 -103.5t-127 -40.5z" />
    <glyph glyph-name="acute" unicode="&#xb4;" horiz-adv-x="510" 
d="M327 552h-136l78 145h190z" />
    <glyph glyph-name="mu" unicode="&#xb5;" horiz-adv-x="599" 
d="M156 35l-58 -285h-174l154 754h174l-58 -281q0 -3 -0.5 -12t-0.5 -11q0 -26 19.5 -42.5t54.5 -16.5q73 0 89 77l59 286h174l-62 -306q-23 -113 -85 -161.5t-164 -48.5q-81 0 -122 47z" />
    <glyph glyph-name="paragraph" unicode="&#xb6;" horiz-adv-x="799" 
d="M379 0h-189l40 198q-97 18 -150 76.5t-53 144.5q0 110 85 194q86 84 205 84h541l-35 -172h-68l-107 -525h-187l107 525h-82z" />
    <glyph glyph-name="middot" unicode="&#xb7;" horiz-adv-x="228" 
d="M84 157q-39 0 -64 23.5t-25 60.5q0 44 31 75q32 33 76 33q40 0 65 -24t25 -62q0 -43 -31 -74q-32 -32 -77 -32z" />
    <glyph glyph-name="cedilla" unicode="&#xb8;" horiz-adv-x="510" 
d="M105 -76h-1l47 76h96l-31 -46h1q20 0 36 -19t16 -47q0 -50 -38.5 -83t-99.5 -33q-34 0 -65 9.5t-44 24.5l48 72q16 -16 44 -16q15 0 26 10t11 23q0 29 -46 29z" />
    <glyph glyph-name="onesuperior" unicode="&#xb9;" horiz-adv-x="248" 
d="M208 328h-133l51 252h-59l24 117h192z" />
    <glyph glyph-name="ordmasculine" unicode="&#xba;" horiz-adv-x="473" 
d="M249 312q-87 0 -142 48q-55 49 -55 126q0 88 69 154q70 67 166 67q86 0 142 -50t56 -128q0 -85 -69 -151q-68 -66 -167 -66zM264 466q23 0 38 14.5t15 33.5q0 17 -12.5 28t-32.5 11q-22 0 -37 -14.5t-15 -34.5q0 -17 12.5 -27.5t31.5 -10.5z" />
    <glyph glyph-name="guillemotright" unicode="&#xbb;" horiz-adv-x="643" 
d="M428 61h-186l177 201l-83 183h171l87 -192zM154 61h-186l177 201l-83 183h171l87 -192z" />
    <glyph glyph-name="onequarter" unicode="&#xbc;" horiz-adv-x="766" 
d="M143 0h-175l616 697h175zM208 328h-133l51 252h-59l24 117h192zM564 59h-212l184 311h125l-122 -207h46l14 70h115l-47 -233h-115z" />
    <glyph glyph-name="onehalf" unicode="&#xbd;" horiz-adv-x="745" 
d="M120 0h-175l616 697h175zM208 328h-133l51 252h-59l24 117h192zM660 0h-321l216 204q28 25 28 43q0 9 -8 15.5t-18 6.5q-33 0 -41 -42h-115q12 77 55 113t105 36q61 0 99.5 -34t38.5 -88q0 -57 -49 -97l-49 -40h83z" />
    <glyph glyph-name="threequarters" unicode="&#xbe;" horiz-adv-x="780" 
d="M187 0h-175l616 697h175zM19 387l110 70q10 -19 38 -19q38 0 38 28q0 26 -56 26q-10 0 -58 -6l90 94h-101l24 117h284l-125 -140h1q34 -9 54.5 -33.5t20.5 -56.5q0 -63 -48 -103.5t-127 -40.5q-46 0 -86.5 17.5t-58.5 46.5zM578 59h-212l184 311h125l-122 -207h46l14 70
h115l-47 -233h-115z" />
    <glyph glyph-name="questiondown" unicode="&#xbf;" horiz-adv-x="457" 
d="M234 331q-39 0 -63.5 23t-24.5 59q0 40 30 70q31 31 75 31q38 0 62.5 -22.5t24.5 -57.5q0 -41 -31 -72t-73 -31zM138 -26q0 -16 39 -16q78 0 166 47l-35 -170q-66 -45 -156 -45q-93 0 -151 42t-58 107q0 117 144 171q60 22 72 32q8 8 8 18q0 19 -36 19q-31 0 -75 -14
l27 133q45 20 103 20q71 0 116 -39t45 -100q0 -117 -144 -173l-37 -13q-28 -14 -28 -19z" />
    <glyph glyph-name="Agrave" unicode="&#xc0;" horiz-adv-x="770" 
d="M192 91l-64 -91h-200l537 744l235 -744h-184l-26 91h-298zM406 404l-116 -166h163zM537 745h-135l-74 145h185z" />
    <glyph glyph-name="Aacute" unicode="&#xc1;" horiz-adv-x="770" 
d="M192 91l-64 -91h-200l537 744l235 -744h-184l-26 91h-298zM406 404l-116 -166h163zM531 745h-136l78 145h190z" />
    <glyph glyph-name="Acircumflex" unicode="&#xc2;" horiz-adv-x="770" 
d="M192 91l-64 -91h-200l537 744l235 -744h-184l-26 91h-298zM406 404l-116 -166h163zM412 745h-159l235 159l170 -159h-147l-40 50z" />
    <glyph glyph-name="Atilde" unicode="&#xc3;" horiz-adv-x="770" 
d="M192 91l-64 -91h-200l537 744l235 -744h-184l-26 91h-298zM406 404l-116 -166h163zM323 748l-94 16q15 63 58.5 102t99.5 39q41 0 87 -25q46 -24 72 -24q37 0 59 49l95 -16q-17 -70 -59.5 -109t-102.5 -39q-41 0 -89 24q-46 25 -72 25q-37 0 -54 -42z" />
    <glyph glyph-name="Adieresis" unicode="&#xc4;" horiz-adv-x="770" 
d="M192 91l-64 -91h-200l537 744l235 -744h-184l-26 91h-298zM406 404l-116 -166h163zM598 685q-34 0 -55.5 19.5t-21.5 49.5q0 36 27 62.5t65 26.5q34 0 56 -20t22 -51q0 -34 -27.5 -60.5t-65.5 -26.5zM309 685q-34 0 -55.5 19.5t-21.5 49.5q0 36 27 62.5t65 26.5
q34 0 56 -20t22 -51q0 -34 -27.5 -60.5t-65.5 -26.5z" />
    <glyph glyph-name="Aring" unicode="&#xc5;" horiz-adv-x="770" 
d="M191 91l-64 -91h-199l451 625q-53 29 -53 92q0 55 43 97t104 42q55 0 89.5 -31.5t34.5 -80.5q0 -40 -25.5 -75t-67.5 -51l196 -618h-183l-26 91h-300zM458 698q17 0 28 11t11 26q0 14 -9 22.5t-23 8.5q-16 0 -27.5 -11.5t-11.5 -26.5q0 -13 9 -21.5t23 -8.5zM406 405
l-119 -167h168z" />
    <glyph glyph-name="AE" unicode="&#xc6;" horiz-adv-x="960" 
d="M199 91l-93 -91h-223l682 697h418l-35 -171h-244l-20 -96h225l-31 -156h-225l-22 -106h252l-34 -168h-439l19 91h-230zM490 393l-153 -155h121z" />
    <glyph glyph-name="Ccedilla" unicode="&#xc7;" horiz-adv-x="674" 
d="M155 -194l48 72q16 -16 44 -16q15 0 26 10t11 23q0 29 -46 29h-1l46 76q-120 26 -190 108q-71 85 -71 202q-3 100 54.5 193t157 149.5t210.5 54.5q152 0 238 -77l-37 -184q-82 91 -214 91q-88 0 -152 -64q-63 -63 -63 -147q0 -74 49 -120t127 -46q116 0 207 69l-38 -188
q-69 -51 -185 -51h-3l-23 -36q20 0 36 -19t16 -47q0 -50 -38.5 -83t-99.5 -33q-34 0 -65 9.5t-44 24.5z" />
    <glyph glyph-name="Egrave" unicode="&#xc8;" 
d="M508 0h-522l142 697h514l-35 -171h-324l-20 -96h302l-31 -156h-302l-22 -106h332zM475 745h-135l-74 145h185z" />
    <glyph glyph-name="Eacute" unicode="&#xc9;" 
d="M508 0h-522l142 697h514l-35 -171h-324l-20 -96h302l-31 -156h-302l-22 -106h332zM446 745h-136l78 145h190z" />
    <glyph glyph-name="Ecircumflex" unicode="&#xca;" 
d="M508 0h-522l142 697h514l-35 -171h-324l-20 -96h302l-31 -156h-302l-22 -106h332zM350 745h-159l235 159l170 -159h-147l-40 50z" />
    <glyph glyph-name="Edieresis" unicode="&#xcb;" 
d="M499 733q-34 0 -55.5 19.5t-21.5 49.5q0 36 27 62.5t65 26.5q34 0 56 -20t22 -51q0 -34 -27.5 -60.5t-65.5 -26.5zM289 733q-34 0 -55.5 19.5t-21.5 49.5q0 36 27 62.5t65 26.5q34 0 56 -20t22 -51q0 -34 -27.5 -60.5t-65.5 -26.5zM508 0h-522l142 697h514l-35 -171h-324
l-20 -96h302l-31 -156h-302l-22 -106h332z" />
    <glyph glyph-name="Igrave" unicode="&#xcc;" horiz-adv-x="312" 
d="M328 745h-136l-74 145h190zM180 0h-190l142 697h190z" />
    <glyph glyph-name="Iacute" unicode="&#xcd;" horiz-adv-x="312" 
d="M180 0h-190l142 697h190zM282 745h-136l78 145h190z" />
    <glyph glyph-name="Icircumflex" unicode="&#xce;" horiz-adv-x="312" 
d="M180 0h-190l142 697h190zM194 745h-159l235 159l170 -159h-147l-40 50z" />
    <glyph glyph-name="Idieresis" unicode="&#xcf;" horiz-adv-x="312" 
d="M347 733q-34 0 -55.5 19.5t-21.5 49.5q0 36 27 62.5t65 26.5q34 0 56 -20t22 -51q0 -34 -27.5 -60.5t-65.5 -26.5zM137 733q-34 0 -55.5 19.5t-21.5 49.5q0 36 27 62.5t65 26.5q34 0 56 -20t22 -51q0 -34 -27.5 -60.5t-65.5 -26.5zM180 0h-190l142 697h190z" />
    <glyph glyph-name="Eth" unicode="&#xd0;" horiz-adv-x="744" 
d="M351 0h-352l53 261h-73l35 172h73l54 264h269q144 0 235 -88t91 -225q0 -150 -111 -267t-274 -117zM242 261l-18 -89h129q79 0 134 58t55 133q0 67 -43.5 110.5t-112.5 43.5h-92l-17 -84h132l-35 -172h-132z" />
    <glyph glyph-name="Ntilde" unicode="&#xd1;" horiz-adv-x="758" 
d="M168 0h-182l148 725l381 -396l75 368h182l-148 -725l-381 394zM324 748l-94 16q15 63 58.5 102t99.5 39q41 0 87 -25q47 -24 72 -24q37 0 59 49l95 -16q-17 -70 -59.5 -109t-102.5 -39q-41 0 -89 24q-46 25 -72 25q-38 0 -54 -42z" />
    <glyph glyph-name="Ograve" unicode="&#xd2;" horiz-adv-x="829" 
d="M22 311q0 102 55 193q55 92 153 147q98 56 213 56q157 0 260 -92q103 -91 103 -234q0 -156 -120 -276q-121 -119 -300 -119q-159 0 -262 91q-102 91 -102 234zM218 325q0 -76 49 -122q50 -47 129 -47q88 0 151 64q63 65 63 145q0 75 -50 123q-49 49 -128 49
q-86 0 -150 -64t-64 -148zM547 745h-135l-74 145h185z" />
    <glyph glyph-name="Oacute" unicode="&#xd3;" horiz-adv-x="829" 
d="M22 311q0 102 55 193q55 92 153 147q98 56 213 56q157 0 260 -92q103 -91 103 -234q0 -156 -120 -276q-121 -119 -300 -119q-159 0 -262 91q-102 91 -102 234zM218 325q0 -76 49 -122q50 -47 129 -47q88 0 151 64q63 65 63 145q0 75 -50 123q-49 49 -128 49
q-86 0 -150 -64t-64 -148zM542 745h-136l78 145h190z" />
    <glyph glyph-name="Ocircumflex" unicode="&#xd4;" horiz-adv-x="829" 
d="M22 311q0 102 55 193q55 92 153 147q98 56 213 56q157 0 260 -92q103 -91 103 -234q0 -156 -120 -276q-121 -119 -300 -119q-159 0 -262 91q-102 91 -102 234zM218 325q0 -76 49 -122q50 -47 129 -47q88 0 151 64q63 65 63 145q0 75 -50 123q-49 49 -128 49
q-86 0 -150 -64t-64 -148zM434 745h-159l235 159l170 -159h-147l-40 50z" />
    <glyph glyph-name="Otilde" unicode="&#xd5;" horiz-adv-x="829" 
d="M22 311q0 102 55 193q55 92 153 147q98 56 213 56q157 0 260 -92q103 -91 103 -234q0 -156 -120 -276q-121 -119 -300 -119q-159 0 -262 91q-102 91 -102 234zM218 325q0 -76 49 -122q50 -47 129 -47q88 0 151 64q63 65 63 145q0 75 -50 123q-49 49 -128 49
q-86 0 -150 -64t-64 -148zM351 748l-94 16q15 63 58.5 102t99.5 39q41 0 87 -25q46 -24 72 -24q37 0 59 49l95 -16q-17 -70 -59.5 -109t-102.5 -39q-41 0 -89 24q-46 25 -72 25q-37 0 -54 -42z" />
    <glyph glyph-name="Odieresis" unicode="&#xd6;" horiz-adv-x="829" 
d="M583 733q-34 0 -55.5 19.5t-21.5 49.5q0 36 27 62.5t65 26.5q34 0 56 -20t22 -51q0 -34 -27.5 -60.5t-65.5 -26.5zM373 733q-34 0 -55.5 19.5t-21.5 49.5q0 36 27 62.5t65 26.5q34 0 56 -20t22 -51q0 -34 -27.5 -60.5t-65.5 -26.5zM22 311q0 102 55 193q55 92 153 147
q98 56 213 56q157 0 260 -92q103 -91 103 -234q0 -156 -120 -276q-121 -119 -300 -119q-159 0 -262 91q-102 91 -102 234zM218 325q0 -76 49 -122q50 -47 129 -47q88 0 151 64q63 65 63 145q0 75 -50 123q-49 49 -128 49q-86 0 -150 -64t-64 -148z" />
    <glyph glyph-name="multiply" unicode="&#xd7;" horiz-adv-x="506" 
d="M234 219l-127 -106l-102 121l135 113l-90 115l124 98l91 -116l124 104l101 -121l-131 -110l87 -110l-124 -98z" />
    <glyph glyph-name="Oslash" unicode="&#xd8;" horiz-adv-x="827" 
d="M105 -66l-103 97l85 85q-65 83 -65 195q0 102 55 193q55 92 153 147q98 56 213 56q106 0 188 -43l91 91l102 -97l-83 -83q65 -85 65 -194q0 -156 -120 -276q-121 -119 -300 -119q-105 0 -189 42zM229 260l266 267q-30 10 -63 10q-86 0 -150 -64t-64 -148q0 -32 11 -65z
M598 431l-265 -266q29 -9 63 -9q88 0 151 64q63 65 63 145q0 36 -12 66z" />
    <glyph glyph-name="Ugrave" unicode="&#xd9;" horiz-adv-x="724" 
d="M30 258q0 39 11 94l70 345h190l-82 -400q-2 -16 -2 -30q0 -49 31 -77t87 -28q112 0 139 132l82 403h190l-83 -407q-31 -153 -113.5 -226.5t-231.5 -73.5q-74 0 -143 30q-64 25 -104 84.5t-41 153.5zM528 745h-135l-74 145h185z" />
    <glyph glyph-name="Uacute" unicode="&#xda;" horiz-adv-x="724" 
d="M30 258q0 39 11 94l70 345h190l-82 -400q-2 -16 -2 -30q0 -49 31 -77t87 -28q112 0 139 132l82 403h190l-83 -407q-31 -153 -113.5 -226.5t-231.5 -73.5q-74 0 -143 30q-64 25 -104 84.5t-41 153.5zM477 745h-136l78 145h190z" />
    <glyph glyph-name="Ucircumflex" unicode="&#xdb;" horiz-adv-x="724" 
d="M30 258q0 39 11 94l70 345h190l-82 -400q-2 -16 -2 -30q0 -49 31 -77t87 -28q112 0 139 132l82 403h190l-83 -407q-31 -153 -113.5 -226.5t-231.5 -73.5q-74 0 -143 30q-64 25 -104 84.5t-41 153.5zM390 745h-159l235 159l170 -159h-147l-40 50z" />
    <glyph glyph-name="Udieresis" unicode="&#xdc;" horiz-adv-x="724" 
d="M543 733q-34 0 -55.5 19.5t-21.5 49.5q0 36 27 62.5t65 26.5q34 0 56 -20t22 -51q0 -34 -27.5 -60.5t-65.5 -26.5zM333 733q-34 0 -55.5 19.5t-21.5 49.5q0 36 27 62.5t65 26.5q34 0 56 -20t22 -51q0 -34 -27.5 -60.5t-65.5 -26.5zM30 258q0 39 11 94l70 345h190
l-82 -400q-2 -16 -2 -30q0 -49 31 -77t87 -28q112 0 139 132l82 403h190l-83 -407q-31 -153 -113.5 -226.5t-231.5 -73.5q-74 0 -143 30q-64 25 -104 84.5t-41 153.5z" />
    <glyph glyph-name="Yacute" unicode="&#xdd;" horiz-adv-x="716" 
d="M381 0h-188l50 247l-171 450h199l96 -260l198 260h221l-358 -465zM490 745h-136l78 145h190z" />
    <glyph glyph-name="Thorn" unicode="&#xde;" horiz-adv-x="583" 
d="M176 0h-190l142 697h190l-23 -114h33q105 0 170 -61q67 -60 67 -153q0 -100 -80 -180q-79 -78 -197 -78h-89zM260 413l-27 -132h69q30 0 51.5 21.5t21.5 51.5q0 26 -17.5 42.5t-44.5 16.5h-53z" />
    <glyph glyph-name="germandbls" unicode="&#xdf;" 
d="M160 0h-185l105 516q20 99 82.5 147.5t150.5 48.5q90 0 147 -48t57 -123q0 -47 -35 -85q46 -27 72.5 -74.5t26.5 -106.5q0 -116 -80 -202q-79 -85 -215 -85q-63 0 -96 9l32 161q13 -4 62 -4t83 32q34 33 34 75q0 39 -28.5 64t-72.5 25q-8 0 -40 -5l23 112q62 8 62 52
q0 16 -11 26t-28 10q-15 0 -27.5 -12t-16.5 -32z" />
    <glyph glyph-name="agrave" unicode="&#xe0;" horiz-adv-x="639" 
d="M-2 222q0 118 88 203t199 85q57 0 98 -16t50 -43l11 53h181l-103 -504h-178l12 56q-42 -62 -138 -62q-88 0 -154 63t-66 165zM189 243q0 -38 26.5 -62.5t69.5 -24.5q49 0 81 31q33 31 33 73q0 38 -26.5 63t-69.5 25q-46 0 -81 -32q-33 -32 -33 -73zM459 552h-135l-74 145
h185z" />
    <glyph glyph-name="aacute" unicode="&#xe1;" horiz-adv-x="639" 
d="M-2 222q0 118 88 203t199 85q57 0 98 -16t50 -43l11 53h181l-103 -504h-178l12 56q-42 -62 -138 -62q-88 0 -154 63t-66 165zM189 243q0 -38 26.5 -62.5t69.5 -24.5q49 0 81 31q33 31 33 73q0 38 -26.5 63t-69.5 25q-46 0 -81 -32q-33 -32 -33 -73zM433 552h-136l78 145
h190z" />
    <glyph glyph-name="acircumflex" unicode="&#xe2;" horiz-adv-x="639" 
d="M-2 222q0 118 88 203t199 85q57 0 98 -16t50 -43l11 53h181l-103 -504h-178l12 56q-42 -62 -138 -62q-88 0 -154 63t-66 165zM189 243q0 -38 26.5 -62.5t69.5 -24.5q49 0 81 31q33 31 33 73q0 38 -26.5 63t-69.5 25q-46 0 -81 -32q-33 -32 -33 -73zM332 552h-159l235 159
l170 -159h-147l-40 50z" />
    <glyph glyph-name="atilde" unicode="&#xe3;" horiz-adv-x="639" 
d="M-2 222q0 118 88 203t199 85q57 0 98 -16t50 -43l11 53h181l-103 -504h-178l12 56q-42 -62 -138 -62q-88 0 -154 63t-66 165zM189 243q0 -38 26.5 -62.5t69.5 -24.5q49 0 81 31q33 31 33 73q0 38 -26.5 63t-69.5 25q-46 0 -81 -32q-33 -32 -33 -73zM239 557l-94 16
q15 63 58.5 102t99.5 39q41 0 87 -25q46 -24 72 -24q37 0 59 49l95 -16q-17 -70 -59.5 -109t-102.5 -39q-41 0 -89 24q-46 25 -72 25q-37 0 -54 -42z" />
    <glyph glyph-name="adieresis" unicode="&#xe4;" horiz-adv-x="639" 
d="M485 540q-34 0 -55.5 19.5t-21.5 49.5q0 36 27 62.5t65 26.5q34 0 56 -20t22 -51q0 -34 -27.5 -60.5t-65.5 -26.5zM275 540q-34 0 -55.5 19.5t-21.5 49.5q0 36 27 62.5t65 26.5q34 0 56 -20t22 -51q0 -34 -27.5 -60.5t-65.5 -26.5zM-2 222q0 118 88 203t199 85
q57 0 98 -16t50 -43l11 53h181l-103 -504h-178l12 56q-42 -62 -138 -62q-88 0 -154 63t-66 165zM189 243q0 -38 26.5 -62.5t69.5 -24.5q49 0 81 31q33 31 33 73q0 38 -26.5 63t-69.5 25q-46 0 -81 -32q-33 -32 -33 -73z" />
    <glyph glyph-name="aring" unicode="&#xe5;" horiz-adv-x="639" 
d="M-2 222q0 118 88 203t199 85q57 0 98 -16t50 -43l11 53h181l-103 -504h-178l12 56q-42 -62 -138 -62q-88 0 -154 63t-66 165zM189 243q0 -38 26.5 -62.5t69.5 -24.5q49 0 81 31q33 31 33 73q0 38 -26.5 63t-69.5 25q-46 0 -81 -32q-33 -32 -33 -73zM386 543
q-55 0 -89 30.5t-34 78.5q0 55 43 97q44 42 104 42q55 0 89.5 -31.5t34.5 -80.5q0 -53 -43 -95q-44 -41 -105 -41zM395 633q17 0 28 11t11 26q0 14 -9 22.5t-23 8.5q-16 0 -27.5 -11.5t-11.5 -26.5q0 -13 9 -21.5t23 -8.5z" />
    <glyph glyph-name="ae" unicode="&#xe6;" horiz-adv-x="861" 
d="M-20 130q0 86 67 131t206 58q78 8 88 12q13 6 13 20q0 12 -17 20t-44 8q-67 0 -138 -59l-92 96q90 104 237 104q113 0 158 -50q58 46 146 46q100 0 163 -65q64 -64 64 -164q0 -38 -14 -86h-318v-1q0 -26 25 -42t65 -16q63 0 103 40l85 -100q-89 -93 -222 -93
q-111 0 -168 68q-55 -69 -214 -69q-86 0 -139 40q-54 40 -54 102zM507 313h148v1q0 26 -17.5 43.5t-45.5 17.5q-30 0 -54 -17.5t-31 -44.5zM165 166q0 -29 56 -29q79 0 102 59l5 19l2 12q-9 -5 -21 -8q-9 -2 -37.5 -6t-37.5 -6q-69 -11 -69 -41z" />
    <glyph glyph-name="ccedilla" unicode="&#xe7;" horiz-adv-x="500" 
d="M40 -194l48 72q16 -16 44 -16q15 0 26 10t11 23q0 29 -46 29h-1l47 77q-79 23 -124.5 83t-45.5 141q0 117 92 206q94 89 221 89q113 0 174 -49l-33 -160q-53 39 -131 39q-56 0 -96 -33q-40 -31 -40 -75q0 -37 31 -60.5t80 -23.5q73 0 131 35l-33 -167q-52 -38 -134 -38
h-4l-22 -34q20 0 36 -19t16 -47q0 -50 -38.5 -83t-99.5 -33q-34 0 -65 9.5t-44 24.5z" />
    <glyph glyph-name="egrave" unicode="&#xe8;" horiz-adv-x="588" 
d="M-2 220q0 119 88 207q89 89 218 89q110 0 179 -63q70 -61 70 -159q0 -42 -17 -93h-358v-2q0 -25 30 -41t78 -16q94 0 172 33l-36 -154q-66 -32 -170 -32q-115 0 -185 64q-69 65 -69 167zM190 313h188v3q0 26 -22.5 42.5t-58.5 16.5q-38 0 -68 -17.5t-39 -44.5zM403 552
h-135l-74 145h185z" />
    <glyph glyph-name="eacute" unicode="&#xe9;" horiz-adv-x="588" 
d="M-2 220q0 119 88 207q89 89 218 89q110 0 179 -63q70 -61 70 -159q0 -42 -17 -93h-358v-2q0 -25 30 -41t78 -16q94 0 172 33l-36 -154q-66 -32 -170 -32q-115 0 -185 64q-69 65 -69 167zM190 313h188v3q0 26 -22.5 42.5t-58.5 16.5q-38 0 -68 -17.5t-39 -44.5zM383 552
h-136l78 145h190z" />
    <glyph glyph-name="ecircumflex" unicode="&#xea;" horiz-adv-x="588" 
d="M-2 220q0 119 88 207q89 89 218 89q110 0 179 -63q70 -61 70 -159q0 -42 -17 -93h-358v-2q0 -25 30 -41t78 -16q94 0 172 33l-36 -154q-66 -32 -170 -32q-115 0 -185 64q-69 65 -69 167zM190 313h188v3q0 26 -22.5 42.5t-58.5 16.5q-38 0 -68 -17.5t-39 -44.5zM280 552
h-159l235 159l170 -159h-147l-40 50z" />
    <glyph glyph-name="edieresis" unicode="&#xeb;" horiz-adv-x="588" 
d="M440 540q-34 0 -55.5 19.5t-21.5 49.5q0 36 27 62.5t65 26.5q34 0 56 -20t22 -51q0 -34 -27.5 -60.5t-65.5 -26.5zM230 540q-34 0 -55.5 19.5t-21.5 49.5q0 36 27 62.5t65 26.5q34 0 56 -20t22 -51q0 -34 -27.5 -60.5t-65.5 -26.5zM-2 220q0 119 88 207q89 89 218 89
q110 0 179 -63q70 -61 70 -159q0 -42 -17 -93h-358v-2q0 -25 30 -41t78 -16q94 0 172 33l-36 -154q-66 -32 -170 -32q-115 0 -185 64q-69 65 -69 167zM190 313h188v3q0 26 -22.5 42.5t-58.5 16.5q-38 0 -68 -17.5t-39 -44.5z" />
    <glyph glyph-name="igrave" unicode="&#xec;" horiz-adv-x="266" 
d="M161 0h-185l103 504h185zM260 552h-135l-74 145h185z" />
    <glyph glyph-name="iacute" unicode="&#xed;" horiz-adv-x="266" 
d="M226 552h-136l73 145h190zM161 0h-185l103 504h185z" />
    <glyph glyph-name="icircumflex" unicode="&#xee;" horiz-adv-x="343" 
d="M182 552h-159l217 159l152 -159h-147l-22 50zM193 0h-185l103 504h185z" />
    <glyph glyph-name="idieresis" unicode="&#xef;" horiz-adv-x="329" 
d="M305 546q-33 0 -54 18.5t-21 47.5q0 35 26 60.5t63 25.5q33 0 54 -19.5t21 -48.5q0 -33 -26.5 -58.5t-62.5 -25.5zM119 546q-33 0 -54 18.5t-21 47.5q0 35 26 60.5t63 25.5q33 0 54 -19.5t21 -48.5q0 -33 -26.5 -58.5t-62.5 -25.5zM186 0h-185l103 504h185z" />
    <glyph glyph-name="eth" unicode="&#xf0;" horiz-adv-x="547" 
d="M-6 199q0 96 74 170q76 74 179 74q67 0 113 -40l1 -1q-16 53 -53 93l-57 -52l-87 89l50 48q-45 28 -88 40l73 129q67 -19 133 -61l75 71l86 -91l-69 -65q94 -113 94 -272v-1q0 -134 -85 -237q-85 -102 -213 -102q-101 0 -163 58q-63 59 -63 150zM174 217q0 -27 19.5 -44
t50.5 -17q33 0 56 21.5t23 51.5q0 26 -19.5 43t-49.5 17q-33 0 -56.5 -22t-23.5 -50z" />
    <glyph glyph-name="ntilde" unicode="&#xf1;" horiz-adv-x="609" 
d="M160 0h-185l103 504h185l-13 -62q54 74 143 74q77 0 124 -44t47 -123q0 -22 -5 -50l-62 -299h-185l57 282q2 18 2 20q0 26 -17 41t-48 15q-35 0 -58.5 -22t-31.5 -59zM213 557l-94 16q15 63 58.5 102t99.5 39q41 0 87 -25q46 -24 72 -24q37 0 59 49l95 -16
q-17 -70 -59.5 -109t-102.5 -39q-41 0 -89 24q-46 25 -72 25q-37 0 -54 -42z" />
    <glyph glyph-name="ograve" unicode="&#xf2;" horiz-adv-x="620" 
d="M-1 227q0 115 93 204q94 88 224 88q118 0 191 -69q74 -68 74 -173q0 -115 -92 -204q-91 -88 -224 -88q-116 0 -192 68q-74 68 -74 174zM184 243q0 -39 27 -64t70 -25q47 0 81 32q34 31 34 74q0 39 -27 64.5t-70 25.5q-46 0 -81 -32q-34 -31 -34 -75zM423 552h-135
l-74 145h185z" />
    <glyph glyph-name="oacute" unicode="&#xf3;" horiz-adv-x="620" 
d="M-1 227q0 115 93 204q94 88 224 88q118 0 191 -69q74 -68 74 -173q0 -115 -92 -204q-91 -88 -224 -88q-116 0 -192 68q-74 68 -74 174zM184 243q0 -39 27 -64t70 -25q47 0 81 32q34 31 34 74q0 39 -27 64.5t-70 25.5q-46 0 -81 -32q-34 -31 -34 -75zM393 552h-136l78 145
h190z" />
    <glyph glyph-name="ocircumflex" unicode="&#xf4;" horiz-adv-x="620" 
d="M-1 227q0 115 93 204q94 88 224 88q118 0 191 -69q74 -68 74 -173q0 -115 -92 -204q-91 -88 -224 -88q-116 0 -192 68q-74 68 -74 174zM184 243q0 -39 27 -64t70 -25q47 0 81 32q34 31 34 74q0 39 -27 64.5t-70 25.5q-46 0 -81 -32q-34 -31 -34 -75zM288 552h-159
l235 159l170 -159h-147l-40 50z" />
    <glyph glyph-name="otilde" unicode="&#xf5;" horiz-adv-x="620" 
d="M-1 227q0 115 93 204q94 88 224 88q118 0 191 -69q74 -68 74 -173q0 -115 -92 -204q-91 -88 -224 -88q-116 0 -192 68q-74 68 -74 174zM184 243q0 -39 27 -64t70 -25q47 0 81 32q34 31 34 74q0 39 -27 64.5t-70 25.5q-46 0 -81 -32q-34 -31 -34 -75zM210 557l-94 16
q15 63 58.5 102t99.5 39q41 0 87 -25q47 -24 72 -24q37 0 59 49l95 -16q-17 -70 -59.5 -109t-102.5 -39q-41 0 -89 24q-46 25 -72 25q-38 0 -54 -42z" />
    <glyph glyph-name="odieresis" unicode="&#xf6;" horiz-adv-x="620" 
d="M448 540q-34 0 -55.5 19.5t-21.5 49.5q0 36 27 62.5t65 26.5q34 0 56 -20t22 -51q0 -34 -27.5 -60.5t-65.5 -26.5zM238 540q-34 0 -55.5 19.5t-21.5 49.5q0 36 27 62.5t65 26.5q34 0 56 -20t22 -51q0 -34 -27.5 -60.5t-65.5 -26.5zM-1 227q0 115 93 204q94 88 224 88
q118 0 191 -69q74 -68 74 -173q0 -115 -92 -204q-91 -88 -224 -88q-116 0 -192 68q-74 68 -74 174zM184 243q0 -39 27 -64t70 -25q47 0 81 32q34 31 34 74q0 39 -27 64.5t-70 25.5q-46 0 -81 -32q-34 -31 -34 -75z" />
    <glyph glyph-name="divide" unicode="&#xf7;" horiz-adv-x="590" 
d="M327 457q-39 0 -64 23.5t-25 60.5q0 44 31 75q31 33 76 33q40 0 65 -24t25 -62q0 -43 -31 -74q-32 -32 -77 -32zM244 49q-39 0 -64 23.5t-25 60.5q0 44 31 75q32 33 76 33q40 0 65 -24t25 -62q0 -43 -31 -74q-32 -32 -77 -32zM531 271h-504l32 156h504z" />
    <glyph glyph-name="oslash" unicode="&#xf8;" horiz-adv-x="620" 
d="M68 -60l-83 74l63 66q-49 62 -49 147q0 115 93 204q94 88 224 88q68 0 127 -27l62 65l83 -74l-57 -59q50 -62 50 -147q0 -115 -92 -204q-91 -88 -224 -88q-68 0 -129 26zM183 216l130 136q-3 1 -14 1q-49 0 -84 -33t-35 -77q0 -15 3 -27zM396 287l-131 -135q3 -1 16 -1
q49 0 84 33t35 76q0 12 -4 27z" />
    <glyph glyph-name="ugrave" unicode="&#xf9;" horiz-adv-x="602" 
d="M9 201q0 28 10 78l46 225h187l-54 -266q-2 -22 -2 -25q0 -24 18 -39.5t52 -15.5q68 0 83 73l57 273h186l-56 -277q-17 -87 -63 -142q-81 -97 -222 -97q-111 0 -177 60q-65 62 -65 153zM417 552h-135l-74 145h185z" />
    <glyph glyph-name="uacute" unicode="&#xfa;" horiz-adv-x="602" 
d="M9 201q0 28 10 78l46 225h187l-54 -266q-2 -22 -2 -25q0 -24 18 -39.5t52 -15.5q68 0 83 73l57 273h186l-56 -277q-17 -87 -63 -142q-81 -97 -222 -97q-111 0 -177 60q-65 62 -65 153zM383 552h-136l78 145h190z" />
    <glyph glyph-name="ucircumflex" unicode="&#xfb;" horiz-adv-x="602" 
d="M9 201q0 28 10 78l46 225h187l-54 -266q-2 -22 -2 -25q0 -24 18 -39.5t52 -15.5q68 0 83 73l57 273h186l-56 -277q-17 -87 -63 -142q-81 -97 -222 -97q-111 0 -177 60q-65 62 -65 153zM289 552h-159l235 159l170 -159h-147l-40 50z" />
    <glyph glyph-name="udieresis" unicode="&#xfc;" horiz-adv-x="602" 
d="M443 540q-34 0 -55.5 19.5t-21.5 49.5q0 36 27 62.5t65 26.5q34 0 56 -20t22 -51q0 -34 -27.5 -60.5t-65.5 -26.5zM233 540q-34 0 -55.5 19.5t-21.5 49.5q0 36 27 62.5t65 26.5q34 0 56 -20t22 -51q0 -34 -27.5 -60.5t-65.5 -26.5zM9 201q0 28 10 78l46 225h187l-54 -266
q-2 -22 -2 -25q0 -24 18 -39.5t52 -15.5q68 0 83 73l57 273h186l-56 -277q-17 -87 -63 -142q-81 -97 -222 -97q-111 0 -177 60q-65 62 -65 153z" />
    <glyph glyph-name="yacute" unicode="&#xfd;" horiz-adv-x="629" 
d="M19 -194l125 198l-111 500h181l59 -295l185 295h197l-440 -698h-196zM394 552h-136l78 145h190z" />
    <glyph glyph-name="thorn" unicode="&#xfe;" horiz-adv-x="639" 
d="M167 53l-50 -246h-181l181 890h181l-50 -246q41 59 134 59q89 0 153 -64q66 -63 66 -164q0 -118 -88 -203q-86 -85 -198 -85q-57 0 -98 16t-50 43zM201 244q0 -38 26.5 -63t69.5 -25q48 0 80 31q33 31 33 74q0 38 -26.5 62.5t-68.5 24.5q-47 0 -81 -32q-33 -32 -33 -72z
" />
    <glyph glyph-name="ydieresis" unicode="&#xff;" horiz-adv-x="629" 
d="M456 540q-34 0 -55.5 19.5t-21.5 49.5q0 36 27 62.5t65 26.5q34 0 56 -20t22 -51q0 -34 -27.5 -60.5t-65.5 -26.5zM246 540q-34 0 -55.5 19.5t-21.5 49.5q0 36 27 62.5t65 26.5q34 0 56 -20t22 -51q0 -34 -27.5 -60.5t-65.5 -26.5zM19 -194l125 198l-111 500h181l59 -295
l185 295h197l-440 -698h-196z" />
    <glyph glyph-name="Amacron" unicode="&#x100;" horiz-adv-x="770" 
d="M192 91l-64 -91h-200l537 744l235 -744h-184l-26 91h-298zM406 404l-116 -166h163zM625 750h-328l22 109h328z" />
    <glyph glyph-name="amacron" unicode="&#x101;" horiz-adv-x="639" 
d="M-2 222q0 118 88 203t199 85q57 0 98 -16t50 -43l11 53h181l-103 -504h-178l12 56q-42 -62 -138 -62q-88 0 -154 63t-66 165zM189 243q0 -38 26.5 -62.5t69.5 -24.5q49 0 81 31q33 31 33 73q0 38 -26.5 63t-69.5 25q-46 0 -81 -32q-33 -32 -33 -73zM551 557h-328l22 109
h328z" />
    <glyph glyph-name="Abreve" unicode="&#x102;" horiz-adv-x="770" 
d="M192 91l-64 -91h-200l537 744l235 -744h-184l-26 91h-298zM406 404l-116 -166h163zM475 745q-83 0 -129.5 41t-46.5 106h124q8 -35 57 -35q47 0 67 35h124q-19 -61 -70 -104q-50 -43 -126 -43z" />
    <glyph glyph-name="abreve" unicode="&#x103;" horiz-adv-x="639" 
d="M-2 222q0 118 88 203t199 85q57 0 98 -16t50 -43l11 53h181l-103 -504h-178l12 56q-42 -62 -138 -62q-88 0 -154 63t-66 165zM189 243q0 -38 26.5 -62.5t69.5 -24.5q49 0 81 31q33 31 33 73q0 38 -26.5 63t-69.5 25q-46 0 -81 -32q-33 -32 -33 -73zM396 552
q-83 0 -129.5 41t-46.5 106h124q8 -35 57 -35q47 0 67 35h124q-19 -61 -70 -104q-50 -43 -126 -43z" />
    <glyph glyph-name="Aogonek" unicode="&#x104;" horiz-adv-x="825" 
d="M192 91l-64 -91h-200l537 744l235 -744q-84 -46 -84 -87q0 -28 50 -28q19 0 54 7l-48 -113q-17 -7 -42 -7q-59 0 -96 30.5t-37 78.5q0 37 24.5 64.5t74.5 54.5h-80l-26 91h-298zM406 404l-116 -166h163z" />
    <glyph glyph-name="aogonek" unicode="&#x105;" horiz-adv-x="639" 
d="M-2 222q0 118 88 203t199 85q57 0 98 -16t50 -43l11 53h181l-103 -504q-84 -46 -84 -87q0 -28 50 -28q19 0 54 7l-48 -113q-17 -7 -42 -7q-59 0 -96 30.5t-37 78.5q0 37 24.5 64.5t74.5 54.5h-74l12 56q-42 -62 -138 -62q-88 0 -154 63t-66 165zM189 243
q0 -38 26.5 -62.5t69.5 -24.5q49 0 81 31q33 31 33 73q0 38 -26.5 63t-69.5 25q-46 0 -81 -32q-33 -32 -33 -73z" />
    <glyph glyph-name="Cacute" unicode="&#x106;" horiz-adv-x="674" 
d="M22 310q-3 100 54.5 193t157 149.5t210.5 54.5q152 0 238 -77l-37 -184q-82 91 -214 91q-88 0 -152 -64q-63 -63 -63 -147q0 -74 49 -120t127 -46q116 0 207 69l-38 -188q-69 -51 -185 -51q-156 0 -255 90t-99 230zM527 745h-136l78 145h190z" />
    <glyph glyph-name="cacute" unicode="&#x107;" horiz-adv-x="500" 
d="M-1 225q0 117 92 206q94 89 221 89q113 0 174 -49l-33 -160q-53 39 -131 39q-56 0 -96 -33q-40 -31 -40 -75q0 -37 31 -60.5t80 -23.5q73 0 131 35l-33 -167q-52 -38 -134 -38q-115 0 -189 66q-73 67 -73 171zM380 552h-136l78 145h190z" />
    <glyph glyph-name="Ccircumflex" unicode="&#x108;" horiz-adv-x="674" 
d="M22 310q-3 100 54.5 193t157 149.5t210.5 54.5q152 0 238 -77l-37 -184q-82 91 -214 91q-88 0 -152 -64q-63 -63 -63 -147q0 -74 49 -120t127 -46q116 0 207 69l-38 -188q-69 -51 -185 -51q-156 0 -255 90t-99 230zM427 745h-159l235 159l170 -159h-147l-40 50z" />
    <glyph glyph-name="ccircumflex" unicode="&#x109;" horiz-adv-x="500" 
d="M-1 225q0 117 92 206q94 89 221 89q113 0 174 -49l-33 -160q-53 39 -131 39q-56 0 -96 -33q-40 -31 -40 -75q0 -37 31 -60.5t80 -23.5q73 0 131 35l-33 -167q-52 -38 -134 -38q-115 0 -189 66q-73 67 -73 171zM286 552h-159l235 159l170 -159h-147l-40 50z" />
    <glyph glyph-name="Cdotaccent" unicode="&#x10a;" horiz-adv-x="674" 
d="M482 734q-34 0 -56 20t-22 50q0 36 27.5 63.5t66.5 27.5q34 0 56.5 -20.5t22.5 -51.5q0 -36 -28 -62.5t-67 -26.5zM22 310q-3 100 54.5 193t157 149.5t210.5 54.5q152 0 238 -77l-37 -184q-82 91 -214 91q-88 0 -152 -64q-63 -63 -63 -147q0 -74 49 -120t127 -46
q116 0 207 69l-38 -188q-69 -51 -185 -51q-156 0 -255 90t-99 230z" />
    <glyph glyph-name="cdotaccent" unicode="&#x10b;" horiz-adv-x="500" 
d="M349 541q-34 0 -56 20t-22 50q0 36 27.5 63.5t66.5 27.5q34 0 56.5 -20.5t22.5 -51.5q0 -36 -28 -62.5t-67 -26.5zM-1 225q0 117 92 206q94 89 221 89q113 0 174 -49l-33 -160q-53 39 -131 39q-56 0 -96 -33q-40 -31 -40 -75q0 -37 31 -60.5t80 -23.5q73 0 131 35
l-33 -167q-52 -38 -134 -38q-115 0 -189 66q-73 67 -73 171z" />
    <glyph glyph-name="Ccaron" unicode="&#x10c;" horiz-adv-x="674" 
d="M22 310q-3 100 54.5 193t157 149.5t210.5 54.5q152 0 238 -77l-37 -184q-82 91 -214 91q-88 0 -152 -64q-63 -63 -63 -147q0 -74 49 -120t127 -46q116 0 207 69l-38 -188q-69 -51 -185 -51q-156 0 -255 90t-99 230zM702 890l-235 -159l-170 159h147l40 -50l59 50h159z
" />
    <glyph glyph-name="ccaron" unicode="&#x10d;" horiz-adv-x="500" 
d="M-1 225q0 117 92 206q94 89 221 89q113 0 174 -49l-33 -160q-53 39 -131 39q-56 0 -96 -33q-40 -31 -40 -75q0 -37 31 -60.5t80 -23.5q73 0 131 35l-33 -167q-52 -38 -134 -38q-115 0 -189 66q-73 67 -73 171zM569 704l-235 -159l-170 159h147l40 -50l59 50h159z" />
    <glyph glyph-name="Dcaron" unicode="&#x10e;" horiz-adv-x="744" 
d="M338 0h-352l142 697h269q144 0 235 -88t91 -225q0 -150 -111 -267t-274 -117zM281 517l-70 -345h129q79 0 134 58t55 133q0 67 -43.5 110.5t-112.5 43.5h-92zM659 890l-235 -159l-170 159h147l40 -50l59 50h159z" />
    <glyph glyph-name="dcaron" unicode="&#x10f;" horiz-adv-x="840" 
d="M-2 222q0 118 88 203t199 85q57 0 98 -16t50 -43l50 246h181l-142 -697h-178l12 56q-42 -62 -138 -62q-88 0 -154 63t-66 165zM189 243q0 -38 26.5 -62.5t69.5 -24.5q49 0 81 31q33 31 33 73q0 38 -26.5 63t-69.5 25q-46 0 -81 -32q-33 -32 -33 -73zM786 552h-136l78 145
h190z" />
    <glyph glyph-name="Dcroat" unicode="&#x110;" horiz-adv-x="744" 
d="M351 0h-352l53 261h-73l35 172h73l54 264h269q144 0 235 -88t91 -225q0 -150 -111 -267t-274 -117zM242 261l-18 -89h129q79 0 134 58t55 133q0 67 -43.5 110.5t-112.5 43.5h-92l-17 -84h132l-35 -172h-132z" />
    <glyph glyph-name="dslash" unicode="&#x111;" horiz-adv-x="640" 
d="M-2 222q0 118 88 203t199 85q57 0 98 -16t50 -43l17 85h-113l23 112h113l10 49h181l-10 -49h43l-23 -112h-43l-109 -536h-178l12 56q-42 -62 -138 -62q-88 0 -154 63t-66 165zM189 243q0 -38 26.5 -62.5t69.5 -24.5q49 0 81 31q33 31 33 73q0 38 -26.5 63t-69.5 25
q-46 0 -81 -32q-33 -32 -33 -73z" />
    <glyph glyph-name="Emacron" unicode="&#x112;" 
d="M508 0h-522l142 697h514l-35 -171h-324l-20 -96h302l-31 -156h-302l-22 -106h332zM552 750h-328l22 109h328z" />
    <glyph glyph-name="emacron" unicode="&#x113;" horiz-adv-x="588" 
d="M-2 220q0 119 88 207q89 89 218 89q110 0 179 -63q70 -61 70 -159q0 -42 -17 -93h-358v-2q0 -25 30 -41t78 -16q94 0 172 33l-36 -154q-66 -32 -170 -32q-115 0 -185 64q-69 65 -69 167zM190 313h188v3q0 26 -22.5 42.5t-58.5 16.5q-38 0 -68 -17.5t-39 -44.5zM487 557
h-328l22 109h328z" />
    <glyph glyph-name="Ebreve" unicode="&#x114;" 
d="M508 0h-522l142 697h514l-35 -171h-324l-20 -96h302l-31 -156h-302l-22 -106h332zM404 745q-83 0 -129.5 41t-46.5 106h124q8 -35 57 -35q47 0 67 35h124q-19 -61 -70 -104q-50 -43 -126 -43z" />
    <glyph glyph-name="ebreve" unicode="&#x115;" horiz-adv-x="588" 
d="M-2 220q0 119 88 207q89 89 218 89q110 0 179 -63q70 -61 70 -159q0 -42 -17 -93h-358v-2q0 -25 30 -41t78 -16q94 0 172 33l-36 -154q-66 -32 -170 -32q-115 0 -185 64q-69 65 -69 167zM190 313h188v3q0 26 -22.5 42.5t-58.5 16.5q-38 0 -68 -17.5t-39 -44.5zM347 552
q-83 0 -129.5 41t-46.5 106h124q8 -35 57 -35q47 0 67 35h124q-19 -61 -70 -104q-50 -43 -126 -43z" />
    <glyph glyph-name="Edotaccent" unicode="&#x116;" 
d="M388 734q-34 0 -56 20t-22 50q0 36 27.5 63.5t66.5 27.5q34 0 56.5 -20.5t22.5 -51.5q0 -36 -28 -62.5t-67 -26.5zM508 0h-522l142 697h514l-35 -171h-324l-20 -96h302l-31 -156h-302l-22 -106h332z" />
    <glyph glyph-name="edotaccent" unicode="&#x117;" horiz-adv-x="588" 
d="M330 541q-34 0 -56 20t-22 50q0 36 27.5 63.5t66.5 27.5q34 0 56.5 -20.5t22.5 -51.5q0 -36 -28 -62.5t-67 -26.5zM-2 220q0 119 88 207q89 89 218 89q110 0 179 -63q70 -61 70 -159q0 -42 -17 -93h-358v-2q0 -25 30 -41t78 -16q94 0 172 33l-36 -154q-66 -32 -170 -32
q-115 0 -185 64q-69 65 -69 167zM190 313h188v3q0 26 -22.5 42.5t-58.5 16.5q-38 0 -68 -17.5t-39 -44.5z" />
    <glyph glyph-name="Eogonek" unicode="&#x118;" 
d="M404 0h-418l142 697h514l-35 -171h-324l-20 -96h302l-31 -156h-302l-22 -106h332l-34 -168q-84 -46 -84 -87q0 -28 50 -28q19 0 54 7l-48 -113q-17 -7 -42 -7q-59 0 -96 30.5t-37 78.5q0 37 24.5 64.5t74.5 54.5z" />
    <glyph glyph-name="eogonek" unicode="&#x119;" horiz-adv-x="588" 
d="M-2 220q0 119 88 207q89 89 218 89q110 0 179 -63q70 -61 70 -159q0 -42 -17 -93h-358v-2q0 -25 30 -41t78 -16q94 0 172 33l-36 -154q-16 -10 -59 -23q-89 -30 -89 -88q0 -28 50 -28q19 0 54 7l-48 -113q-17 -7 -42 -7q-59 0 -96 30.5t-37 78.5q0 42 34 73q33 30 69 38
h-6q-115 0 -185 64q-69 65 -69 167zM190 313h188v3q0 26 -22.5 42.5t-58.5 16.5q-38 0 -68 -17.5t-39 -44.5z" />
    <glyph glyph-name="Ecaron" unicode="&#x11a;" 
d="M508 0h-522l142 697h514l-35 -171h-324l-20 -96h302l-31 -156h-302l-22 -106h332zM630 890l-235 -159l-170 159h147l40 -50l59 50h159z" />
    <glyph glyph-name="ecaron" unicode="&#x11b;" horiz-adv-x="588" 
d="M-2 220q0 119 88 207q89 89 218 89q110 0 179 -63q70 -61 70 -159q0 -42 -17 -93h-358v-2q0 -25 30 -41t78 -16q94 0 172 33l-36 -154q-66 -32 -170 -32q-115 0 -185 64q-69 65 -69 167zM190 313h188v3q0 26 -22.5 42.5t-58.5 16.5q-38 0 -68 -17.5t-39 -44.5zM557 704
l-235 -159l-170 159h147l40 -50l59 50h159z" />
    <glyph glyph-name="Gcircumflex" unicode="&#x11c;" horiz-adv-x="754" 
d="M22 310q-3 100 54.5 193t157 149.5t210.5 54.5q152 0 238 -77l-37 -184q-39 42 -97.5 66.5t-119.5 24.5q-87 0 -150 -64q-62 -64 -62 -147q0 -74 49 -120t127 -46q74 0 133 44l13 63h-180l32 158h344l-65 -322q-124 -113 -293 -113q-156 0 -255 90t-99 230zM414 745h-159
l235 159l170 -159h-147l-40 50z" />
    <glyph glyph-name="gcircumflex" unicode="&#x11d;" horiz-adv-x="635" 
d="M-31 -157l31 156q33 -30 89 -50t110 -20q78 1 113 31.5t42 65.5l6 26q-38 -54 -141 -54q-90 0 -155 61q-66 61 -66 163q0 118 88 203t199 85q57 0 98 -16t50 -43l11 53h181l-94 -458q-15 -73 -48 -130q-23 -41 -54 -68q-33 -30 -87.5 -49t-119.5 -19q-165 0 -253 63z
M185 243q0 -38 27.5 -62.5t70.5 -24.5q50 0 82 31q34 31 34 73q0 38 -27.5 63t-70.5 25q-47 0 -82 -32q-34 -31 -34 -73zM325 552h-159l235 159l170 -159h-147l-40 50z" />
    <glyph glyph-name="Gbreve" unicode="&#x11e;" horiz-adv-x="754" 
d="M22 310q-3 100 54.5 193t157 149.5t210.5 54.5q152 0 238 -77l-37 -184q-39 42 -97.5 66.5t-119.5 24.5q-87 0 -150 -64q-62 -64 -62 -147q0 -74 49 -120t127 -46q74 0 133 44l13 63h-180l32 158h344l-65 -322q-124 -113 -293 -113q-156 0 -255 90t-99 230zM489 745
q-83 0 -129.5 41t-46.5 106h124q8 -35 57 -35q47 0 67 35h124q-19 -61 -70 -104q-50 -43 -126 -43z" />
    <glyph glyph-name="gbreve" unicode="&#x11f;" horiz-adv-x="635" 
d="M-31 -157l31 156q33 -30 89 -50t110 -20q78 1 113 31.5t42 65.5l6 26q-38 -54 -141 -54q-90 0 -155 61q-66 61 -66 163q0 118 88 203t199 85q57 0 98 -16t50 -43l11 53h181l-94 -458q-15 -73 -48 -130q-23 -41 -54 -68q-33 -30 -87.5 -49t-119.5 -19q-165 0 -253 63z
M185 243q0 -38 27.5 -62.5t70.5 -24.5q50 0 82 31q34 31 34 73q0 38 -27.5 63t-70.5 25q-47 0 -82 -32q-34 -31 -34 -73zM386 552q-83 0 -129.5 41t-46.5 106h124q8 -35 57 -35q47 0 67 35h124q-19 -61 -70 -104q-50 -43 -126 -43z" />
    <glyph glyph-name="Gdotaccent" unicode="&#x120;" horiz-adv-x="754" 
d="M477 734q-34 0 -56 20t-22 50q0 36 27.5 63.5t66.5 27.5q34 0 56.5 -20.5t22.5 -51.5q0 -36 -28 -62.5t-67 -26.5zM22 310q-3 100 54.5 193t157 149.5t210.5 54.5q152 0 238 -77l-37 -184q-39 42 -97.5 66.5t-119.5 24.5q-87 0 -150 -64q-62 -64 -62 -147q0 -74 49 -120
t127 -46q74 0 133 44l13 63h-180l32 158h344l-65 -322q-124 -113 -293 -113q-156 0 -255 90t-99 230z" />
    <glyph glyph-name="gdotaccent" unicode="&#x121;" horiz-adv-x="635" 
d="M371 541q-34 0 -56 20t-22 50q0 36 27.5 63.5t66.5 27.5q34 0 56.5 -20.5t22.5 -51.5q0 -36 -28 -62.5t-67 -26.5zM-31 -157l31 156q33 -30 89 -50t110 -20q78 1 113 31.5t42 65.5l6 26q-38 -54 -141 -54q-90 0 -155 61q-66 61 -66 163q0 118 88 203t199 85q57 0 98 -16
t50 -43l11 53h181l-94 -458q-15 -73 -48 -130q-23 -41 -54 -68q-33 -30 -87.5 -49t-119.5 -19q-165 0 -253 63zM185 243q0 -38 27.5 -62.5t70.5 -24.5q50 0 82 31q34 31 34 73q0 38 -27.5 63t-70.5 25q-47 0 -82 -32q-34 -31 -34 -73z" />
    <glyph glyph-name="Gcommaaccent" unicode="&#x122;" horiz-adv-x="754" 
d="M22 310q-3 100 54.5 193t157 149.5t210.5 54.5q152 0 238 -77l-37 -184q-39 42 -97.5 66.5t-119.5 24.5q-87 0 -150 -64q-62 -64 -62 -147q0 -74 49 -120t127 -46q74 0 133 44l13 63h-180l32 158h344l-65 -322q-124 -113 -293 -113q-156 0 -255 90t-99 230zM307 -193
h-136l78 145h190z" />
    <glyph glyph-name="gcommaaccent" unicode="&#x123;" horiz-adv-x="635" 
d="M-31 -157l31 156q33 -30 89 -50t110 -20q78 1 113 31.5t42 65.5l6 26q-38 -54 -141 -54q-90 0 -155 61q-66 61 -66 163q0 118 88 203t199 85q57 0 98 -16t50 -43l11 53h181l-94 -458q-15 -73 -48 -130q-23 -41 -54 -68q-33 -30 -87.5 -49t-119.5 -19q-165 0 -253 63z
M185 243q0 -38 27.5 -62.5t70.5 -24.5q50 0 82 31q34 31 34 73q0 38 -27.5 63t-70.5 25q-47 0 -82 -32q-34 -31 -34 -73zM425 552h-136l78 145h190z" />
    <glyph glyph-name="Hcircumflex" unicode="&#x124;" horiz-adv-x="756" 
d="M176 0h-190l142 697h190l-49 -242h262l49 242h190l-142 -697h-190l57 281h-262zM412 745h-159l235 159l170 -159h-147l-40 50z" />
    <glyph glyph-name="hcircumflex" unicode="&#x125;" horiz-adv-x="597" 
d="M160 0h-185l142 697h185l-52 -255q53 74 138 74q78 0 121.5 -44.5t43.5 -122.5q0 -22 -5 -50l-62 -299h-185l57 282q2 18 2 20q0 26 -15.5 41t-43.5 15q-33 0 -55 -21t-30 -60zM167 745h-159l235 159l170 -159h-147l-40 50z" />
    <glyph glyph-name="Hbar" unicode="&#x126;" horiz-adv-x="766" 
d="M181 0h-190l101 499h-44l28 141h45l12 57h190l-12 -57h262l12 57h190l-12 -57h45l-28 -141h-46l-101 -499h-190l57 281h-262zM283 499l-9 -44h262l9 44h-262z" />
    <glyph glyph-name="hbar" unicode="&#x127;" horiz-adv-x="606" 
d="M169 0h-185l109 534h-49l23 114h49l10 49h185l-10 -49h94l-23 -114h-94l-19 -92q53 74 138 74q78 0 121.5 -44.5t43.5 -122.5q0 -22 -5 -50l-62 -299h-185l57 282q2 18 2 20q0 26 -15.5 41t-43.5 15q-33 0 -55 -21t-30 -60z" />
    <glyph glyph-name="Itilde" unicode="&#x128;" horiz-adv-x="312" 
d="M111 748l-94 16q15 63 58.5 102t99.5 39q41 0 87 -25q46 -24 72 -24q37 0 59 49l95 -16q-17 -70 -59.5 -109t-102.5 -39q-41 0 -89 24q-46 25 -72 25q-37 0 -54 -42zM180 0h-190l142 697h190z" />
    <glyph glyph-name="itilde" unicode="&#x129;" horiz-adv-x="349" 
d="M112 557l-94 16q14 63 54.5 102t93.5 39q31 0 69 -23q37 -22 58 -22q29 0 49 45l95 -16q-16 -70 -55.5 -109t-96.5 -39q-34 0 -71 22q-38 23 -58 23q-30 0 -44 -38zM196 0h-185l103 504h185z" />
    <glyph glyph-name="Imacron" unicode="&#x12a;" horiz-adv-x="312" 
d="M180 0h-190l142 697h190zM400 750h-328l22 109h328z" />
    <glyph glyph-name="imacron" unicode="&#x12b;" horiz-adv-x="299" 
d="M330 557h-286l22 109h286zM171 0h-185l103 504h185z" />
    <glyph glyph-name="Ibreve" unicode="&#x12c;" horiz-adv-x="312" 
d="M180 0h-190l142 697h190zM256 745q-83 0 -129.5 41t-46.5 106h124q8 -35 57 -35q47 0 67 35h124q-19 -61 -70 -104q-50 -43 -126 -43z" />
    <glyph glyph-name="ibreve" unicode="&#x12d;" horiz-adv-x="319" 
d="M210 552q-79 0 -122.5 41t-43.5 106h124q5 -35 47 -35q40 0 57 35h124q-19 -61 -67 -104q-47 -43 -119 -43zM181 0h-185l103 504h185z" />
    <glyph glyph-name="Iogonek" unicode="&#x12e;" horiz-adv-x="312" 
d="M76 0h-86l142 697h190l-142 -697q-84 -46 -84 -87q0 -28 50 -28q19 0 54 7l-48 -113q-17 -7 -42 -7q-59 0 -96 30.5t-37 78.5q0 37 24.5 64.5t74.5 54.5z" />
    <glyph glyph-name="iogonek" unicode="&#x12f;" horiz-adv-x="277" 
d="M263 504l-103 -504q-84 -46 -84 -87q0 -28 50 -28q19 0 54 7l-48 -113q-17 -7 -42 -7q-59 0 -96 30.5t-37 78.5q0 37 24.5 64.5t74.5 54.5h-81l103 504h185zM186 527q-42 0 -68.5 25.5t-26.5 65.5q0 44 33 77q33 34 80 34q42 0 68.5 -26t26.5 -66q0 -43 -33 -77
q-33 -33 -80 -33z" />
    <glyph glyph-name="Idot" unicode="&#x130;" horiz-adv-x="312" 
d="M242 734q-34 0 -56 20t-22 50q0 36 27.5 63.5t66.5 27.5q34 0 56.5 -20.5t22.5 -51.5q0 -36 -28 -62.5t-67 -26.5zM180 0h-190l142 697h190z" />
    <glyph glyph-name="dotlessi" unicode="&#x131;" horiz-adv-x="277" 
d="M160 0h-185l103 504h185z" />
    <glyph glyph-name="IJ" unicode="&#x132;" horiz-adv-x="562" 
d="M1 19l32 161q57 -20 149 -20q50 0 73 18.5t33 64.5l93 454h190l-91 -449q-28 -135 -95 -196.5t-196 -61.5q-113 0 -188 29zM230 212h-190l99 485h190z" />
    <glyph glyph-name="ij" unicode="&#x133;" horiz-adv-x="496" 
d="M415 533q-40 0 -65 24t-25 62q0 43 31 74q32 32 77 32q40 0 65 -25t25 -63q0 -41 -32 -73q-31 -31 -76 -31zM181 533q-40 0 -65 24t-25 62q0 43 31 74q32 32 77 32q40 0 65 -25t25 -63q0 -41 -32 -73q-31 -31 -76 -31zM-22 7l29 146q53 -11 121 -11q64 0 90.5 17t36.5 66
l57 279h174l-66 -325q-19 -93 -80 -140q-26 -20 -61 -32q-56 -19 -131 -19q-114 0 -170 19zM188 191h-174l64 313h174z" />
    <glyph glyph-name="Jcircumflex" unicode="&#x134;" horiz-adv-x="391" 
d="M-66 5l35 167q25 -12 71 -12q42 0 64.5 20t31.5 63l93 454h190l-91 -449q-28 -135 -92.5 -196.5t-188.5 -61.5q-72 0 -113 15zM280 745h-159l235 159l170 -159h-147l-40 50z" />
    <glyph glyph-name="jcircumflex" unicode="&#x135;" horiz-adv-x="303" 
d="M175 552h-159l222 159l157 -159h-147l-27 50zM4 -3l104 507h185l-109 -534q-39 -191 -212 -191q-60 0 -97 5l32 158q30 -2 34 -2q29 0 43 13t20 44z" />
    <glyph glyph-name="Kcommaaccent" unicode="&#x136;" horiz-adv-x="699" 
d="M176 0h-190l142 697h190l-59 -287l271 287h237l-333 -349l202 -348h-212l-184 316zM135 -193l78 145h190l-132 -145h-136z" />
    <glyph glyph-name="kcommaaccent" unicode="&#x137;" horiz-adv-x="563" 
d="M160 0h-185l142 697h185l-79 -386l159 193h208l-209 -247l116 -257h-201l-91 219zM55 -193l78 145h190l-132 -145h-136z" />
    <glyph glyph-name="Lacute" unicode="&#x139;" horiz-adv-x="532" 
d="M441 0h-455l142 697h190l-107 -525h265zM278 745h-136l78 145h190z" />
    <glyph glyph-name="lacute" unicode="&#x13a;" horiz-adv-x="277" 
d="M160 0h-185l142 697h185zM261 722h-136l78 145h190z" />
    <glyph glyph-name="Lcommaaccent" unicode="&#x13b;" horiz-adv-x="532" 
d="M441 0h-455l142 697h190l-107 -525h265zM44 -193l78 145h190l-132 -145h-136z" />
    <glyph glyph-name="lcommaaccent" unicode="&#x13c;" horiz-adv-x="277" 
d="M160 0h-185l142 697h185zM-113 -193l78 145h190l-132 -145h-136z" />
    <glyph glyph-name="Lcaron" unicode="&#x13d;" horiz-adv-x="532" 
d="M441 0h-455l142 697h190l-107 -525h265zM463 552h-136l78 145h190z" />
    <glyph glyph-name="lcaron" unicode="&#x13e;" horiz-adv-x="483" 
d="M160 0h-185l142 697h185zM426 552h-136l78 145h190z" />
    <glyph glyph-name="Ldot" unicode="&#x13f;" horiz-adv-x="532" 
d="M441 0h-455l142 697h190l-107 -525h265zM403 339q-34 0 -56 20t-22 50q0 36 27.5 63.5t66.5 27.5q34 0 56.5 -20.5t22.5 -51.5q0 -36 -28 -62.5t-67 -26.5z" />
    <glyph glyph-name="ldot" unicode="&#x140;" horiz-adv-x="454" 
d="M160 0h-185l142 697h185zM336 280q-34 0 -56 20t-22 50q0 36 27.5 63.5t66.5 27.5q34 0 56.5 -20.5t22.5 -51.5q0 -36 -28 -62.5t-67 -26.5z" />
    <glyph glyph-name="Lslash" unicode="&#x141;" horiz-adv-x="555" 
d="M464 0h-455l43 214l-68 -28l35 174l69 29l63 308h190l-48 -233l146 63l-35 -174l-146 -61l-24 -120h265z" />
    <glyph glyph-name="lslash" unicode="&#x142;" horiz-adv-x="340" 
d="M181 0h-184l47 230l-77 -36l38 176l74 35l60 292h184l-42 -206l98 46l-40 -177l-94 -44z" />
    <glyph glyph-name="Nacute" unicode="&#x143;" horiz-adv-x="758" 
d="M168 0h-182l148 725l381 -396l75 368h182l-148 -725l-381 394zM486 745h-136l78 145h190z" />
    <glyph glyph-name="nacute" unicode="&#x144;" horiz-adv-x="609" 
d="M160 0h-185l103 504h185l-13 -62q54 74 143 74q77 0 124 -44t47 -123q0 -22 -5 -50l-62 -299h-185l57 282q2 18 2 20q0 26 -17 41t-48 15q-35 0 -58.5 -22t-31.5 -59zM379 552h-136l78 145h190z" />
    <glyph glyph-name="Ncommaaccent" unicode="&#x145;" horiz-adv-x="758" 
d="M168 0h-182l148 725l381 -396l75 368h182l-148 -725l-381 394zM311 -193h-136l78 145h190z" />
    <glyph glyph-name="ncommaaccent" unicode="&#x146;" horiz-adv-x="609" 
d="M160 0h-185l103 504h185l-13 -62q54 74 143 74q77 0 124 -44t47 -123q0 -22 -5 -50l-62 -299h-185l57 282q2 18 2 20q0 26 -17 41t-48 15q-35 0 -58.5 -22t-31.5 -59zM75 -193l78 145h190l-132 -145h-136z" />
    <glyph glyph-name="Ncaron" unicode="&#x147;" horiz-adv-x="758" 
d="M168 0h-182l148 725l381 -396l75 368h182l-148 -725l-381 394zM673 890l-235 -159l-170 159h147l40 -50l59 50h159z" />
    <glyph glyph-name="ncaron" unicode="&#x148;" horiz-adv-x="609" 
d="M160 0h-185l103 504h185l-13 -62q54 74 143 74q77 0 124 -44t47 -123q0 -22 -5 -50l-62 -299h-185l57 282q2 18 2 20q0 26 -17 41t-48 15q-35 0 -58.5 -22t-31.5 -59zM557 704l-235 -159l-170 159h147l40 -50l59 50h159z" />
    <glyph glyph-name="Eng" unicode="&#x14a;" horiz-adv-x="744" 
d="M168 0h-182l148 725l370 -450l86 422h182l-132 -647q-28 -135 -92.5 -196.5t-188.5 -61.5q-73 0 -113 15l35 167q29 -12 76 -12q84 0 101 83l1 6l-225 271z" />
    <glyph glyph-name="eng" unicode="&#x14b;" horiz-adv-x="610" 
d="M160 0h-185l103 504h185l-13 -62q54 74 143 74q81 0 126 -44.5t45 -122.5q0 -22 -5 -50l-68 -329q-39 -191 -212 -191q-81 0 -117 11l32 156q20 -6 54 -6q29 0 43 13t20 44l58 285q2 18 2 20q0 26 -17 41t-48 15q-35 0 -58.5 -22t-31.5 -59z" />
    <glyph glyph-name="Omacron" unicode="&#x14c;" horiz-adv-x="829" 
d="M22 311q0 102 55 193q55 92 153 147q98 56 213 56q157 0 260 -92q103 -91 103 -234q0 -156 -120 -276q-121 -119 -300 -119q-159 0 -262 91q-102 91 -102 234zM218 325q0 -76 49 -122q50 -47 129 -47q88 0 151 64q63 65 63 145q0 75 -50 123q-49 49 -128 49
q-86 0 -150 -64t-64 -148zM641 750h-328l22 109h328z" />
    <glyph glyph-name="omacron" unicode="&#x14d;" horiz-adv-x="620" 
d="M-1 227q0 115 93 204q94 88 224 88q118 0 191 -69q74 -68 74 -173q0 -115 -92 -204q-91 -88 -224 -88q-116 0 -192 68q-74 68 -74 174zM184 243q0 -39 27 -64t70 -25q47 0 81 32q34 31 34 74q0 39 -27 64.5t-70 25.5q-46 0 -81 -32q-34 -31 -34 -75zM502 557h-328l22 109
h328z" />
    <glyph glyph-name="Obreve" unicode="&#x14e;" horiz-adv-x="829" 
d="M22 311q0 102 55 193q55 92 153 147q98 56 213 56q157 0 260 -92q103 -91 103 -234q0 -156 -120 -276q-121 -119 -300 -119q-159 0 -262 91q-102 91 -102 234zM218 325q0 -76 49 -122q50 -47 129 -47q88 0 151 64q63 65 63 145q0 75 -50 123q-49 49 -128 49
q-86 0 -150 -64t-64 -148zM493 745q-83 0 -129.5 41t-46.5 106h124q8 -35 57 -35q47 0 67 35h124q-19 -61 -70 -104q-50 -43 -126 -43z" />
    <glyph glyph-name="obreve" unicode="&#x14f;" horiz-adv-x="620" 
d="M-1 227q0 115 93 204q94 88 224 88q118 0 191 -69q74 -68 74 -173q0 -115 -92 -204q-91 -88 -224 -88q-116 0 -192 68q-74 68 -74 174zM184 243q0 -39 27 -64t70 -25q47 0 81 32q34 31 34 74q0 39 -27 64.5t-70 25.5q-46 0 -81 -32q-34 -31 -34 -75zM352 552
q-83 0 -129.5 41t-46.5 106h124q8 -35 57 -35q47 0 67 35h124q-19 -61 -70 -104q-50 -43 -126 -43z" />
    <glyph glyph-name="Ohungarumlaut" unicode="&#x150;" horiz-adv-x="829" 
d="M620 745h-127l103 145h179zM425 745h-127l103 145h179zM22 311q0 102 55 193q55 92 153 147q98 56 213 56q157 0 260 -92q103 -91 103 -234q0 -156 -120 -276q-121 -119 -300 -119q-159 0 -262 91q-102 91 -102 234zM218 325q0 -76 49 -122q50 -47 129 -47q88 0 151 64
q63 65 63 145q0 75 -50 123q-49 49 -128 49q-86 0 -150 -64t-64 -148z" />
    <glyph glyph-name="ohungarumlaut" unicode="&#x151;" horiz-adv-x="620" 
d="M479 552h-127l104 145h179zM284 552h-127l104 145h179zM-1 227q0 115 93 204q94 88 224 88q118 0 191 -69q74 -68 74 -173q0 -115 -92 -204q-91 -88 -224 -88q-116 0 -192 68q-74 68 -74 174zM184 243q0 -39 27 -64t70 -25q47 0 81 32q34 31 34 74q0 39 -27 64.5
t-70 25.5q-46 0 -81 -32q-34 -31 -34 -75z" />
    <glyph glyph-name="OE" unicode="&#x152;" horiz-adv-x="1061" 
d="M22 311q0 157 117 276q118 120 284 120q153 0 218 -71l12 61h431l-35 -171h-244l-20 -96h222l-31 -156h-222l-22 -106h252l-34 -168h-426l10 49q-64 -58 -184 -58q-140 0 -235 90q-93 91 -93 230zM218 325q0 -76 49 -122q50 -47 129 -47q88 0 151 64q63 65 63 145
q0 75 -50 123q-49 49 -128 49q-86 0 -150 -64t-64 -148z" />
    <glyph glyph-name="oe" unicode="&#x153;" horiz-adv-x="964" 
d="M-1 227q0 115 93 204q94 88 224 88q120 0 183 -72q73 69 186 69q107 0 177 -65q70 -64 70 -164q0 -38 -14 -86h-358v-1q0 -26 30.5 -42t79.5 -16q74 0 123 40l85 -100q-98 -93 -242 -93q-113 0 -177 67q-74 -71 -194 -71q-116 0 -192 68q-74 68 -74 174zM184 243
q0 -39 27 -64t70 -25q47 0 81 32q34 31 34 74q0 39 -27 64.5t-70 25.5q-46 0 -81 -32q-34 -31 -34 -75zM568 313h188v1q0 26 -23 43.5t-60 17.5q-38 0 -67 -17.5t-38 -44.5z" />
    <glyph glyph-name="Racute" unicode="&#x154;" horiz-adv-x="680" 
d="M176 0h-190l142 697h296q101 0 163 -61q64 -60 64 -154q0 -75 -43 -142q-44 -66 -114 -99l114 -241h-207l-98 217h-83zM283 525l-32 -156h121q35 0 60.5 27t25.5 61q0 30 -19.5 49t-51.5 19h-104zM439 745h-136l78 145h190z" />
    <glyph glyph-name="racute" unicode="&#x155;" horiz-adv-x="431" 
d="M160 0h-185l103 504h185l-13 -62q53 74 138 74q34 0 61 -6l-33 -165q-38 5 -66 5q-118 0 -149 -153zM300 552h-136l78 145h190z" />
    <glyph glyph-name="Rcommaaccent" unicode="&#x156;" horiz-adv-x="680" 
d="M176 0h-190l142 697h296q101 0 163 -61q64 -60 64 -154q0 -75 -43 -142q-44 -66 -114 -99l114 -241h-207l-98 217h-83zM283 525l-32 -156h121q35 0 60.5 27t25.5 61q0 30 -19.5 49t-51.5 19h-104zM129 -193l78 145h190l-132 -145h-136z" />
    <glyph glyph-name="rcommaaccent" unicode="&#x157;" horiz-adv-x="431" 
d="M160 0h-185l103 504h185l-13 -62q53 74 138 74q34 0 61 -6l-33 -165q-38 5 -66 5q-118 0 -149 -153zM-113 -193l78 145h190l-132 -145h-136z" />
    <glyph glyph-name="Rcaron" unicode="&#x158;" horiz-adv-x="680" 
d="M176 0h-190l142 697h296q101 0 163 -61q64 -60 64 -154q0 -75 -43 -142q-44 -66 -114 -99l114 -241h-207l-98 217h-83zM283 525l-32 -156h121q35 0 60.5 27t25.5 61q0 30 -19.5 49t-51.5 19h-104zM614 890l-235 -159l-170 159h147l40 -50l59 50h159z" />
    <glyph glyph-name="rcaron" unicode="&#x159;" horiz-adv-x="431" 
d="M160 0h-185l103 504h185l-13 -62q53 74 138 74q34 0 61 -6l-33 -165q-38 5 -66 5q-118 0 -149 -153zM494 704l-235 -159l-170 159h147l40 -50l59 50h159z" />
    <glyph glyph-name="Sacute" unicode="&#x15a;" horiz-adv-x="594" 
d="M-29 77l38 179q99 -96 248 -96q54 0 81.5 14t27.5 36q0 18 -30 34t-116 48q-155 59 -155 195q0 92 76 156t195 64q157 0 243 -77l-37 -177q-39 42 -94.5 63.5t-107.5 21.5q-44 0 -67 -11t-23 -29q0 -24 39 -44l37 -16q5 -2 11.5 -4.5t16 -6t16.5 -6.5l41 -15
q145 -58 145 -186q0 -99 -78 -165q-79 -65 -217 -65q-193 0 -290 87zM428 745h-136l78 145h190z" />
    <glyph glyph-name="sacute" unicode="&#x15b;" horiz-adv-x="498" 
d="M-24 43l31 151q95 -59 196 -59q67 0 67 23q0 6 -11 11q-5 2 -44 11q-46 10 -58 14q-64 18 -92 49.5t-28 89.5q0 77 69 131q68 55 169 55q113 0 175 -42l-30 -150q-59 40 -158 40q-57 0 -57 -22q0 -10 15 -16q26 -8 52 -13q41 -8 55 -12q63 -18 91 -49t28 -92
q0 -79 -67 -128q-67 -48 -183 -48q-126 0 -220 56zM333 552h-136l78 145h190z" />
    <glyph glyph-name="Scircumflex" unicode="&#x15c;" horiz-adv-x="594" 
d="M-29 77l38 179q99 -96 248 -96q54 0 81.5 14t27.5 36q0 18 -30 34t-116 48q-155 59 -155 195q0 92 76 156t195 64q157 0 243 -77l-37 -177q-39 42 -94.5 63.5t-107.5 21.5q-44 0 -67 -11t-23 -29q0 -24 39 -44l37 -16q5 -2 11.5 -4.5t16 -6t16.5 -6.5l41 -15
q145 -58 145 -186q0 -99 -78 -165q-79 -65 -217 -65q-193 0 -290 87zM325 745h-159l235 159l170 -159h-147l-40 50z" />
    <glyph glyph-name="scircumflex" unicode="&#x15d;" horiz-adv-x="498" 
d="M-24 43l31 151q95 -59 196 -59q67 0 67 23q0 6 -11 11q-5 2 -44 11q-46 10 -58 14q-64 18 -92 49.5t-28 89.5q0 77 69 131q68 55 169 55q113 0 175 -42l-30 -150q-59 40 -158 40q-57 0 -57 -22q0 -10 15 -16q26 -8 52 -13q41 -8 55 -12q63 -18 91 -49t28 -92
q0 -79 -67 -128q-67 -48 -183 -48q-126 0 -220 56zM241 552h-159l235 159l170 -159h-147l-40 50z" />
    <glyph glyph-name="Scedilla" unicode="&#x15e;" horiz-adv-x="594" 
d="M76 -194l48 72q16 -16 44 -16q15 0 26 10t11 23q0 29 -46 29h-1l42 69q-148 12 -229 84l38 179q99 -96 248 -96q54 0 81.5 14t27.5 36q0 18 -30 34t-116 48q-155 59 -155 195q0 92 76 156t195 64q157 0 243 -77l-37 -177q-39 42 -94.5 63.5t-107.5 21.5q-44 0 -67 -11
t-23 -29q0 -24 39 -44l37 -16q5 -2 11.5 -4.5t16 -6t16.5 -6.5l41 -15q145 -58 145 -186q0 -92 -69 -157t-192 -72l-24 -37q20 0 36 -19t16 -47q0 -50 -38.5 -83t-99.5 -33q-34 0 -65 9.5t-44 24.5z" />
    <glyph glyph-name="scedilla" unicode="&#x15f;" horiz-adv-x="498" 
d="M32 -194l48 72q16 -16 44 -16q15 0 26 10t11 23q0 29 -46 29h-1l40 65q-105 9 -178 54l31 151q95 -59 196 -59q67 0 67 23q0 6 -11 11q-5 2 -44 11q-46 10 -58 14q-64 18 -92 49.5t-28 89.5q0 77 69 131q68 55 169 55q113 0 175 -42l-30 -150q-59 40 -158 40
q-57 0 -57 -22q0 -10 15 -16q26 -8 52 -13q41 -8 55 -12q63 -18 91 -49t28 -92q0 -70 -52 -116t-144 -56l-23 -37q20 0 36 -19t16 -47q0 -50 -38.5 -83t-99.5 -33q-34 0 -65 9.5t-44 24.5z" />
    <glyph glyph-name="Scaron" unicode="&#x160;" horiz-adv-x="594" 
d="M-29 77l38 179q99 -96 248 -96q54 0 81.5 14t27.5 36q0 18 -30 34t-116 48q-155 59 -155 195q0 92 76 156t195 64q157 0 243 -77l-37 -177q-39 42 -94.5 63.5t-107.5 21.5q-44 0 -67 -11t-23 -29q0 -24 39 -44l37 -16q5 -2 11.5 -4.5t16 -6t16.5 -6.5l41 -15
q145 -58 145 -186q0 -99 -78 -165q-79 -65 -217 -65q-193 0 -290 87zM609 890l-235 -159l-170 159h147l40 -50l59 50h159z" />
    <glyph glyph-name="scaron" unicode="&#x161;" horiz-adv-x="498" 
d="M-24 43l31 151q95 -59 196 -59q67 0 67 23q0 6 -11 11q-5 2 -44 11q-46 10 -58 14q-64 18 -92 49.5t-28 89.5q0 77 69 131q68 55 169 55q113 0 175 -42l-30 -150q-59 40 -158 40q-57 0 -57 -22q0 -10 15 -16q26 -8 52 -13q41 -8 55 -12q63 -18 91 -49t28 -92
q0 -79 -67 -128q-67 -48 -183 -48q-126 0 -220 56zM511 704l-235 -159l-170 159h147l40 -50l59 50h159z" />
    <glyph glyph-name="Tcommaaccent" unicode="&#x162;" horiz-adv-x="572" 
d="M312 0h-190l107 525h-188l35 172h562l-35 -172h-184zM33 -193l78 145h190l-132 -145h-136z" />
    <glyph glyph-name="tcommaaccent" unicode="&#x163;" horiz-adv-x="376" 
d="M192 0h-185l70 343h-69l33 161h69l39 193h185l-39 -193h104l-33 -161h-104zM-85 -193l78 145h190l-132 -145h-136z" />
    <glyph glyph-name="Tcaron" unicode="&#x164;" horiz-adv-x="572" 
d="M312 0h-190l107 525h-188l35 172h562l-35 -172h-184zM586 890l-235 -159l-170 159h147l40 -50l59 50h159z" />
    <glyph glyph-name="tcaron" unicode="&#x165;" horiz-adv-x="510" 
d="M192 0h-185l70 343h-69l33 161h69l39 193h185l-39 -193h104l-33 -161h-104zM453 552h-136l78 145h190z" />
    <glyph glyph-name="Tbar" unicode="&#x166;" horiz-adv-x="572" 
d="M312 0h-190l54 264h-96l31 156h96l22 105h-188l35 172h562l-35 -172h-184l-22 -105h108l-31 -156h-108z" />
    <glyph glyph-name="tbar" unicode="&#x167;" horiz-adv-x="376" 
d="M192 0h-185l36 178h-69l28 137h69l11 52h-69l28 137h69l39 193h185l-39 -193h93l-28 -137h-93l-11 -52h93l-28 -137h-93z" />
    <glyph glyph-name="Utilde" unicode="&#x168;" horiz-adv-x="724" 
d="M30 258q0 39 11 94l70 345h190l-82 -400q-2 -16 -2 -30q0 -49 31 -77t87 -28q112 0 139 132l82 403h190l-83 -407q-31 -153 -113.5 -226.5t-231.5 -73.5q-74 0 -143 30q-64 25 -104 84.5t-41 153.5zM302 748l-94 16q15 63 58.5 102t99.5 39q41 0 87 -25q47 -24 72 -24
q37 0 59 49l95 -16q-17 -70 -59.5 -109t-102.5 -39q-41 0 -89 24q-46 25 -72 25q-38 0 -54 -42z" />
    <glyph glyph-name="utilde" unicode="&#x169;" horiz-adv-x="602" 
d="M9 201q0 28 10 78l46 225h187l-54 -266q-2 -22 -2 -25q0 -24 18 -39.5t52 -15.5q68 0 83 73l57 273h186l-56 -277q-17 -87 -63 -142q-81 -97 -222 -97q-111 0 -177 60q-65 62 -65 153zM207 557l-94 16q15 63 58.5 102t99.5 39q41 0 87 -25q46 -24 72 -24q37 0 59 49
l95 -16q-17 -70 -59.5 -109t-102.5 -39q-41 0 -89 24q-46 25 -72 25q-37 0 -54 -42z" />
    <glyph glyph-name="Umacron" unicode="&#x16a;" horiz-adv-x="724" 
d="M30 258q0 39 11 94l70 345h190l-82 -400q-2 -16 -2 -30q0 -49 31 -77t87 -28q112 0 139 132l82 403h190l-83 -407q-31 -153 -113.5 -226.5t-231.5 -73.5q-74 0 -143 30q-64 25 -104 84.5t-41 153.5zM598 750h-328l22 109h328z" />
    <glyph glyph-name="umacron" unicode="&#x16b;" horiz-adv-x="602" 
d="M9 201q0 28 10 78l46 225h187l-54 -266q-2 -22 -2 -25q0 -24 18 -39.5t52 -15.5q68 0 83 73l57 273h186l-56 -277q-17 -87 -63 -142q-81 -97 -222 -97q-111 0 -177 60q-65 62 -65 153zM497 557h-328l22 109h328z" />
    <glyph glyph-name="Ubreve" unicode="&#x16c;" horiz-adv-x="724" 
d="M30 258q0 39 11 94l70 345h190l-82 -400q-2 -16 -2 -30q0 -49 31 -77t87 -28q112 0 139 132l82 403h190l-83 -407q-31 -153 -113.5 -226.5t-231.5 -73.5q-74 0 -143 30q-64 25 -104 84.5t-41 153.5zM442 745q-83 0 -129.5 41t-46.5 106h124q8 -35 57 -35q47 0 67 35h124
q-19 -61 -70 -104q-50 -43 -126 -43z" />
    <glyph glyph-name="ubreve" unicode="&#x16d;" horiz-adv-x="602" 
d="M9 201q0 28 10 78l46 225h187l-54 -266q-2 -22 -2 -25q0 -24 18 -39.5t52 -15.5q68 0 83 73l57 273h186l-56 -277q-17 -87 -63 -142q-81 -97 -222 -97q-111 0 -177 60q-65 62 -65 153zM352 552q-83 0 -129.5 41t-46.5 106h124q8 -35 57 -35q47 0 67 35h124
q-19 -61 -70 -104q-50 -43 -126 -43z" />
    <glyph glyph-name="Uring" unicode="&#x16e;" horiz-adv-x="724" 
d="M30 258q0 39 11 94l70 345h190l-82 -400q-2 -16 -2 -30q0 -49 31 -77t87 -28q112 0 139 132l82 403h190l-83 -407q-31 -153 -113.5 -226.5t-231.5 -73.5q-74 0 -143 30q-64 25 -104 84.5t-41 153.5zM434 711q-55 0 -89 30.5t-34 78.5q0 55 43 97t104 42q55 0 89.5 -31.5
t34.5 -80.5q0 -53 -43 -95q-44 -41 -105 -41zM443 801q17 0 28 11t11 26q0 14 -9 22.5t-23 8.5q-16 0 -27.5 -11.5t-11.5 -26.5q0 -13 9 -21.5t23 -8.5z" />
    <glyph glyph-name="uring" unicode="&#x16f;" horiz-adv-x="602" 
d="M9 201q0 28 10 78l46 225h187l-54 -266q-2 -22 -2 -25q0 -24 18 -39.5t52 -15.5q68 0 83 73l57 273h186l-56 -277q-17 -87 -63 -142q-81 -97 -222 -97q-111 0 -177 60q-65 62 -65 153zM340 543q-55 0 -89 30.5t-34 78.5q0 55 43 97q44 42 104 42q55 0 89.5 -31.5
t34.5 -80.5q0 -53 -43 -95q-44 -41 -105 -41zM349 633q17 0 28 11t11 26q0 14 -9 22.5t-23 8.5q-16 0 -27.5 -11.5t-11.5 -26.5q0 -13 9 -21.5t23 -8.5z" />
    <glyph glyph-name="Uhungarumlaut" unicode="&#x170;" horiz-adv-x="724" 
d="M572 745h-127l103 145h179zM377 745h-127l103 145h179zM30 258q0 39 11 94l70 345h190l-82 -400q-2 -16 -2 -30q0 -49 31 -77t87 -28q112 0 139 132l82 403h190l-83 -407q-31 -153 -113.5 -226.5t-231.5 -73.5q-74 0 -143 30q-64 25 -104 84.5t-41 153.5z" />
    <glyph glyph-name="uhungarumlaut" unicode="&#x171;" horiz-adv-x="602" 
d="M475 552h-127l104 145h179zM280 552h-127l104 145h179zM9 201q0 28 10 78l46 225h187l-54 -266q-2 -22 -2 -25q0 -24 18 -39.5t52 -15.5q68 0 83 73l57 273h186l-56 -277q-17 -87 -63 -142q-81 -97 -222 -97q-111 0 -177 60q-65 62 -65 153z" />
    <glyph glyph-name="Uogonek" unicode="&#x172;" horiz-adv-x="724" 
d="M30 258q0 39 11 94l70 345h190l-82 -400q-2 -16 -2 -30q0 -49 31 -77t87 -28q112 0 139 132l82 403h190l-83 -407q-37 -182 -148 -247q-28 -16 -77 -34q-52 -19 -71 -35.5t-19 -47.5q0 -28 50 -28q19 0 54 7l-48 -113q-17 -7 -42 -7q-59 0 -96 30.5t-37 78.5q0 69 73 96
h-1q-78 5 -139 35q-132 66 -132 233z" />
    <glyph glyph-name="uogonek" unicode="&#x173;" horiz-adv-x="602" 
d="M9 201q0 28 10 78l46 225h187l-54 -266q-2 -22 -2 -25q0 -24 18 -39.5t52 -15.5q68 0 83 73l57 273h186l-56 -277q-27 -133 -126 -196q-20 -12 -66 -30q-50 -20 -72 -39t-22 -49q0 -28 50 -28q19 0 54 7l-48 -113q-17 -7 -42 -7q-59 0 -96 30.5t-37 78.5q0 73 93 108h-1
q-97 7 -157 67q-57 59 -57 145z" />
    <glyph glyph-name="Wcircumflex" unicode="&#x174;" horiz-adv-x="995" 
d="M505 358l-304 -388l-117 727h185l53 -320l246 316l98 -303l181 307h206l-426 -728zM527 745h-159l235 159l170 -159h-147l-40 50z" />
    <glyph glyph-name="wcircumflex" unicode="&#x175;" horiz-adv-x="750" 
d="M357 224l-207 -251l-121 531h176l48 -198l142 179l85 -176l123 195h182l-315 -531zM363 552h-159l235 159l170 -159h-147l-40 50z" />
    <glyph glyph-name="Ycircumflex" unicode="&#x176;" horiz-adv-x="716" 
d="M381 0h-188l50 247l-171 450h199l96 -260l198 260h221l-358 -465zM386 745h-159l235 159l170 -159h-147l-40 50z" />
    <glyph glyph-name="ycircumflex" unicode="&#x177;" horiz-adv-x="629" 
d="M19 -194l125 198l-111 500h181l59 -295l185 295h197l-440 -698h-196zM300 552h-159l235 159l170 -159h-147l-40 50z" />
    <glyph glyph-name="Ydieresis" unicode="&#x178;" horiz-adv-x="716" 
d="M543 733q-34 0 -55.5 19.5t-21.5 49.5q0 36 27 62.5t65 26.5q34 0 56 -20t22 -51q0 -34 -27.5 -60.5t-65.5 -26.5zM333 733q-34 0 -55.5 19.5t-21.5 49.5q0 36 27 62.5t65 26.5q34 0 56 -20t22 -51q0 -34 -27.5 -60.5t-65.5 -26.5zM381 0h-188l50 247l-171 450h199
l96 -260l198 260h221l-358 -465z" />
    <glyph glyph-name="Zacute" unicode="&#x179;" horiz-adv-x="656" 
d="M559 0h-629l431 525h-257l35 172h577l-429 -525h307zM487 745h-136l78 145h190z" />
    <glyph glyph-name="zacute" unicode="&#x17a;" horiz-adv-x="546" 
d="M470 0h-553l321 343h-202l33 161h518l-316 -343h232zM376 552h-136l78 145h190z" />
    <glyph glyph-name="Zdotaccent" unicode="&#x17b;" horiz-adv-x="656" 
d="M437 734q-34 0 -56 20t-22 50q0 36 27.5 63.5t66.5 27.5q34 0 56.5 -20.5t22.5 -51.5q0 -36 -28 -62.5t-67 -26.5zM559 0h-629l431 525h-257l35 172h577l-429 -525h307z" />
    <glyph glyph-name="zdotaccent" unicode="&#x17c;" horiz-adv-x="546" 
d="M336 541q-34 0 -56 20t-22 50q0 36 27.5 63.5t66.5 27.5q34 0 56.5 -20.5t22.5 -51.5q0 -36 -28 -62.5t-67 -26.5zM470 0h-553l321 343h-202l33 161h518l-316 -343h232z" />
    <glyph glyph-name="Zcaron" unicode="&#x17d;" horiz-adv-x="656" 
d="M559 0h-629l431 525h-257l35 172h577l-429 -525h307zM673 890l-235 -159l-170 159h147l40 -50l59 50h159z" />
    <glyph glyph-name="zcaron" unicode="&#x17e;" horiz-adv-x="546" 
d="M561 704l-235 -159l-170 159h155l38 -46l57 46h155zM470 0h-553l321 343h-202l33 161h518l-316 -343h232z" />
    <glyph glyph-name="florin" unicode="&#x192;" horiz-adv-x="494" 
d="M270 315l-177 -416h-184l178 416h-69l62 145h68l6 14q6 16 28 62q42 81 69 105q77 77 192 73q79 0 118 -21l-66 -158q-15 9 -69 9q-34 0 -54 -17t-36 -53l-6 -14h98l-62 -145h-96z" />
    <glyph glyph-name="Aringacute" unicode="&#x1fa;" horiz-adv-x="770" 
d="M191 91l-64 -91h-199l451 625q-53 29 -53 92q0 55 43 97t104 42q55 0 89.5 -31.5t34.5 -80.5q0 -40 -25.5 -75t-67.5 -51l196 -618h-183l-26 91h-300zM458 698q17 0 28 11t11 26q0 14 -9 22.5t-23 8.5q-16 0 -27.5 -11.5t-11.5 -26.5q0 -13 9 -21.5t23 -8.5zM406 405
l-119 -167h168zM574 907h-136l78 145h190z" />
    <glyph glyph-name="aringacute" unicode="&#x1fb;" horiz-adv-x="639" 
d="M501 821h-136l78 145h190zM386 543q-55 0 -89 30.5t-34 78.5q0 55 43 97q44 42 104 42q55 0 89.5 -31.5t34.5 -80.5q0 -53 -43 -95q-44 -41 -105 -41zM395 633q17 0 28 11t11 26q0 14 -9 22.5t-23 8.5q-16 0 -27.5 -11.5t-11.5 -26.5q0 -13 9 -21.5t23 -8.5zM-2 222
q0 118 88 203t199 85q57 0 98 -16t50 -43l11 53h181l-103 -504h-178l12 56q-42 -62 -138 -62q-88 0 -154 63t-66 165zM189 243q0 -38 26.5 -62.5t69.5 -24.5q49 0 81 31q33 31 33 73q0 38 -26.5 63t-69.5 25q-46 0 -81 -32q-33 -32 -33 -73z" />
    <glyph glyph-name="AEacute" unicode="&#x1fc;" horiz-adv-x="960" 
d="M199 91l-93 -91h-223l682 697h418l-35 -171h-244l-20 -96h225l-31 -156h-225l-22 -106h252l-34 -168h-439l19 91h-230zM490 393l-153 -155h121zM715 745h-136l78 145h190z" />
    <glyph glyph-name="aeacute" unicode="&#x1fd;" horiz-adv-x="861" 
d="M-20 130q0 86 67 131t206 58q78 8 88 12q13 6 13 20q0 12 -17 20t-44 8q-67 0 -138 -59l-92 96q90 104 237 104q113 0 158 -50q58 46 146 46q100 0 163 -65q64 -64 64 -164q0 -38 -14 -86h-318v-1q0 -26 25 -42t65 -16q63 0 103 40l85 -100q-89 -93 -222 -93
q-111 0 -168 68q-55 -69 -214 -69q-86 0 -139 40q-54 40 -54 102zM507 313h148v1q0 26 -17.5 43.5t-45.5 17.5q-30 0 -54 -17.5t-31 -44.5zM165 166q0 -29 56 -29q79 0 102 59l5 19l2 12q-9 -5 -21 -8q-9 -2 -37.5 -6t-37.5 -6q-69 -11 -69 -41zM530 552h-136l78 145h190z
" />
    <glyph glyph-name="Oslashacute" unicode="&#x1fe;" horiz-adv-x="827" 
d="M105 -66l-103 97l85 85q-65 83 -65 195q0 102 55 193q55 92 153 147q98 56 213 56q106 0 188 -43l91 91l102 -97l-83 -83q65 -85 65 -194q0 -156 -120 -276q-121 -119 -300 -119q-105 0 -189 42zM229 260l266 267q-30 10 -63 10q-86 0 -150 -64t-64 -148q0 -32 11 -65z
M598 431l-265 -266q29 -9 63 -9q88 0 151 64q63 65 63 145q0 36 -12 66zM542 745h-136l78 145h190z" />
    <glyph glyph-name="oslashacute" unicode="&#x1ff;" horiz-adv-x="620" 
d="M407 552h-136l79 145h190zM68 -60l-83 74l63 66q-49 62 -49 147q0 115 93 204q94 88 224 88q68 0 127 -27l62 65l83 -74l-57 -59q50 -62 50 -147q0 -115 -92 -204q-91 -88 -224 -88q-68 0 -129 26zM183 216l130 136q-3 1 -14 1q-49 0 -84 -33t-35 -77q0 -15 3 -27z
M396 287l-131 -135q3 -1 16 -1q49 0 84 33t35 76q0 12 -4 27z" />
    <glyph glyph-name="Scommaaccent" unicode="&#x218;" horiz-adv-x="594" 
d="M-29 77l38 179q99 -96 248 -96q54 0 81.5 14t27.5 36q0 18 -30 34t-116 48q-155 59 -155 195q0 92 76 156t195 64q157 0 243 -77l-37 -177q-39 42 -94.5 63.5t-107.5 21.5q-44 0 -67 -11t-23 -29q0 -24 39 -44l37 -16q5 -2 11.5 -4.5t16 -6t16.5 -6.5l41 -15
q145 -58 145 -186q0 -99 -78 -165q-79 -65 -217 -65q-193 0 -290 87zM74 -193l78 145h190l-132 -145h-136z" />
    <glyph glyph-name="scommaaccent" unicode="&#x219;" horiz-adv-x="498" 
d="M-24 43l31 151q95 -59 196 -59q67 0 67 23q0 6 -11 11q-5 2 -44 11q-46 10 -58 14q-64 18 -92 49.5t-28 89.5q0 77 69 131q68 55 169 55q113 0 175 -42l-30 -150q-59 40 -158 40q-57 0 -57 -22q0 -10 15 -16q26 -8 52 -13q41 -8 55 -12q63 -18 91 -49t28 -92
q0 -79 -67 -128q-67 -48 -183 -48q-126 0 -220 56zM25 -193l78 145h190l-132 -145h-136z" />
    <glyph glyph-name="circumflex" unicode="&#x2c6;" horiz-adv-x="510" 
d="M253 552h-159l235 159l170 -159h-147l-40 50z" />
    <glyph glyph-name="caron" unicode="&#x2c7;" horiz-adv-x="510" 
d="M529 704l-235 -159l-170 159h147l40 -50l59 50h159z" />
    <glyph glyph-name="breve" unicode="&#x2d8;" horiz-adv-x="510" 
d="M317 550q-83 0 -129.5 41t-46.5 106h124q8 -35 57 -35q47 0 67 35h124q-19 -61 -70 -104q-50 -43 -126 -43z" />
    <glyph glyph-name="dotaccent" unicode="&#x2d9;" horiz-adv-x="510" 
d="M305 540q-34 0 -55.5 19.5t-21.5 49.5q0 36 27 62.5t65 26.5q34 0 56 -20t22 -51q0 -34 -27.5 -60.5t-65.5 -26.5z" />
    <glyph glyph-name="ring" unicode="&#x2da;" horiz-adv-x="510" 
d="M303 543q-55 0 -89 30.5t-34 78.5q0 55 43 97q44 42 104 42q55 0 89.5 -31.5t34.5 -80.5q0 -53 -43 -95q-44 -41 -105 -41zM312 633q17 0 28 11t11 26q0 14 -9 22.5t-23 8.5q-16 0 -27.5 -11.5t-11.5 -26.5q0 -13 9 -21.5t23 -8.5z" />
    <glyph glyph-name="ogonek" unicode="&#x2db;" horiz-adv-x="510" 
d="M66 -119q0 37 24.5 64.5t74.5 54.5h104q-84 -46 -84 -87q0 -28 50 -28q19 0 54 7l-48 -113q-17 -7 -42 -7q-59 0 -96 30.5t-37 78.5z" />
    <glyph glyph-name="tilde" unicode="&#x2dc;" horiz-adv-x="502" 
d="M168 557l-94 16q15 63 58.5 102t99.5 39q41 0 87 -25q47 -24 72 -24q37 0 59 49l95 -16q-17 -70 -59.5 -109t-102.5 -39q-41 0 -89 24q-46 25 -72 25q-38 0 -54 -42z" />
    <glyph glyph-name="hungarumlaut" unicode="&#x2dd;" horiz-adv-x="510" 
d="M417 552h-132l99 145h184zM222 552h-132l99 145h184z" />
    <glyph glyph-name="pi" unicode="&#x3c0;" horiz-adv-x="689" 
d="M215 0h-189q57 79 88 152q30 66 53 180h-19q-18 0 -28 -16l-121 78q30 49 82 79.5t106 30.5h511l-77 -172h-47l-31 -150q0 -3 -0.5 -6.5t-1 -5.5t-0.5 -3q0 -15 9 -20t33 -5l-30 -147q-28 -5 -62 -5q-135 0 -135 115q0 23 6 53l36 174h-54q-53 -232 -129 -332z" />
    <glyph glyph-name="Wgrave" unicode="&#x1e80;" horiz-adv-x="995" 
d="M505 358l-304 -388l-117 727h185l53 -320l246 316l98 -303l181 307h206l-426 -728zM658 745h-135l-74 145h185z" />
    <glyph glyph-name="wgrave" unicode="&#x1e81;" horiz-adv-x="750" 
d="M357 224l-207 -251l-121 531h176l48 -198l142 179l85 -176l123 195h182l-315 -531zM504 552h-135l-74 145h185z" />
    <glyph glyph-name="Wacute" unicode="&#x1e82;" horiz-adv-x="995" 
d="M505 358l-304 -388l-117 727h185l53 -320l246 316l98 -303l181 307h206l-426 -728zM617 745h-136l78 145h190z" />
    <glyph glyph-name="wacute" unicode="&#x1e83;" horiz-adv-x="750" 
d="M357 224l-207 -251l-121 531h176l48 -198l142 179l85 -176l123 195h182l-315 -531zM461 552h-136l78 145h190z" />
    <glyph glyph-name="Wdieresis" unicode="&#x1e84;" horiz-adv-x="995" 
d="M679 733q-34 0 -55.5 19.5t-21.5 49.5q0 36 27 62.5t65 26.5q34 0 56 -20t22 -51q0 -34 -27.5 -60.5t-65.5 -26.5zM469 733q-34 0 -55.5 19.5t-21.5 49.5q0 36 27 62.5t65 26.5q34 0 56 -20t22 -51q0 -34 -27.5 -60.5t-65.5 -26.5zM505 358l-304 -388l-117 727h185
l53 -320l246 316l98 -303l181 307h206l-426 -728z" />
    <glyph glyph-name="wdieresis" unicode="&#x1e85;" horiz-adv-x="750" 
d="M517 540q-34 0 -55.5 19.5t-21.5 49.5q0 36 27 62.5t65 26.5q34 0 56 -20t22 -51q0 -34 -27.5 -60.5t-65.5 -26.5zM307 540q-34 0 -55.5 19.5t-21.5 49.5q0 36 27 62.5t65 26.5q34 0 56 -20t22 -51q0 -34 -27.5 -60.5t-65.5 -26.5zM357 224l-207 -251l-121 531h176
l48 -198l142 179l85 -176l123 195h182l-315 -531z" />
    <glyph glyph-name="Ygrave" unicode="&#x1ef2;" horiz-adv-x="716" 
d="M381 0h-188l50 247l-171 450h199l96 -260l198 260h221l-358 -465zM518 745h-135l-74 145h185z" />
    <glyph glyph-name="ygrave" unicode="&#x1ef3;" horiz-adv-x="629" 
d="M19 -194l125 198l-111 500h181l59 -295l185 295h197l-440 -698h-196zM431 552h-135l-74 145h185z" />
    <glyph glyph-name="endash" unicode="&#x2013;" horiz-adv-x="587" 
d="M522 209h-513l31 156h513z" />
    <glyph glyph-name="emdash" unicode="&#x2014;" horiz-adv-x="738" 
d="M673 209h-664l31 156h664z" />
    <glyph glyph-name="quoteleft" unicode="&#x2018;" horiz-adv-x="295" 
d="M215 458h-171l175 239h132z" />
    <glyph glyph-name="quoteright" unicode="&#x2019;" horiz-adv-x="296" 
d="M176 458h-132l136 239h171z" />
    <glyph glyph-name="quotesinglbase" unicode="&#x201a;" horiz-adv-x="266" 
d="M-120 -128l136 239h171l-175 -239h-132z" />
    <glyph glyph-name="quotedblleft" unicode="&#x201c;" horiz-adv-x="488" 
d="M408 458h-171l175 239h132zM215 458h-171l175 239h132z" />
    <glyph glyph-name="quotedblright" unicode="&#x201d;" horiz-adv-x="489" 
d="M370 458h-132l136 239h171zM176 458h-132l136 239h171z" />
    <glyph glyph-name="quotedblbase" unicode="&#x201e;" horiz-adv-x="460" 
d="M206 -128h-132l136 239h171zM-120 -128l136 239h171l-175 -239h-132z" />
    <glyph glyph-name="dagger" unicode="&#x2020;" horiz-adv-x="326" 
d="M213 301h-120l48 209l-82 -3l24 115l78 -3l13 78h120l-19 -78l80 3l-24 -115l-80 3z" />
    <glyph glyph-name="daggerdbl" unicode="&#x2021;" horiz-adv-x="326" 
d="M213 301h-120l18 73l-80 -3l23 110l80 -3l9 42l-82 -3l23 110l78 -3l12 73h120l-18 -73l80 3l-23 -110l-80 3l-9 -42l82 3l-23 -110l-78 3z" />
    <glyph glyph-name="bullet" unicode="&#x2022;" horiz-adv-x="406" 
d="M170 115q-56 0 -91.5 33.5t-35.5 86.5q0 59 45 106q45 46 107 46q56 0 92 -34.5t36 -87.5q0 -58 -44 -105q-43 -45 -109 -45z" />
    <glyph glyph-name="ellipsis" unicode="&#x2026;" horiz-adv-x="698" 
d="M433 74q0 44 31 75q31 33 76 33q40 0 65 -24t25 -62q0 -43 -31 -74q-32 -32 -77 -32q-39 0 -64 23.5t-25 60.5zM197 74q0 44 31 75q32 33 76 33q40 0 65 -24t25 -62q0 -43 -31 -74q-32 -32 -77 -32q-39 0 -64 23.5t-25 60.5zM-39 74q0 43 32 75q31 33 75 33q40 0 65 -24
t25 -62q0 -43 -31 -74q-32 -32 -77 -32q-39 0 -64 23.5t-25 60.5z" />
    <glyph glyph-name="perthousand" unicode="&#x2030;" horiz-adv-x="1149" 
d="M209 402q-66 0 -107.5 37.5t-41.5 96.5q0 68 52 119q52 52 125 52q66 0 108 -38.5t42 -98.5q0 -66 -52 -117q-51 -51 -126 -51zM166 0h-175l616 697h175zM221 521q15 0 25 10.5t10 25.5q0 13 -8.5 21.5t-21.5 8.5q-14 0 -24.5 -11.5t-10.5 -25.5q0 -13 8.5 -21t21.5 -8z
M762 124q0 68 52 119q52 52 125 52q66 0 108 -38.5t42 -98.5q0 -66 -52 -117q-51 -51 -126 -51q-66 0 -107.5 37.5t-41.5 96.5zM389 124q0 68 52 119q52 52 125 52q66 0 108 -38.5t42 -98.5q0 -66 -52 -117q-51 -51 -126 -51q-66 0 -107.5 37.5t-41.5 96.5zM893 138
q0 -13 8.5 -21t21.5 -8q15 0 25 10.5t10 25.5q0 13 -8.5 21.5t-21.5 8.5q-14 0 -24.5 -11.5t-10.5 -25.5zM520 138q0 -13 8.5 -21t21.5 -8q15 0 25 10.5t10 25.5q0 13 -8.5 21.5t-21.5 8.5q-14 0 -24.5 -11.5t-10.5 -25.5z" />
    <glyph glyph-name="guilsinglleft" unicode="&#x2039;" horiz-adv-x="372" 
d="M267 61h-171l-87 192l166 192h186l-177 -201z" />
    <glyph glyph-name="guilsinglright" unicode="&#x203a;" horiz-adv-x="372" 
d="M157 61h-186l177 201l-83 183h171l87 -192z" />
    <glyph glyph-name="fraction" unicode="&#x2044;" horiz-adv-x="637" 
d="M714 697l-616 -697h-175l616 697h175z" />
    <glyph glyph-name="zerosuperior" unicode="&#x2070;" horiz-adv-x="364" 
d="M192 321q-64 0 -102.5 34.5t-38.5 89.5q0 17 5 45l15 74q14 70 59 105t108 35t102 -35t39 -90q0 -15 -6 -45l-15 -74q-14 -70 -58 -104.5t-108 -34.5zM203 431q21 0 25 22l22 108q2 12 2 13q0 17 -22 17q-21 0 -26 -23l-21 -108q0 -2 -0.5 -5t-1 -4.5t-0.5 -2.5
q0 -17 22 -17z" />
    <glyph glyph-name="foursuperior" unicode="&#x2074;" horiz-adv-x="356" 
d="M324 327h-115l12 59h-212l184 311h125l-122 -207h46l14 70h115z" />
    <glyph glyph-name="fivesuperior" unicode="&#x2075;" horiz-adv-x="320" 
d="M159 323q-52 0 -95 22q-44 23 -54 57l110 63q2 -11 14.5 -19t29.5 -8q14 0 23 7t9 18q0 25 -47 25q-55 0 -97 -5l71 214h222l-24 -117h-129l-8 -23q14 2 26 2q51 0 84.5 -28t33.5 -71q0 -60 -46.5 -98.5t-122.5 -38.5z" />
    <glyph glyph-name="sixsuperior" unicode="&#x2076;" horiz-adv-x="342" 
d="M184 323q-67 0 -109 36t-42 92q0 26 12 52q13 27 27 45q10 13 47 57l78 92h145l-101 -112h1q52 -3 82.5 -33.5t30.5 -78.5q0 -58 -49 -104t-122 -46zM191 436q27 -1 31 23q3 21 -14 29q-6 3 -14 2q-13 0 -23 -9t-10 -20q0 -25 30 -25z" />
    <glyph glyph-name="sevensuperior" unicode="&#x2077;" horiz-adv-x="328" 
d="M164 328h-137l167 252h-124l24 117h312z" />
    <glyph glyph-name="eightsuperior" unicode="&#x2078;" horiz-adv-x="340" 
d="M183 323q-65 0 -107.5 36.5t-42.5 92.5q0 28 17 53t46 40q-16 16 -16 44q0 49 43 82t99 33t92.5 -30.5t36.5 -77.5q0 -38 -31 -60q31 -31 31 -73q0 -58 -47 -99t-121 -41zM213 561q11 0 18 7t7 16q0 8 -6 13.5t-14 5.5q-11 0 -18 -7t-7 -17q0 -18 20 -18zM190 436
q13 0 22 8t9 19q0 10 -7.5 16.5t-18.5 6.5q-13 0 -22 -8.5t-9 -19.5q0 -22 26 -22z" />
    <glyph glyph-name="ninesuperior" unicode="&#x2079;" horiz-adv-x="342" 
d="M208 328h-147l97 111h-1q-36 3 -70 34t-34 79q0 58 48 105q50 47 121 47q67 0 110 -37t43 -94q0 -37 -15 -62q-14 -27 -53 -70zM213 536q11 0 21 10t10 21q0 10 -8 17.5t-19 7.5q-13 0 -23 -9.5t-10 -20.5t8.5 -18.5t20.5 -7.5z" />
    <glyph glyph-name="zero.inferior" unicode="&#x2080;" horiz-adv-x="364" 
d="M-15 117q0 17 5 45l15 74q14 70 59 105t108 35t102 -35t39 -90q0 -15 -6 -45l-15 -74q-14 -70 -58 -104.5t-108 -34.5t-102.5 34.5t-38.5 89.5zM115 120q0 -17 22 -17q21 0 25 22l22 108q2 12 2 13q0 17 -22 17q-21 0 -26 -23l-21 -108q0 -2 -0.5 -5t-1 -4.5t-0.5 -2.5z
" />
    <glyph glyph-name="one.inferior" unicode="&#x2081;" horiz-adv-x="248" 
d="M141 0h-133l51 252h-59l24 117h192z" />
    <glyph glyph-name="two.inferior" unicode="&#x2082;" horiz-adv-x="340" 
d="M255 0h-321l216 204q28 25 28 43q0 9 -8 15.5t-18 6.5q-34 0 -41 -42h-115q12 77 55 113t105 36q61 0 99.5 -34t38.5 -88q0 -57 -49 -97l-49 -40h83z" />
    <glyph glyph-name="three.inferior" unicode="&#x2083;" horiz-adv-x="333" 
d="M97 -5q-46 0 -86.5 17.5t-58.5 46.5l110 70q10 -19 38 -19q38 0 38 28q0 26 -56 26q-10 0 -58 -6l90 94h-101l24 117h284l-125 -140h1q34 -9 54.5 -33.5t20.5 -56.5q0 -63 -48 -103.5t-127 -40.5z" />
    <glyph glyph-name="four.inferior" unicode="&#x2084;" horiz-adv-x="356" 
d="M154 59h-212l184 311h125l-122 -207h46l14 70h115l-47 -233h-115z" />
    <glyph glyph-name="five.inferior" unicode="&#x2085;" horiz-adv-x="320" 
d="M-57 74l110 63q2 -11 14.5 -19t29.5 -8q14 0 23 7t9 18q0 25 -47 25q-55 0 -97 -5l71 214h222l-24 -117h-129l-8 -23q14 2 26 2q51 0 84.5 -28t33.5 -71q0 -60 -46.5 -98.5t-122.5 -38.5q-51 0 -94 22q-45 23 -55 57z" />
    <glyph glyph-name="six.inferior" unicode="&#x2086;" horiz-adv-x="342" 
d="M-34 123q0 27 13 52q11 25 26 45q10 13 47 57l78 92h145l-101 -112h1q52 -3 82.5 -33.5t30.5 -78.5q0 -58 -49 -104t-122 -46q-67 0 -109 36t-42 92zM94 133q0 -25 30 -25q27 -1 31 23q3 21 -14 29q-6 3 -14 2q-13 0 -23 -9t-10 -20z" />
    <glyph glyph-name="seven.inferior" unicode="&#x2087;" horiz-adv-x="328" 
d="M97 0h-137l167 252h-124l24 117h312z" />
    <glyph glyph-name="eight.inferior" unicode="&#x2088;" horiz-adv-x="340" 
d="M-34 124q0 28 17 53t46 40q-16 16 -16 44q0 49 43 82q44 33 99 33q56 0 92.5 -30.5t36.5 -77.5q0 -38 -31 -60q31 -31 31 -73q0 -58 -47 -99t-121 -41q-65 0 -107.5 36.5t-42.5 92.5zM146 233q11 0 18 7t7 16q0 8 -6 13.5t-14 5.5q-11 0 -18 -7t-7 -17q0 -18 20 -18z
M97 130q0 -22 26 -22q13 0 22 8t9 19q0 10 -7.5 16.5t-18.5 6.5q-12 0 -21.5 -8.5t-9.5 -19.5z" />
    <glyph glyph-name="nine.inferior" unicode="&#x2089;" horiz-adv-x="342" 
d="M142 0h-147l97 111h-1q-36 3 -70 34t-34 79q0 58 48 105q50 47 121 47q67 0 110 -37t43 -94q0 -37 -15 -62q-14 -27 -53 -70zM147 208q11 0 21 10t10 21q0 10 -8 17.5t-19 7.5q-13 0 -23 -9.5t-10 -20.5t8.5 -18.5t20.5 -7.5z" />
    <glyph glyph-name="Euro" unicode="&#x20ac;" horiz-adv-x="768" 
d="M92 249h-108l51 77h52v1q1 23 6 52h-65l51 77h37q46 110 147 180q103 71 228 71q187 0 282 -147l-156 -110q-52 87 -137 87q-92 0 -153 -81h238l-51 -77h-224q-7 -22 -7 -52v-1h195l-51 -77h-130q18 -43 52.5 -68t81.5 -25q82 0 145 74l122 -122q-114 -122 -277 -122
q-129 0 -219 72q-91 74 -110 191z" />
    <glyph glyph-name="uni2113" unicode="&#x2113;" horiz-adv-x="594" 
d="M84 128l-87 -40l-29 122q16 10 67 36q57 30 61 32l38 187q31 157 99 212q60 48 150 48q79 0 130 -52q51 -51 51 -131q0 -105 -72 -183q-74 -78 -228 -157q-3 -7 -3 -16q0 -19 19 -30.5t49 -11.5q47 0 107 45l78 -108q-60 -56 -115 -80t-126 -24q-78 0 -131 41
q-54 43 -58 109v1zM325 509l-33 -142q44 28 69 72.5t25 85.5q0 15 -7 25t-18 10q-25 0 -36 -51z" />
    <glyph glyph-name="uni2116" unicode="&#x2116;" horiz-adv-x="1342" 
d="M168 0h-182l148 725l342 -387l73 359h182l-148 -725l-344 376zM790 433q0 105 82 184q83 80 196 80q104 0 170 -60q66 -59 66 -152q0 -101 -81 -181q-80 -79 -200 -79q-104 0 -168 58q-65 59 -65 150zM973 452q0 -28 19 -46t48 -18q33 0 57 24.5t24 55.5q0 29 -19 47.5
t-49 18.5q-33 0 -56.5 -24.5t-23.5 -57.5zM1203 0h-486l32 156h486z" />
    <glyph glyph-name="trademark" unicode="&#x2122;" horiz-adv-x="937" 
d="M594 326h-153l76 371h109l83 -143l155 143h119l-76 -371h-153l29 139l-99 -89l-61 89zM290 326h-167l44 216h-103l32 155h369l-32 -155h-99z" />
    <glyph glyph-name="Omega" unicode="&#x2126;" horiz-adv-x="838" 
d="M330 0h-370l35 172h82q-15 22 -26 69q-10 43 -10 83q0 152 121 267q122 116 288 116q154 0 252 -89q99 -88 99 -227q0 -46 -16 -87q-16 -43 -33 -67q-16 -23 -52 -65h72l-35 -172h-371q92 47 160 137q70 91 70 207q0 84 -45 138q-45 55 -115 55q-86 0 -151 -86
q-63 -85 -63 -197q0 -82 31 -154q31 -71 77 -100z" />
    <glyph glyph-name="estimated" unicode="&#x212e;" horiz-adv-x="881" 
d="M188 359l-52 -259q88 -91 236 -91q82 0 165.5 34t148.5 93h32q-70 -69 -163 -108.5t-188 -39.5q-148 0 -244 93t-96 230q0 115 71 218q70 102 185 163q115 60 239 60q149 0 244 -89q96 -89 96 -222q0 -37 -9 -82h-665zM246 642l-54 -262h508l53 263q-95 87 -234 87
q-142 0 -273 -88z" />
    <glyph glyph-name="onethird" unicode="&#x2153;" horiz-adv-x="783" 
d="M128 0h-175l616 697h175zM208 328h-133l51 252h-59l24 117h192zM402 59l110 70q10 -19 38 -19q38 0 38 28q0 26 -56 26q-10 0 -58 -6l90 94h-101l24 117h284l-125 -140h1q34 -9 54.5 -33.5t20.5 -56.5q0 -63 -48 -103.5t-127 -40.5q-46 0 -86.5 17.5t-58.5 46.5z" />
    <glyph glyph-name="twothirds" unicode="&#x2154;" horiz-adv-x="886" 
d="M322 328h-321l216 204q28 25 28 43q0 9 -8 15.5t-18 6.5q-33 0 -41 -42h-115q12 77 55 113t105 36q61 0 99.5 -34t38.5 -88q0 -57 -49 -97l-49 -40h83zM235 0h-175l616 697h175zM505 59l110 70q10 -19 38 -19q38 0 38 28q0 26 -56 26q-10 0 -58 -6l90 94h-101l24 117h284
l-125 -140h1q34 -9 54.5 -33.5t20.5 -56.5q0 -63 -48 -103.5t-127 -40.5q-46 0 -86.5 17.5t-58.5 46.5z" />
    <glyph glyph-name="arrowleft" unicode="&#x2190;" horiz-adv-x="718" 
d="M360 94l-139 -115l-219 277l354 295l113 -141l-94 -68h306l-35 -172h-350z" />
    <glyph glyph-name="arrowup" unicode="&#x2191;" horiz-adv-x="798" 
d="M407 0h-172l57 281l-90 -78l-101 128l346 286l228 -286l-137 -115l-69 91z" />
    <glyph glyph-name="arrowright" unicode="&#x2192;" horiz-adv-x="718" 
d="M305 170h-305l35 172h349l-64 76l139 115l219 -277l-354 -295l-113 141z" />
    <glyph glyph-name="arrowdown" unicode="&#x2193;" horiz-adv-x="798" 
d="M298 -113l-228 286l137 115l69 -91l62 307h172l-57 -281l90 78l101 -128z" />
    <glyph glyph-name="arrowboth" unicode="&#x2194;" horiz-adv-x="990" 
d="M360 94l-139 -115l-219 277l354 295l113 -141l-94 -68h281l-64 76l139 115l219 -277l-354 -295l-113 141l94 68h-281z" />
    <glyph glyph-name="arrowupdn" unicode="&#x2195;" horiz-adv-x="798" 
d="M287 -169l-222 278l137 115l63 -83l39 202l-79 -69l-101 128l335 277l222 -278l-137 -115l-63 83l-39 -202l79 69l101 -128z" />
    <glyph glyph-name="arrownorthwest" unicode="&#x2196;" horiz-adv-x="798" 
d="M289 91h-168l84 413h407l-34 -163h-132l193 -242l-132 -110l-190 238z" />
    <glyph glyph-name="arrownortheast" unicode="&#x2197;" horiz-adv-x="798" 
d="M430 204l-263 -217l-107 134l266 220h-110l34 163h407l-84 -413h-166z" />
    <glyph glyph-name="arrowsoutheast" unicode="&#x2198;" horiz-adv-x="798" 
d="M554 0h-407l34 163h132l-193 242l132 110l190 -238l28 136h168z" />
    <glyph glyph-name="arrowsouthwest" unicode="&#x2199;" horiz-adv-x="798" 
d="M509 0h-407l84 413h166l-23 -113l263 217l107 -134l-266 -220h110z" />
    <glyph glyph-name="partialdiff" unicode="&#x2202;" horiz-adv-x="576" 
d="M-1 193q0 112 82 195q83 84 195 84q78 0 108 -40l1 -1v1q0 51 -25 80.5t-67 29.5q-57 0 -103 -29l-67 127l19 15q20 15 30 20q70 42 156 37q102 0 167 -75q65 -76 65 -192q0 -99 -29.5 -191t-82.5 -159q-50 -56 -103 -83t-125 -27q-98 0 -159 58q-62 59 -62 150zM189 214
q0 -24 16 -39.5t41 -15.5q39 0 66.5 27t27.5 63q0 24 -19.5 40t-49.5 16q-33 0 -57.5 -27.5t-24.5 -63.5z" />
    <glyph glyph-name="increment" unicode="&#x2206;" horiz-adv-x="671" 
d="M592 0h-655l473 712zM342 329l-99 -157h137z" />
    <glyph glyph-name="product" unicode="&#x220f;" horiz-adv-x="737" 
d="M240 0h-188l107 526h-105l35 171h701l-35 -171h-105l-107 -526h-188l107 526h-115z" />
    <glyph glyph-name="summation" unicode="&#x2211;" horiz-adv-x="582" 
d="M482 0h-562l314 359l-163 338h541l-37 -180h-217l88 -160l-151 -185h222z" />
    <glyph glyph-name="minus" unicode="&#x2212;" horiz-adv-x="590" 
d="M531 271h-504l32 156h504z" />
    <glyph glyph-name="radical" unicode="&#x221a;" horiz-adv-x="669" 
d="M263 457l40 -195l285 538h176l-522 -972l-102 450l-106 -42l-28 124z" />
    <glyph glyph-name="infinity" unicode="&#x221e;" horiz-adv-x="841" 
d="M192 123q-79 0 -129 47q-50 48 -50 122q0 90 67 157q68 68 160 68q101 0 187 -107q52 45 68 57q25 20 64 35t78 15q80 0 129 -49q50 -48 50 -123q0 -88 -67 -155q-66 -67 -162 -67q-95 0 -183 102q-38 -31 -65 -51q-22 -16 -64 -34q-43 -17 -83 -17zM534 339l-27 -24
q37 -43 74 -43q26 0 43.5 15t17.5 36q0 19 -15 31.5t-38 12.5q-19 0 -42 -18q-9 -6 -13 -10zM242 272q21 0 42 17l13 10l28 24q-38 44 -74 44q-26 0 -45 -16t-19 -37q0 -19 15 -30.5t40 -11.5z" />
    <glyph glyph-name="integral" unicode="&#x222b;" horiz-adv-x="340" 
d="M-1 53q31 0 45.5 28t30.5 105q10 53 22 176q15 141 28 202q24 119 80 172t149 53q30 0 62 -9l-31 -149q-12 3 -35 3q-25 0 -36.5 -21.5t-24.5 -81.5q-12 -62 -29 -210q-18 -155 -27 -198q-24 -119 -82.5 -172t-155.5 -53q-35 0 -73 9l31 151q22 -5 46 -5z" />
    <glyph glyph-name="approxequal" unicode="&#x2248;" horiz-adv-x="502" 
d="M135 388l-95 16q18 76 62 122t100 46q44 0 92 -22t76 -22q32 0 50 42l95 -16q-21 -85 -63.5 -130t-102.5 -45q-45 0 -95 22q-48 22 -75 22q-30 0 -44 -35zM88 157l-95 16q18 76 62 122t100 46q44 0 92 -22t76 -22q32 0 50 42l95 -16q-21 -85 -63.5 -130t-102.5 -45
q-46 0 -94 22t-76 22q-32 0 -44 -35z" />
    <glyph glyph-name="notequal" unicode="&#x2260;" horiz-adv-x="646" 
d="M252 158l-116 -144l-109 75l56 69h-74l32 156h168l55 68h-209l31 156h304l117 143l107 -75l-55 -68h77l-31 -156h-172l-55 -68h213l-32 -156h-307z" />
    <glyph glyph-name="lessequal" unicode="&#x2264;" horiz-adv-x="470" 
d="M420 336l-33 -165l-354 259l459 259l-37 -182l-152 -85zM352 0h-376l32 156h376z" />
    <glyph glyph-name="greaterequal" unicode="&#x2265;" horiz-adv-x="470" 
d="M469 430l-459 -259l37 182l152 85l-117 86l33 165zM352 0h-376l32 156h376z" />
    <glyph glyph-name="triagup" unicode="&#x25b2;" horiz-adv-x="593" 
d="M486 100h-481l317 411z" />
    <glyph glyph-name="triagrt" unicode="&#x25ba;" horiz-adv-x="593" 
d="M504 268l-462 -248l98 481z" />
    <glyph glyph-name="triagdn" unicode="&#x25bc;" horiz-adv-x="593" 
d="M556 442l-332 -411l-149 411h481z" />
    <glyph glyph-name="triaglf" unicode="&#x25c4;" horiz-adv-x="593" 
d="M417 20l-360 248l458 233z" />
    <glyph glyph-name="lozenge" unicode="&#x25ca;" horiz-adv-x="574" 
d="M573 349l-364 -384l-208 384l362 373zM189 336l64 -110l132 133l-65 108z" />
    <glyph glyph-name="uni25E2" unicode="&#x25e2;" horiz-adv-x="593" 
d="M452 51l-442 115l409 340z" />
    <glyph glyph-name="uni25E3" unicode="&#x25e3;" horiz-adv-x="593" 
d="M509 166l-490 -115l219 455z" />
    <glyph glyph-name="uni25E4" unicode="&#x25e4;" horiz-adv-x="593" 
d="M539 363l-409 -340l-21 466z" />
    <glyph glyph-name="uni25E5" unicode="&#x25e5;" horiz-adv-x="593" 
d="M538 489l-209 -466l-271 340z" />
    <glyph glyph-name="CR" horiz-adv-x="333" 
 />
    <glyph glyph-name="space.frac" horiz-adv-x="20" 
 />
    <glyph glyph-name="C.alt" horiz-adv-x="712" 
d="M22 311q0 102 55 193q55 92 153 147q98 56 213 56q199 0 299 -147l-156 -110q-58 87 -154 87q-86 0 -150 -64t-64 -148q0 -76 49 -122q50 -47 129 -47q86 0 155 74l122 -122q-117 -122 -287 -122q-159 0 -262 91q-102 91 -102 234z" />
    <glyph glyph-name="G.alt" horiz-adv-x="754" 
d="M22 310q-3 100 54.5 193t157 149.5t210.5 54.5q104 0 174.5 -37t120.5 -113l-148 -105q-58 85 -163 85q-87 0 -150 -64q-62 -64 -62 -147q0 -74 49 -120t127 -46q74 0 133 44l13 63h-180l32 158h344l-65 -322q-124 -113 -293 -113q-156 0 -255 90t-99 230z" />
    <glyph glyph-name="K.alt" horiz-adv-x="710" 
d="M176 0h-190l142 697h190l-55 -267l277 267h239l-328 -320l195 -377h-209l-132 254l-97 -94z" />
    <glyph glyph-name="M.alt" horiz-adv-x="881" 
d="M234 282l-112 -282h-184l280 728l198 -439l385 443v-732h-181v266l-255 -294z" />
    <glyph glyph-name="Q.alt" horiz-adv-x="827" 
d="M22 311q0 102 55 193q55 92 153 147q98 56 213 56q157 0 260 -92q103 -91 103 -234q0 -77 -33 -151t-89 -122l37 -52l-147 -108l-46 65q-53 -27 -142 -27q-159 0 -262 91q-102 91 -102 234zM218 325q0 -76 49 -122q50 -47 129 -47q4 0 30 2l-58 82l147 108l64 -92
q31 50 31 109q0 75 -50 123q-49 49 -128 49q-86 0 -150 -64t-64 -148z" />
    <glyph glyph-name="S.alt" horiz-adv-x="594" 
d="M-41 154l154 99q17 -43 61 -70t98 -27q40 0 66.5 14.5t26.5 38.5q0 32 -50 50l-56 21q-49 19 -59 23q-62 28 -97.5 73t-35.5 103q0 94 76 161q77 68 196 68q91 0 156 -40q66 -38 95 -90l-141 -99q-15 29 -46.5 47.5t-71.5 18.5q-35 0 -56.5 -14t-21.5 -35q0 -24 26 -38
q13 -6 31 -13q62 -21 106 -39q139 -58 139 -178q0 -102 -78 -170q-76 -67 -220 -67q-118 0 -195 49t-103 114z" />
    <glyph glyph-name="W.alt" horiz-adv-x="1027" 
d="M490 267l-212 -304l-206 734h177l107 -367l71 107l-82 260h168l34 -112l78 112h169l-186 -268l31 -92l257 360h201l-509 -734z" />
    <glyph glyph-name="Cacute.alt" horiz-adv-x="712" 
d="M22 311q0 102 55 193q55 92 153 147q98 56 213 56q199 0 299 -147l-156 -110q-58 87 -154 87q-86 0 -150 -64t-64 -148q0 -76 49 -122q50 -47 129 -47q86 0 155 74l122 -122q-117 -122 -287 -122q-159 0 -262 91q-102 91 -102 234zM527 745h-136l78 145h190z" />
    <glyph glyph-name="Ccircumflex.alt" horiz-adv-x="712" 
d="M22 311q0 102 55 193q55 92 153 147q98 56 213 56q199 0 299 -147l-156 -110q-58 87 -154 87q-86 0 -150 -64t-64 -148q0 -76 49 -122q50 -47 129 -47q86 0 155 74l122 -122q-117 -122 -287 -122q-159 0 -262 91q-102 91 -102 234zM427 745h-159l235 159l170 -159h-147
l-40 50z" />
    <glyph glyph-name="Ccaron.alt" horiz-adv-x="712" 
d="M22 311q0 102 55 193q55 92 153 147q98 56 213 56q199 0 299 -147l-156 -110q-58 87 -154 87q-86 0 -150 -64t-64 -148q0 -76 49 -122q50 -47 129 -47q86 0 155 74l122 -122q-117 -122 -287 -122q-159 0 -262 91q-102 91 -102 234zM708 890l-235 -159l-170 159h147
l40 -50l59 50h159z" />
    <glyph glyph-name="Cdotaccent.alt" horiz-adv-x="712" 
d="M478 734q-34 0 -56 20t-22 50q0 36 27.5 63.5t66.5 27.5q34 0 56.5 -20.5t22.5 -51.5q0 -36 -28 -62.5t-67 -26.5zM22 311q0 102 55 193q55 92 153 147q98 56 213 56q199 0 299 -147l-156 -110q-58 87 -154 87q-86 0 -150 -64t-64 -148q0 -76 49 -122q50 -47 129 -47
q86 0 155 74l122 -122q-117 -122 -287 -122q-159 0 -262 91q-102 91 -102 234z" />
    <glyph glyph-name="Ccedilla.alt" horiz-adv-x="712" 
d="M153 -194l48 72q16 -16 44 -16q15 0 26 10t11 23q0 29 -46 29h-1l45 74q-118 29 -188 112t-70 201q0 102 55 193q55 92 153 147q98 56 213 56q199 0 299 -147l-156 -110q-58 87 -154 87q-86 0 -150 -64t-64 -148q0 -76 49 -122q50 -47 129 -47q86 0 155 74l122 -122
q-117 -122 -287 -122q-2 0 -9 0.5t-8 0.5l-21 -33q20 0 36 -19t16 -47q0 -50 -38.5 -83t-99.5 -33q-34 0 -65 9.5t-44 24.5z" />
    <glyph glyph-name="Gcircumflex.alt" horiz-adv-x="754" 
d="M22 310q-3 100 54.5 193t157 149.5t210.5 54.5q104 0 174.5 -37t120.5 -113l-148 -105q-58 85 -163 85q-87 0 -150 -64q-62 -64 -62 -147q0 -74 49 -120t127 -46q74 0 133 44l13 63h-180l32 158h344l-65 -322q-124 -113 -293 -113q-156 0 -255 90t-99 230zM414 745h-159
l235 159l170 -159h-147l-40 50z" />
    <glyph glyph-name="Gbreve.alt" horiz-adv-x="754" 
d="M22 310q-3 100 54.5 193t157 149.5t210.5 54.5q104 0 174.5 -37t120.5 -113l-148 -105q-58 85 -163 85q-87 0 -150 -64q-62 -64 -62 -147q0 -74 49 -120t127 -46q74 0 133 44l13 63h-180l32 158h344l-65 -322q-124 -113 -293 -113q-156 0 -255 90t-99 230zM486 745
q-83 0 -129.5 41t-46.5 106h124q8 -35 57 -35q47 0 67 35h124q-19 -61 -70 -104q-50 -43 -126 -43z" />
    <glyph glyph-name="Gdotaccent.alt" horiz-adv-x="754" 
d="M472 734q-34 0 -56 20t-22 50q0 36 27.5 63.5t66.5 27.5q34 0 56.5 -20.5t22.5 -51.5q0 -36 -28 -62.5t-67 -26.5zM22 310q-3 100 54.5 193t157 149.5t210.5 54.5q104 0 174.5 -37t120.5 -113l-148 -105q-58 85 -163 85q-87 0 -150 -64q-62 -64 -62 -147q0 -74 49 -120
t127 -46q74 0 133 44l13 63h-180l32 158h344l-65 -322q-124 -113 -293 -113q-156 0 -255 90t-99 230z" />
    <glyph glyph-name="Gcommaaccent.alt" horiz-adv-x="754" 
d="M22 310q-3 100 54.5 193t157 149.5t210.5 54.5q104 0 174.5 -37t120.5 -113l-148 -105q-58 85 -163 85q-87 0 -150 -64q-62 -64 -62 -147q0 -74 49 -120t127 -46q74 0 133 44l13 63h-180l32 158h344l-65 -322q-124 -113 -293 -113q-156 0 -255 90t-99 230zM303 -193h-136
l78 145h190z" />
    <glyph glyph-name="Kcommaaccent.alt" horiz-adv-x="710" 
d="M176 0h-190l142 697h190l-55 -267l277 267h239l-328 -320l195 -377h-209l-132 254l-97 -94zM136 -193l78 145h190l-132 -145h-136z" />
    <glyph glyph-name="Sacute.alt" horiz-adv-x="594" 
d="M-41 154l154 99q17 -43 61 -70t98 -27q40 0 66.5 14.5t26.5 38.5q0 32 -50 50l-56 21q-49 19 -59 23q-62 28 -97.5 73t-35.5 103q0 94 76 161q77 68 196 68q91 0 156 -40q66 -38 95 -90l-141 -99q-15 29 -46.5 47.5t-71.5 18.5q-35 0 -56.5 -14t-21.5 -35q0 -24 26 -38
q13 -6 31 -13q62 -21 106 -39q139 -58 139 -178q0 -102 -78 -170q-76 -67 -220 -67q-118 0 -195 49t-103 114zM419 745h-136l78 145h190z" />
    <glyph glyph-name="Scircumflex.alt" horiz-adv-x="594" 
d="M-41 154l154 99q17 -43 61 -70t98 -27q40 0 66.5 14.5t26.5 38.5q0 32 -50 50l-56 21q-49 19 -59 23q-62 28 -97.5 73t-35.5 103q0 94 76 161q77 68 196 68q91 0 156 -40q66 -38 95 -90l-141 -99q-15 29 -46.5 47.5t-71.5 18.5q-35 0 -56.5 -14t-21.5 -35q0 -24 26 -38
q13 -6 31 -13q62 -21 106 -39q139 -58 139 -178q0 -102 -78 -170q-76 -67 -220 -67q-118 0 -195 49t-103 114zM314 745h-159l235 159l170 -159h-147l-40 50z" />
    <glyph glyph-name="Scaron.alt" horiz-adv-x="594" 
d="M-41 154l154 99q17 -43 61 -70t98 -27q40 0 66.5 14.5t26.5 38.5q0 32 -50 50l-56 21q-49 19 -59 23q-62 28 -97.5 73t-35.5 103q0 94 76 161q77 68 196 68q91 0 156 -40q66 -38 95 -90l-141 -99q-15 29 -46.5 47.5t-71.5 18.5q-35 0 -56.5 -14t-21.5 -35q0 -24 26 -38
q13 -6 31 -13q62 -21 106 -39q139 -58 139 -178q0 -102 -78 -170q-76 -67 -220 -67q-118 0 -195 49t-103 114zM597 890l-235 -159l-170 159h147l40 -50l59 50h159z" />
    <glyph glyph-name="Scommaaccent.alt" horiz-adv-x="594" 
d="M-41 154l154 99q17 -43 61 -70t98 -27q40 0 66.5 14.5t26.5 38.5q0 32 -50 50l-56 21q-49 19 -59 23q-62 28 -97.5 73t-35.5 103q0 94 76 161q77 68 196 68q91 0 156 -40q66 -38 95 -90l-141 -99q-15 29 -46.5 47.5t-71.5 18.5q-35 0 -56.5 -14t-21.5 -35q0 -24 26 -38
q13 -6 31 -13q62 -21 106 -39q139 -58 139 -178q0 -102 -78 -170q-76 -67 -220 -67q-118 0 -195 49t-103 114zM72 -193l78 145h190l-132 -145h-136z" />
    <glyph glyph-name="Scedilla.alt" horiz-adv-x="594" 
d="M65 -194l48 72q16 -16 44 -16q15 0 26 10t11 23q0 29 -46 29h-1l44 72q-87 12 -148.5 56.5t-83.5 101.5l154 99q17 -43 61 -70t98 -27q40 0 66.5 14.5t26.5 38.5q0 32 -50 50l-56 21q-49 19 -59 23q-62 28 -97.5 73t-35.5 103q0 94 76 161q77 68 196 68q91 0 156 -40
q66 -38 95 -90l-141 -99q-15 29 -46.5 47.5t-71.5 18.5q-35 0 -56.5 -14t-21.5 -35q0 -24 26 -38q13 -6 31 -13q62 -21 106 -39q139 -58 139 -178q0 -98 -70 -164q-71 -64 -201 -72l-24 -38q20 0 36 -19t16 -47q0 -50 -38.5 -83t-99.5 -33q-34 0 -65 9.5t-44 24.5z" />
    <glyph glyph-name="Wgrave.alt" horiz-adv-x="1027" 
d="M490 267l-212 -304l-206 734h177l107 -367l71 107l-82 260h168l34 -112l78 112h169l-186 -268l31 -92l257 360h201l-509 -734zM658 745h-135l-74 145h185z" />
    <glyph glyph-name="Wacute.alt" horiz-adv-x="1027" 
d="M490 267l-212 -304l-206 734h177l107 -367l71 107l-82 260h168l34 -112l78 112h169l-186 -268l31 -92l257 360h201l-509 -734zM631 745h-136l78 145h190z" />
    <glyph glyph-name="Wcircumflex.alt" horiz-adv-x="1027" 
d="M490 267l-212 -304l-206 734h177l107 -367l71 107l-82 260h168l34 -112l78 112h169l-186 -268l31 -92l257 360h201l-509 -734zM531 745h-159l235 159l170 -159h-147l-40 50z" />
    <glyph glyph-name="Wdieresis.alt" horiz-adv-x="1027" 
d="M687 733q-34 0 -55.5 19.5t-21.5 49.5q0 36 27 62.5t65 26.5q34 0 56 -20t22 -51q0 -34 -27.5 -60.5t-65.5 -26.5zM477 733q-34 0 -55.5 19.5t-21.5 49.5q0 36 27 62.5t65 26.5q34 0 56 -20t22 -51q0 -34 -27.5 -60.5t-65.5 -26.5zM490 267l-212 -304l-206 734h177
l107 -367l71 107l-82 260h168l34 -112l78 112h169l-186 -268l31 -92l257 360h201l-509 -734z" />
    <glyph glyph-name="a.alt" horiz-adv-x="569" 
d="M-27 130q0 86 65.5 131t202.5 58q58 6 77 11.5t19 20.5q0 12 -15.5 20t-40.5 8q-65 0 -133 -59l-92 96q90 104 237 104q106 0 162.5 -40.5t56.5 -115.5q0 -27 -4 -46l-26 -130q-2 -14 -2 -17q0 -23 21 -23q6 0 9 1l-30 -145q-24 -11 -58 -11q-45 0 -70 14q-26 13 -36 39
q-49 -58 -160 -58q-82 0 -132 40q-51 40 -51 102zM158 166q0 -29 51 -29q92 0 104 76l2 14q-9 -5 -20 -8q-9 -2 -36.5 -6t-36.5 -6q-64 -10 -64 -41z" />
    <glyph glyph-name="c.alt" horiz-adv-x="541" 
d="M-1 228q0 117 91 205q92 89 221 89q147 0 222 -109l-144 -105q-31 45 -86 45q-47 0 -83 -33t-36 -76q0 -38 27.5 -62.5t71.5 -24.5q49 0 87 38l112 -117q-87 -90 -213 -90q-118 0 -194 67t-76 173z" />
    <glyph glyph-name="e.alt" horiz-adv-x="586" 
d="M-2 228q0 116 84 202q86 86 212 86q112 0 185 -65q72 -65 72 -164q0 -38 -14 -86h-358v-1q0 -26 30.5 -42t79.5 -16q74 0 123 40l85 -100q-97 -93 -242 -93q-115 0 -186 67q-71 68 -71 172zM187 313h188v1q0 26 -23 43.5t-60 17.5q-38 0 -67 -17.5t-38 -44.5z" />
    <glyph glyph-name="g.alt" horiz-adv-x="635" 
d="M-43 -136l104 120q68 -53 149 -53q122 0 145 95l6 26q-37 -54 -141 -54q-90 0 -155 61q-66 61 -66 163q0 118 88 203t199 85q57 0 98 -16t50 -43l11 53h181l-94 -458l-10 -43q-3 -15 -15 -47q-11 -32 -24 -51q-37 -61 -90 -88q-72 -37 -168 -37q-181 0 -268 84zM186 243
q0 -38 27.5 -62.5t70.5 -24.5q50 0 82 31q34 31 34 73q0 38 -27.5 63t-70.5 25q-47 0 -82 -32q-34 -31 -34 -73z" />
    <glyph glyph-name="j.alt" horiz-adv-x="277" 
d="M186 527q-42 0 -68.5 25.5t-26.5 65.5q0 44 33 77q33 34 80 34q42 0 68.5 -26t26.5 -66q0 -43 -33 -77q-33 -33 -80 -33zM263 504l-142 -697h-185l142 697h185z" />
    <glyph glyph-name="k.alt" horiz-adv-x="582" 
d="M159 0h-184l142 697h184l-74 -361l170 168h219l-244 -237l153 -267h-196l-94 166l-53 -51z" />
    <glyph glyph-name="l.alt" horiz-adv-x="327" 
d="M3 133q0 21 9 65l101 499h185l-98 -483q-3 -14 -3 -24q0 -41 47 -41q18 0 34 3l-32 -156q-29 -8 -81 -8q-74 0 -118 39.5t-44 105.5z" />
    <glyph glyph-name="r.alt" horiz-adv-x="376" 
d="M156 0h-185l66 324q39 192 246 192q74 0 115 -10l-31 -154q-25 3 -56 3q-46 0 -67.5 -15.5t-28.5 -51.5z" />
    <glyph glyph-name="s.alt" horiz-adv-x="502" 
d="M-38 76l116 114q42 -50 138 -50q59 0 59 24q0 9 -23 14q-31 8 -62 14q-38 8 -67 23q-81 41 -81 124q0 75 64 127q65 53 162 53q113 0 195 -67l-93 -117q-50 38 -111 38q-48 0 -48 -26q0 -11 18 -17q13 -4 61 -16q45 -10 75 -22q83 -33 83 -125q0 -82 -68 -132t-184 -50
q-156 0 -234 91z" />
    <glyph glyph-name="t.alt" horiz-adv-x="372" 
d="M33 133q0 21 9 65l29 145h-67l33 161h67l39 193h185l-40 -193h107l-33 -161h-106l-26 -129q-3 -15 -3 -24q0 -41 47 -41q18 0 34 3l-32 -156q-29 -8 -81 -8q-74 0 -118 39.5t-44 105.5z" />
    <glyph glyph-name="u.alt" horiz-adv-x="598" 
d="M5 155q0 22 5 50l62 299h185l-57 -282q-2 -18 -2 -20q0 -56 60 -56q70 0 85 81l56 277h185l-103 -504h-185l13 62q-53 -74 -138 -74q-78 0 -122 44.5t-44 122.5z" />
    <glyph glyph-name="y.alt" horiz-adv-x="635" 
d="M163 -28l1 3l-125 529h186l66 -294l172 294h198l-315 -535q-31 -55 -49 -78q-18 -27 -48 -57q-54 -55 -148 -55q-65 0 -96 14l30 149q33 -11 64 -11q50 0 64 41z" />
    <glyph glyph-name="w.alt" horiz-adv-x="873" 
d="M396 183l-168 -210l-210 531h175l97 -240l41 46l-81 194h157l30 -72l57 72h166l-158 -197l25 -52l201 249h191l-427 -535z" />
    <glyph glyph-name="agrave.alt" horiz-adv-x="569" 
d="M-27 130q0 86 65.5 131t202.5 58q58 6 77 11.5t19 20.5q0 12 -15.5 20t-40.5 8q-65 0 -133 -59l-92 96q90 104 237 104q106 0 162.5 -40.5t56.5 -115.5q0 -27 -4 -46l-26 -130q-2 -14 -2 -17q0 -23 21 -23q6 0 9 1l-30 -145q-24 -11 -58 -11q-45 0 -70 14q-26 13 -36 39
q-49 -58 -160 -58q-82 0 -132 40q-51 40 -51 102zM158 166q0 -29 51 -29q92 0 104 76l2 14q-9 -5 -20 -8q-9 -2 -36.5 -6t-36.5 -6q-64 -10 -64 -41zM403 552h-135l-74 145h185z" />
    <glyph glyph-name="aacute.alt" horiz-adv-x="569" 
d="M-27 130q0 86 65.5 131t202.5 58q58 6 77 11.5t19 20.5q0 12 -15.5 20t-40.5 8q-65 0 -133 -59l-92 96q90 104 237 104q106 0 162.5 -40.5t56.5 -115.5q0 -27 -4 -46l-26 -130q-2 -14 -2 -17q0 -23 21 -23q6 0 9 1l-30 -145q-24 -11 -58 -11q-45 0 -70 14q-26 13 -36 39
q-49 -58 -160 -58q-82 0 -132 40q-51 40 -51 102zM158 166q0 -29 51 -29q92 0 104 76l2 14q-9 -5 -20 -8q-9 -2 -36.5 -6t-36.5 -6q-64 -10 -64 -41zM361 552h-136l78 145h190z" />
    <glyph glyph-name="acircumflex.alt" horiz-adv-x="569" 
d="M-27 130q0 86 65.5 131t202.5 58q58 6 77 11.5t19 20.5q0 12 -15.5 20t-40.5 8q-65 0 -133 -59l-92 96q90 104 237 104q106 0 162.5 -40.5t56.5 -115.5q0 -27 -4 -46l-26 -130q-2 -14 -2 -17q0 -23 21 -23q6 0 9 1l-30 -145q-24 -11 -58 -11q-45 0 -70 14q-26 13 -36 39
q-49 -58 -160 -58q-82 0 -132 40q-51 40 -51 102zM158 166q0 -29 51 -29q92 0 104 76l2 14q-9 -5 -20 -8q-9 -2 -36.5 -6t-36.5 -6q-64 -10 -64 -41zM264 552h-159l235 159l170 -159h-147l-40 50z" />
    <glyph glyph-name="atilde.alt" horiz-adv-x="569" 
d="M-27 130q0 86 65.5 131t202.5 58q58 6 77 11.5t19 20.5q0 12 -15.5 20t-40.5 8q-65 0 -133 -59l-92 96q90 104 237 104q106 0 162.5 -40.5t56.5 -115.5q0 -27 -4 -46l-26 -130q-2 -14 -2 -17q0 -23 21 -23q6 0 9 1l-30 -145q-24 -11 -58 -11q-45 0 -70 14q-26 13 -36 39
q-49 -58 -160 -58q-82 0 -132 40q-51 40 -51 102zM158 166q0 -29 51 -29q92 0 104 76l2 14q-9 -5 -20 -8q-9 -2 -36.5 -6t-36.5 -6q-64 -10 -64 -41zM187 557l-94 16q15 63 58.5 102t99.5 39q41 0 87 -25q46 -24 72 -24q37 0 59 49l95 -16q-17 -70 -59.5 -109t-102.5 -39
q-41 0 -89 24q-46 25 -72 25q-37 0 -54 -42z" />
    <glyph glyph-name="adieresis.alt" horiz-adv-x="569" 
d="M425 540q-34 0 -55.5 19.5t-21.5 49.5q0 36 27 62.5t65 26.5q34 0 56 -20t22 -51q0 -34 -27.5 -60.5t-65.5 -26.5zM215 540q-34 0 -55.5 19.5t-21.5 49.5q0 36 27 62.5t65 26.5q34 0 56 -20t22 -51q0 -34 -27.5 -60.5t-65.5 -26.5zM-27 130q0 86 65.5 131t202.5 58
q58 6 77 11.5t19 20.5q0 12 -15.5 20t-40.5 8q-65 0 -133 -59l-92 96q90 104 237 104q106 0 162.5 -40.5t56.5 -115.5q0 -27 -4 -46l-26 -130q-2 -14 -2 -17q0 -23 21 -23q6 0 9 1l-30 -145q-24 -11 -58 -11q-45 0 -70 14q-26 13 -36 39q-49 -58 -160 -58q-82 0 -132 40
q-51 40 -51 102zM158 166q0 -29 51 -29q92 0 104 76l2 14q-9 -5 -20 -8q-9 -2 -36.5 -6t-36.5 -6q-64 -10 -64 -41z" />
    <glyph glyph-name="amacron.alt" horiz-adv-x="569" 
d="M-27 130q0 86 65.5 131t202.5 58q58 6 77 11.5t19 20.5q0 12 -15.5 20t-40.5 8q-65 0 -133 -59l-92 96q90 104 237 104q106 0 162.5 -40.5t56.5 -115.5q0 -27 -4 -46l-26 -130q-2 -14 -2 -17q0 -23 21 -23q6 0 9 1l-30 -145q-24 -11 -58 -11q-45 0 -70 14q-26 13 -36 39
q-49 -58 -160 -58q-82 0 -132 40q-51 40 -51 102zM158 166q0 -29 51 -29q92 0 104 76l2 14q-9 -5 -20 -8q-9 -2 -36.5 -6t-36.5 -6q-64 -10 -64 -41zM481 557h-328l22 109h328z" />
    <glyph glyph-name="abreve.alt" horiz-adv-x="569" 
d="M-27 130q0 86 65.5 131t202.5 58q58 6 77 11.5t19 20.5q0 12 -15.5 20t-40.5 8q-65 0 -133 -59l-92 96q90 104 237 104q106 0 162.5 -40.5t56.5 -115.5q0 -27 -4 -46l-26 -130q-2 -14 -2 -17q0 -23 21 -23q6 0 9 1l-30 -145q-24 -11 -58 -11q-45 0 -70 14q-26 13 -36 39
q-49 -58 -160 -58q-82 0 -132 40q-51 40 -51 102zM158 166q0 -29 51 -29q92 0 104 76l2 14q-9 -5 -20 -8q-9 -2 -36.5 -6t-36.5 -6q-64 -10 -64 -41zM334 552q-83 0 -129.5 41t-46.5 106h124q8 -35 57 -35q47 0 67 35h124q-19 -61 -70 -104q-50 -43 -126 -43z" />
    <glyph glyph-name="aring.alt" horiz-adv-x="569" 
d="M-27 130q0 86 65.5 131t202.5 58q58 6 77 11.5t19 20.5q0 12 -15.5 20t-40.5 8q-65 0 -133 -59l-92 96q90 104 237 104q106 0 162.5 -40.5t56.5 -115.5q0 -27 -4 -46l-26 -130q-2 -14 -2 -17q0 -23 21 -23q6 0 9 1l-30 -145q-24 -11 -58 -11q-45 0 -70 14q-26 13 -36 39
q-49 -58 -160 -58q-82 0 -132 40q-51 40 -51 102zM158 166q0 -29 51 -29q92 0 104 76l2 14q-9 -5 -20 -8q-9 -2 -36.5 -6t-36.5 -6q-64 -10 -64 -41zM325 543q-55 0 -89 30.5t-34 78.5q0 55 43 97t104 42q55 0 89.5 -31.5t34.5 -80.5q0 -53 -43 -95q-44 -41 -105 -41z
M334 633q17 0 28 11t11 26q0 14 -9 22.5t-23 8.5q-16 0 -27.5 -11.5t-11.5 -26.5q0 -13 9 -21.5t23 -8.5z" />
    <glyph glyph-name="aringacute.alt" horiz-adv-x="569" 
d="M-27 130q0 86 65.5 131t202.5 58q58 6 77 11.5t19 20.5q0 12 -15.5 20t-40.5 8q-65 0 -133 -59l-92 96q90 104 237 104q106 0 162.5 -40.5t56.5 -115.5q0 -27 -4 -46l-26 -130q-2 -14 -2 -17q0 -23 21 -23q6 0 9 1l-30 -145q-24 -11 -58 -11q-45 0 -70 14q-26 13 -36 39
q-49 -58 -160 -58q-82 0 -132 40q-51 40 -51 102zM158 166q0 -29 51 -29q92 0 104 76l2 14q-9 -5 -20 -8q-9 -2 -36.5 -6t-36.5 -6q-64 -10 -64 -41zM328 543q-55 0 -89 30.5t-34 78.5q0 55 43 97q44 42 104 42q55 0 89.5 -31.5t34.5 -80.5q0 -53 -43 -95q-44 -41 -105 -41z
M337 633q17 0 28 11t11 26q0 14 -9 22.5t-23 8.5q-16 0 -27.5 -11.5t-11.5 -26.5q0 -13 9 -21.5t23 -8.5zM437 821h-136l78 145h190z" />
    <glyph glyph-name="aogonek.alt" horiz-adv-x="576" 
d="M-27 130q0 86 65.5 131t202.5 58q58 6 77 11.5t19 20.5q0 12 -15.5 20t-40.5 8q-65 0 -133 -59l-92 96q90 104 237 104q106 0 162.5 -40.5t56.5 -115.5q0 -27 -4 -46l-26 -130q-2 -14 -2 -17q0 -23 21 -23q6 0 9 1l-30 -145q-89 -47 -89 -91q0 -28 50 -28q19 0 54 7
l-48 -113q-17 -7 -42 -7q-59 0 -96 30.5t-37 78.5q0 37 24 64t73 54q-15 6 -17 7q-23 13 -36 40q-49 -58 -160 -58q-82 0 -132 40q-51 40 -51 102zM158 166q0 -29 51 -29q92 0 104 76l2 14q-9 -5 -20 -8q-9 -2 -36.5 -6t-36.5 -6q-64 -10 -64 -41z" />
    <glyph glyph-name="cacute.alt" horiz-adv-x="541" 
d="M-1 228q0 117 91 205q92 89 221 89q147 0 222 -109l-144 -105q-31 45 -86 45q-47 0 -83 -33t-36 -76q0 -38 27.5 -62.5t71.5 -24.5q49 0 87 38l112 -117q-87 -90 -213 -90q-118 0 -194 67t-76 173zM391 552h-136l78 145h190z" />
    <glyph glyph-name="ccircumflex.alt" horiz-adv-x="541" 
d="M-1 228q0 117 91 205q92 89 221 89q147 0 222 -109l-144 -105q-31 45 -86 45q-47 0 -83 -33t-36 -76q0 -38 27.5 -62.5t71.5 -24.5q49 0 87 38l112 -117q-87 -90 -213 -90q-118 0 -194 67t-76 173zM281 552h-159l235 159l170 -159h-147l-40 50z" />
    <glyph glyph-name="ccaron.alt" horiz-adv-x="541" 
d="M-1 228q0 117 91 205q92 89 221 89q147 0 222 -109l-144 -105q-31 45 -86 45q-47 0 -83 -33t-36 -76q0 -38 27.5 -62.5t71.5 -24.5q49 0 87 38l112 -117q-87 -90 -213 -90q-118 0 -194 67t-76 173zM558 704l-235 -159l-170 159h147l40 -50l59 50h159z" />
    <glyph glyph-name="cdotaccent.alt" horiz-adv-x="541" 
d="M337 541q-34 0 -56 20t-22 50q0 36 27.5 63.5t66.5 27.5q34 0 56.5 -20.5t22.5 -51.5q0 -36 -28 -62.5t-67 -26.5zM-1 228q0 117 91 205q92 89 221 89q147 0 222 -109l-144 -105q-31 45 -86 45q-47 0 -83 -33t-36 -76q0 -38 27.5 -62.5t71.5 -24.5q49 0 87 38l112 -117
q-87 -90 -213 -90q-118 0 -194 67t-76 173z" />
    <glyph glyph-name="ccedilla.alt" horiz-adv-x="541" 
d="M56 -194l48 72q16 -16 44 -16q15 0 26 10t11 23q0 29 -46 29h-1l46 75q-84 21 -134.5 83t-50.5 146q0 117 91 205q92 89 221 89q147 0 222 -109l-144 -105q-31 45 -86 45q-47 0 -83 -33t-36 -76q0 -38 27.5 -62.5t71.5 -24.5q49 0 87 38l112 -117q-86 -89 -209 -90h-1
l-21 -34q20 0 36 -19t16 -47q0 -50 -38.5 -83t-99.5 -33q-34 0 -65 9.5t-44 24.5z" />
    <glyph glyph-name="egrave.alt" horiz-adv-x="586" 
d="M-2 228q0 116 84 202q86 86 212 86q112 0 185 -65q72 -65 72 -164q0 -38 -14 -86h-358v-1q0 -26 30.5 -42t79.5 -16q74 0 123 40l85 -100q-97 -93 -242 -93q-115 0 -186 67q-71 68 -71 172zM187 313h188v1q0 26 -23 43.5t-60 17.5q-38 0 -67 -17.5t-38 -44.5zM406 552
h-135l-74 145h185z" />
    <glyph glyph-name="eacute.alt" horiz-adv-x="586" 
d="M-2 228q0 116 84 202q86 86 212 86q112 0 185 -65q72 -65 72 -164q0 -38 -14 -86h-358v-1q0 -26 30.5 -42t79.5 -16q74 0 123 40l85 -100q-97 -93 -242 -93q-115 0 -186 67q-71 68 -71 172zM187 313h188v1q0 26 -23 43.5t-60 17.5q-38 0 -67 -17.5t-38 -44.5zM385 552
h-136l78 145h190z" />
    <glyph glyph-name="ecircumflex.alt" horiz-adv-x="586" 
d="M-2 228q0 116 84 202q86 86 212 86q112 0 185 -65q72 -65 72 -164q0 -38 -14 -86h-358v-1q0 -26 30.5 -42t79.5 -16q74 0 123 40l85 -100q-97 -93 -242 -93q-115 0 -186 67q-71 68 -71 172zM187 313h188v1q0 26 -23 43.5t-60 17.5q-38 0 -67 -17.5t-38 -44.5zM286 552
h-159l235 159l170 -159h-147l-40 50z" />
    <glyph glyph-name="ecaron.alt" horiz-adv-x="586" 
d="M-2 228q0 116 84 202q86 86 212 86q112 0 185 -65q72 -65 72 -164q0 -38 -14 -86h-358v-1q0 -26 30.5 -42t79.5 -16q74 0 123 40l85 -100q-97 -93 -242 -93q-115 0 -186 67q-71 68 -71 172zM187 313h188v1q0 26 -23 43.5t-60 17.5q-38 0 -67 -17.5t-38 -44.5zM561 704
l-235 -159l-170 159h147l40 -50l59 50h159z" />
    <glyph glyph-name="edieresis.alt" horiz-adv-x="586" 
d="M441 540q-34 0 -55.5 19.5t-21.5 49.5q0 36 27 62.5t65 26.5q34 0 56 -20t22 -51q0 -34 -27.5 -60.5t-65.5 -26.5zM231 540q-34 0 -55.5 19.5t-21.5 49.5q0 36 27 62.5t65 26.5q34 0 56 -20t22 -51q0 -34 -27.5 -60.5t-65.5 -26.5zM-2 228q0 116 84 202q86 86 212 86
q112 0 185 -65q72 -65 72 -164q0 -38 -14 -86h-358v-1q0 -26 30.5 -42t79.5 -16q74 0 123 40l85 -100q-97 -93 -242 -93q-115 0 -186 67q-71 68 -71 172zM187 313h188v1q0 26 -23 43.5t-60 17.5q-38 0 -67 -17.5t-38 -44.5z" />
    <glyph glyph-name="emacron.alt" horiz-adv-x="586" 
d="M-2 228q0 116 84 202q86 86 212 86q112 0 185 -65q72 -65 72 -164q0 -38 -14 -86h-358v-1q0 -26 30.5 -42t79.5 -16q74 0 123 40l85 -100q-97 -93 -242 -93q-115 0 -186 67q-71 68 -71 172zM187 313h188v1q0 26 -23 43.5t-60 17.5q-38 0 -67 -17.5t-38 -44.5zM494 557
h-328l22 109h328z" />
    <glyph glyph-name="ebreve.alt" horiz-adv-x="586" 
d="M-2 228q0 116 84 202q86 86 212 86q112 0 185 -65q72 -65 72 -164q0 -38 -14 -86h-358v-1q0 -26 30.5 -42t79.5 -16q74 0 123 40l85 -100q-97 -93 -242 -93q-115 0 -186 67q-71 68 -71 172zM187 313h188v1q0 26 -23 43.5t-60 17.5q-38 0 -67 -17.5t-38 -44.5zM347 552
q-83 0 -129.5 41t-46.5 106h124q8 -35 57 -35q47 0 67 35h124q-19 -61 -70 -104q-50 -43 -126 -43z" />
    <glyph glyph-name="edotaccent.alt" horiz-adv-x="586" 
d="M331 541q-34 0 -56 20t-22 50q0 36 27.5 63.5t66.5 27.5q34 0 56.5 -20.5t22.5 -51.5q0 -36 -28 -62.5t-67 -26.5zM-2 228q0 116 84 202q86 86 212 86q112 0 185 -65q72 -65 72 -164q0 -38 -14 -86h-358v-1q0 -26 30.5 -42t79.5 -16q74 0 123 40l85 -100
q-97 -93 -242 -93q-115 0 -186 67q-71 68 -71 172zM187 313h188v1q0 26 -23 43.5t-60 17.5q-38 0 -67 -17.5t-38 -44.5z" />
    <glyph glyph-name="eogonek.alt" horiz-adv-x="586" 
d="M135 -119q0 38 24 66.5t64 43.5h-1q-101 9 -163 74q-61 64 -61 163q0 116 84 202q86 86 212 86q112 0 185 -65q72 -65 72 -164q0 -38 -14 -86h-358v-1q0 -26 30.5 -42t79.5 -16q74 0 123 40l85 -100q-53 -53 -143 -81q-48 -18 -72.5 -37t-27.5 -51q0 -28 50 -28
q19 0 54 7l-48 -113q-17 -7 -42 -7q-59 0 -96 30.5t-37 78.5zM187 313h188v1q0 26 -23 43.5t-60 17.5q-38 0 -67 -17.5t-38 -44.5z" />
    <glyph glyph-name="gcircumflex.alt" horiz-adv-x="635" 
d="M-43 -136l104 120q68 -53 149 -53q122 0 145 95l6 26q-37 -54 -141 -54q-90 0 -155 61q-66 61 -66 163q0 118 88 203t199 85q57 0 98 -16t50 -43l11 53h181l-94 -458l-10 -43q-3 -15 -15 -47q-11 -32 -24 -51q-37 -61 -90 -88q-72 -37 -168 -37q-181 0 -268 84zM186 243
q0 -38 27.5 -62.5t70.5 -24.5q50 0 82 31q34 31 34 73q0 38 -27.5 63t-70.5 25q-47 0 -82 -32q-34 -31 -34 -73zM323 552h-159l235 159l170 -159h-147l-40 50z" />
    <glyph glyph-name="gbreve.alt" horiz-adv-x="635" 
d="M-43 -136l104 120q68 -53 149 -53q122 0 145 95l6 26q-37 -54 -141 -54q-90 0 -155 61q-66 61 -66 163q0 118 88 203t199 85q57 0 98 -16t50 -43l11 53h181l-94 -458l-10 -43q-3 -15 -15 -47q-11 -32 -24 -51q-37 -61 -90 -88q-72 -37 -168 -37q-181 0 -268 84zM186 243
q0 -38 27.5 -62.5t70.5 -24.5q50 0 82 31q34 31 34 73q0 38 -27.5 63t-70.5 25q-47 0 -82 -32q-34 -31 -34 -73zM384 552q-83 0 -129.5 41t-46.5 106h124q8 -35 57 -35q47 0 67 35h124q-19 -61 -70 -104q-50 -43 -126 -43z" />
    <glyph glyph-name="gdotaccent.alt" horiz-adv-x="635" 
d="M378 541q-34 0 -56 20t-22 50q0 36 27.5 63.5t66.5 27.5q34 0 56.5 -20.5t22.5 -51.5q0 -36 -28 -62.5t-67 -26.5zM-43 -136l104 120q68 -53 149 -53q122 0 145 95l6 26q-37 -54 -141 -54q-90 0 -155 61q-66 61 -66 163q0 118 88 203t199 85q57 0 98 -16t50 -43l11 53
h181l-94 -458l-10 -43q-3 -15 -15 -47q-11 -32 -24 -51q-37 -61 -90 -88q-72 -37 -168 -37q-181 0 -268 84zM186 243q0 -38 27.5 -62.5t70.5 -24.5q50 0 82 31q34 31 34 73q0 38 -27.5 63t-70.5 25q-47 0 -82 -32q-34 -31 -34 -73z" />
    <glyph glyph-name="gcommaaccent.alt" horiz-adv-x="635" 
d="M-43 -136l104 120q68 -53 149 -53q122 0 145 95l6 26q-37 -54 -141 -54q-90 0 -155 61q-66 61 -66 163q0 118 88 203t199 85q57 0 98 -16t50 -43l11 53h181l-94 -458l-10 -43q-3 -15 -15 -47q-11 -32 -24 -51q-37 -61 -90 -88q-72 -37 -168 -37q-181 0 -268 84zM186 243
q0 -38 27.5 -62.5t70.5 -24.5q50 0 82 31q34 31 34 73q0 38 -27.5 63t-70.5 25q-47 0 -82 -32q-34 -31 -34 -73zM428 552h-136l78 145h190z" />
    <glyph glyph-name="jcircumflex.alt" horiz-adv-x="331" 
d="M176 552h-159l217 159l152 -159h-147l-22 50zM290 504l-142 -697h-185l142 697h185z" />
    <glyph glyph-name="kcommaaccent.alt" horiz-adv-x="582" 
d="M159 0h-184l142 697h184l-74 -361l170 168h219l-244 -237l153 -267h-196l-94 166l-53 -51zM70 -193l78 145h190l-132 -145h-136z" />
    <glyph glyph-name="lacute.alt" horiz-adv-x="327" 
d="M3 133q0 21 9 65l101 499h185l-98 -483q-3 -14 -3 -24q0 -41 47 -41q18 0 34 3l-32 -156q-29 -8 -81 -8q-74 0 -118 39.5t-44 105.5zM256 722h-136l78 145h190z" />
    <glyph glyph-name="lcaron.alt" horiz-adv-x="478" 
d="M3 133q0 21 9 65l101 499h185l-98 -483q-3 -14 -3 -24q0 -41 47 -41q18 0 34 3l-32 -156q-29 -8 -81 -8q-74 0 -118 39.5t-44 105.5zM422 552h-136l78 145h190z" />
    <glyph glyph-name="lcommaaccent.alt" horiz-adv-x="327" 
d="M3 133q0 21 9 65l101 499h185l-98 -483q-3 -14 -3 -24q0 -41 47 -41q18 0 34 3l-32 -156q-29 -8 -81 -8q-74 0 -118 39.5t-44 105.5zM-69 -193l78 145h190l-132 -145h-136z" />
    <glyph glyph-name="ldot.alt" horiz-adv-x="454" 
d="M3 133q0 21 9 65l101 499h185l-98 -483q-3 -14 -3 -24q0 -41 47 -41q18 0 34 3l-32 -156q-29 -8 -81 -8q-74 0 -118 39.5t-44 105.5zM336 279q-34 0 -56 20t-22 50q0 36 27.5 63.5t66.5 27.5q34 0 56.5 -20.5t22.5 -51.5q0 -36 -28 -62.5t-67 -26.5z" />
    <glyph glyph-name="lslash.alt" horiz-adv-x="361" 
d="M33 133q0 21 9 65l7 37l-76 -37l35 171l76 37l59 291h185l-42 -207l98 47l-35 -171l-98 -47l-21 -105q-3 -14 -3 -24q0 -41 47 -41q18 0 34 3l-32 -156q-29 -8 -81 -8q-74 0 -118 39.5t-44 105.5z" />
    <glyph glyph-name="racute.alt" horiz-adv-x="376" 
d="M156 0h-185l66 324q39 192 246 192q74 0 115 -10l-31 -154q-25 3 -56 3q-46 0 -67.5 -15.5t-28.5 -51.5zM294 552h-136l78 145h190z" />
    <glyph glyph-name="rcommaaccent.alt" horiz-adv-x="376" 
d="M156 0h-185l66 324q39 192 246 192q74 0 115 -10l-31 -154q-25 3 -56 3q-46 0 -67.5 -15.5t-28.5 -51.5zM-115 -193l78 145h190l-132 -145h-136z" />
    <glyph glyph-name="rcaron.alt" horiz-adv-x="376" 
d="M485 711l-225 -159l-160 159h147l30 -50l49 50h159zM156 0h-185l66 324q39 192 246 192q74 0 115 -10l-31 -154q-25 3 -56 3q-46 0 -67.5 -15.5t-28.5 -51.5z" />
    <glyph glyph-name="sacute.alt" horiz-adv-x="502" 
d="M-38 76l116 114q42 -50 138 -50q59 0 59 24q0 9 -23 14q-31 8 -62 14q-38 8 -67 23q-81 41 -81 124q0 75 64 127q65 53 162 53q113 0 195 -67l-93 -117q-50 38 -111 38q-48 0 -48 -26q0 -11 18 -17q13 -4 61 -16q45 -10 75 -22q83 -33 83 -125q0 -82 -68 -132t-184 -50
q-156 0 -234 91zM332 552h-136l78 145h190z" />
    <glyph glyph-name="scircumflex.alt" horiz-adv-x="502" 
d="M-38 76l116 114q42 -50 138 -50q59 0 59 24q0 9 -23 14q-31 8 -62 14q-38 8 -67 23q-81 41 -81 124q0 75 64 127q65 53 162 53q113 0 195 -67l-93 -117q-50 38 -111 38q-48 0 -48 -26q0 -11 18 -17q13 -4 61 -16q45 -10 75 -22q83 -33 83 -125q0 -82 -68 -132t-184 -50
q-156 0 -234 91zM234 552h-159l235 159l170 -159h-147l-40 50z" />
    <glyph glyph-name="scaron.alt" horiz-adv-x="502" 
d="M-38 76l116 114q42 -50 138 -50q59 0 59 24q0 9 -23 14q-31 8 -62 14q-38 8 -67 23q-81 41 -81 124q0 75 64 127q65 53 162 53q113 0 195 -67l-93 -117q-50 38 -111 38q-48 0 -48 -26q0 -11 18 -17q13 -4 61 -16q45 -10 75 -22q83 -33 83 -125q0 -82 -68 -132t-184 -50
q-156 0 -234 91zM512 704l-235 -159l-170 159h147l40 -50l59 50h159z" />
    <glyph glyph-name="scommaaccent.alt" horiz-adv-x="502" 
d="M-38 76l116 114q42 -50 138 -50q59 0 59 24q0 9 -23 14q-31 8 -62 14q-38 8 -67 23q-81 41 -81 124q0 75 64 127q65 53 162 53q113 0 195 -67l-93 -117q-50 38 -111 38q-48 0 -48 -26q0 -11 18 -17q13 -4 61 -16q45 -10 75 -22q83 -33 83 -125q0 -82 -68 -132t-184 -50
q-156 0 -234 91zM15 -193l78 145h190l-132 -145h-136z" />
    <glyph glyph-name="scedilla.alt" horiz-adv-x="502" 
d="M27 -194l48 72q16 -16 44 -16q15 0 26 10t11 23q0 29 -46 29h-1l39 64q-122 14 -186 88l116 114q42 -50 138 -50q59 0 59 24q0 9 -23 14q-31 8 -62 14q-38 8 -67 23q-81 41 -81 124q0 75 64 127q65 53 162 53q113 0 195 -67l-93 -117q-50 38 -111 38q-48 0 -48 -26
q0 -11 18 -17q13 -4 61 -16q45 -10 75 -22q83 -33 83 -125q0 -73 -54.5 -121t-149.5 -58l-22 -34q20 0 36 -19t16 -47q0 -50 -38.5 -83t-99.5 -33q-34 0 -65 9.5t-44 24.5z" />
    <glyph glyph-name="germandbls.alt" 
d="M160 0h-185l105 516q20 99 82.5 147.5t150.5 48.5q90 0 147 -48t57 -123q0 -47 -35 -85q46 -27 72.5 -74.5t26.5 -106.5q0 -116 -80 -202q-79 -85 -215 -85q-63 0 -96 9l32 161q13 -4 62 -4t83 32q34 33 34 75q0 39 -28.5 64t-72.5 25q-8 0 -40 -5l23 112q62 8 62 52
q0 16 -11 26t-28 10q-15 0 -27.5 -12t-16.5 -32z" />
    <glyph glyph-name="tcaron.alt" horiz-adv-x="505" 
d="M33 133q0 21 9 65l29 145h-67l33 161h67l39 193h185l-40 -193h107l-33 -161h-106l-26 -129q-3 -15 -3 -24q0 -41 47 -41q18 0 34 3l-32 -156q-29 -8 -81 -8q-74 0 -118 39.5t-44 105.5zM449 552h-136l78 145h190z" />
    <glyph glyph-name="tcommaaccent.alt" horiz-adv-x="372" 
d="M33 133q0 21 9 65l29 145h-67l33 161h67l39 193h185l-40 -193h107l-33 -161h-106l-26 -129q-3 -15 -3 -24q0 -41 47 -41q18 0 34 3l-32 -156q-29 -8 -81 -8q-74 0 -118 39.5t-44 105.5zM-46 -193l78 145h190l-132 -145h-136z" />
    <glyph glyph-name="tbar.alt" horiz-adv-x="376" 
d="M33 133q0 21 6 53h-61l29 141h61l5 24h-62l32 153h61l39 193h185l-39 -193h100l-32 -153h-99l-5 -24h100l-29 -141h-102v-1v-1q0 -35 37 -35q29 0 49 4l-32 -157q-29 -8 -81 -8q-74 0 -118 39.5t-44 105.5z" />
    <glyph glyph-name="ugrave.alt" horiz-adv-x="598" 
d="M5 155q0 22 5 50l62 299h185l-57 -282q-2 -18 -2 -20q0 -56 60 -56q70 0 85 81l56 277h185l-103 -504h-185l13 62q-53 -74 -138 -74q-78 0 -122 44.5t-44 122.5zM413 552h-135l-74 145h185z" />
    <glyph glyph-name="uacute.alt" horiz-adv-x="598" 
d="M5 155q0 22 5 50l62 299h185l-57 -282q-2 -18 -2 -20q0 -56 60 -56q70 0 85 81l56 277h185l-103 -504h-185l13 62q-53 -74 -138 -74q-78 0 -122 44.5t-44 122.5zM381 552h-136l78 145h190z" />
    <glyph glyph-name="ucircumflex.alt" horiz-adv-x="598" 
d="M5 155q0 22 5 50l62 299h185l-57 -282q-2 -18 -2 -20q0 -56 60 -56q70 0 85 81l56 277h185l-103 -504h-185l13 62q-53 -74 -138 -74q-78 0 -122 44.5t-44 122.5zM287 552h-159l235 159l170 -159h-147l-40 50z" />
    <glyph glyph-name="utilde.alt" horiz-adv-x="598" 
d="M5 155q0 22 5 50l62 299h185l-57 -282q-2 -18 -2 -20q0 -56 60 -56q70 0 85 81l56 277h185l-103 -504h-185l13 62q-53 -74 -138 -74q-78 0 -122 44.5t-44 122.5zM207 557l-94 16q15 63 58.5 102t99.5 39q41 0 87 -25q46 -24 72 -24q37 0 59 49l95 -16q-17 -70 -59.5 -109
t-102.5 -39q-41 0 -89 24q-46 25 -72 25q-37 0 -54 -42z" />
    <glyph glyph-name="udieresis.alt" horiz-adv-x="598" 
d="M443 540q-34 0 -55.5 19.5t-21.5 49.5q0 36 27 62.5t65 26.5q34 0 56 -20t22 -51q0 -34 -27.5 -60.5t-65.5 -26.5zM233 540q-34 0 -55.5 19.5t-21.5 49.5q0 36 27 62.5t65 26.5q34 0 56 -20t22 -51q0 -34 -27.5 -60.5t-65.5 -26.5zM5 155q0 22 5 50l62 299h185l-57 -282
q-2 -18 -2 -20q0 -56 60 -56q70 0 85 81l56 277h185l-103 -504h-185l13 62q-53 -74 -138 -74q-78 0 -122 44.5t-44 122.5z" />
    <glyph glyph-name="umacron.alt" horiz-adv-x="598" 
d="M5 155q0 22 5 50l62 299h185l-57 -282q-2 -18 -2 -20q0 -56 60 -56q70 0 85 81l56 277h185l-103 -504h-185l13 62q-53 -74 -138 -74q-78 0 -122 44.5t-44 122.5zM493 557h-328l22 109h328z" />
    <glyph glyph-name="ubreve.alt" horiz-adv-x="598" 
d="M5 155q0 22 5 50l62 299h185l-57 -282q-2 -18 -2 -20q0 -56 60 -56q70 0 85 81l56 277h185l-103 -504h-185l13 62q-53 -74 -138 -74q-78 0 -122 44.5t-44 122.5zM350 552q-83 0 -129.5 41t-46.5 106h124q8 -35 57 -35q47 0 67 35h124q-19 -61 -70 -104q-50 -43 -126 -43z
" />
    <glyph glyph-name="uring.alt" horiz-adv-x="598" 
d="M5 155q0 22 5 50l62 299h185l-57 -282q-2 -18 -2 -20q0 -56 60 -56q70 0 85 81l56 277h185l-103 -504h-185l13 62q-53 -74 -138 -74q-78 0 -122 44.5t-44 122.5zM334 543q-55 0 -89 30.5t-34 78.5q0 55 43 97q44 42 104 42q55 0 89.5 -31.5t34.5 -80.5q0 -53 -43 -95
q-44 -41 -105 -41zM343 633q17 0 28 11t11 26q0 14 -9 22.5t-23 8.5q-16 0 -27.5 -11.5t-11.5 -26.5q0 -13 9 -21.5t23 -8.5z" />
    <glyph glyph-name="uhungarumlaut.alt" horiz-adv-x="598" 
d="M474 552h-127l104 145h179zM279 552h-127l104 145h179zM5 155q0 22 5 50l62 299h185l-57 -282q-2 -18 -2 -20q0 -56 60 -56q70 0 85 81l56 277h185l-103 -504h-185l13 62q-53 -74 -138 -74q-78 0 -122 44.5t-44 122.5z" />
    <glyph glyph-name="uogonek.alt" horiz-adv-x="598" 
d="M5 155q0 22 5 50l62 299h185l-57 -282q-2 -18 -2 -20q0 -56 60 -56q68 0 85 81l56 277h185l-103 -504q-84 -46 -84 -87q0 -28 50 -28q19 0 54 7l-48 -113q-17 -7 -42 -7q-59 0 -96 30.5t-37 78.5q0 37 24.5 64.5t74.5 54.5h-81l13 62q-53 -74 -138 -74q-78 0 -122 44.5
t-44 122.5z" />
    <glyph glyph-name="ygrave.alt" horiz-adv-x="635" 
d="M163 -28l1 3l-125 529h186l66 -294l172 294h198l-315 -535q-31 -55 -49 -78q-18 -27 -48 -57q-54 -55 -148 -55q-65 0 -96 14l30 149q33 -11 64 -11q50 0 64 41zM430 552h-135l-74 145h185z" />
    <glyph glyph-name="yacute.alt" horiz-adv-x="635" 
d="M163 -28l1 3l-125 529h186l66 -294l172 294h198l-315 -535q-31 -55 -49 -78q-18 -27 -48 -57q-54 -55 -148 -55q-65 0 -96 14l30 149q33 -11 64 -11q50 0 64 41zM394 552h-136l78 145h190z" />
    <glyph glyph-name="ycircumflex.alt" horiz-adv-x="635" 
d="M163 -28l1 3l-125 529h186l66 -294l172 294h198l-315 -535q-31 -55 -49 -78q-18 -27 -48 -57q-54 -55 -148 -55q-65 0 -96 14l30 149q33 -11 64 -11q50 0 64 41zM304 552h-159l235 159l170 -159h-147l-40 50z" />
    <glyph glyph-name="ydieresis.alt" horiz-adv-x="635" 
d="M457 540q-34 0 -55.5 19.5t-21.5 49.5q0 36 27 62.5t65 26.5q34 0 56 -20t22 -51q0 -34 -27.5 -60.5t-65.5 -26.5zM247 540q-34 0 -55.5 19.5t-21.5 49.5q0 36 27 62.5t65 26.5q34 0 56 -20t22 -51q0 -34 -27.5 -60.5t-65.5 -26.5zM163 -28l1 3l-125 529h186l66 -294
l172 294h198l-315 -535q-31 -55 -49 -78q-18 -27 -48 -57q-54 -55 -148 -55q-65 0 -96 14l30 149q33 -11 64 -11q50 0 64 41z" />
    <glyph glyph-name="wgrave.alt" horiz-adv-x="873" 
d="M396 183l-168 -210l-210 531h175l97 -240l41 46l-81 194h157l30 -72l57 72h166l-158 -197l25 -52l201 249h191l-427 -535zM548 552h-135l-74 145h185z" />
    <glyph glyph-name="wacute.alt" horiz-adv-x="873" 
d="M396 183l-168 -210l-210 531h175l97 -240l41 46l-81 194h157l30 -72l57 72h166l-158 -197l25 -52l201 249h191l-427 -535zM497 552h-136l78 145h190z" />
    <glyph glyph-name="wcircumflex.alt" horiz-adv-x="873" 
d="M396 183l-168 -210l-210 531h175l97 -240l41 46l-81 194h157l30 -72l57 72h166l-158 -197l25 -52l201 249h191l-427 -535zM414 552h-159l235 159l170 -159h-147l-40 50z" />
    <glyph glyph-name="wdieresis.alt" horiz-adv-x="873" 
d="M567 540q-34 0 -55.5 19.5t-21.5 49.5q0 36 27 62.5t65 26.5q34 0 56 -20t22 -51q0 -34 -27.5 -60.5t-65.5 -26.5zM357 540q-34 0 -55.5 19.5t-21.5 49.5q0 36 27 62.5t65 26.5q34 0 56 -20t22 -51q0 -34 -27.5 -60.5t-65.5 -26.5zM396 183l-168 -210l-210 531h175
l97 -240l41 46l-81 194h157l30 -72l57 72h166l-158 -197l25 -52l201 249h191l-427 -535z" />
    <glyph glyph-name="fj.alt" horiz-adv-x="679" 
d="M219 0h-185l70 343h-84l33 161h84l13 57q20 74 89.5 112t174.5 38q84 0 131 -10l-28 -142q-37 6 -92 6q-51 0 -73 -11t-31 -41l-1 -9h345l-142 -697h-185l109 536h-158z" />
    <glyph glyph-name="fl.alt" horiz-adv-x="733" 
d="M219 0h-185l70 343h-84l33 161h84l13 57q17 73 76 111.5t148 38.5q55 0 91 -10l-28 -142q-23 6 -52 6q-33 0 -47 -11t-20 -41l-1 -9h100l-33 -161h-95zM409 133q0 21 9 65l101 499h185l-98 -483q-3 -14 -3 -24q0 -41 47 -41q18 0 34 3l-32 -156q-29 -8 -81 -8
q-74 0 -118 39.5t-44 105.5z" />
    <glyph glyph-name="ffj.alt" horiz-adv-x="1020" 
d="M219 0h-185l70 343h-84l33 161h84l13 57q17 73 76 111.5t148 38.5q50 0 81 -10l-28 -142q-18 6 -42 6q-31 0 -44.5 -11.5t-19.5 -40.5l-1 -9h158l13 57q20 74 89.5 112t174.5 38q84 0 131 -10l-28 -142q-38 6 -92 6q-51 0 -73 -11t-31 -41l-1 -9h345l-142 -697h-185
l109 536h-158l-70 -343h-185l70 343h-156z" />
    <glyph glyph-name="ffl.alt" horiz-adv-x="1084" 
d="M219 0h-185l70 343h-84l33 161h84l13 57q17 73 76 111.5t148 38.5q50 0 81 -10l-28 -142q-18 6 -42 6q-31 0 -44.5 -11.5t-19.5 -40.5l-1 -9h168l13 57q17 73 76 111.5t148 38.5q55 0 91 -10l-28 -142q-22 6 -52 6q-31 0 -44.5 -11.5t-19.5 -40.5l-1 -9h97l-33 -161h-95
l-70 -343h-185l70 343h-166zM760 133q0 21 9 65l101 499h185l-98 -483q-3 -14 -3 -24q0 -41 47 -41q17 0 34 3l-32 -156q-29 -8 -81 -8q-74 0 -118 39.5t-44 105.5z" />
    <glyph glyph-name="zero.onum" horiz-adv-x="620" 
d="M7 206q0 30 9 74q19 87 66.5 142.5t105 76.5t127.5 21q117 0 187 -64q70 -63 70 -159q0 -33 -9 -73q-29 -125 -109 -183q-79 -57 -190 -57q-116 0 -187 63q-70 63 -70 159zM191 215q0 -30 23.5 -49t66.5 -19q87 0 107 90q6 27 6 47q0 29 -24 48.5t-67 19.5
q-85 0 -107 -91q-5 -25 -5 -46z" />
    <glyph glyph-name="one.onum" horiz-adv-x="437" 
d="M305 0h-188l52 255l-115 -46l-52 156l413 176z" />
    <glyph glyph-name="two.onum" horiz-adv-x="563" 
d="M467 0h-538l379 276q31 22 31 45q0 17 -17.5 28.5t-45.5 11.5q-34 0 -59 -19.5t-34 -57.5h-167q25 124 99.5 180.5t176.5 56.5q100 0 163 -48q64 -48 64 -122q0 -36 -17 -68q-27 -49 -87 -89l-32 -22h119z" />
    <glyph glyph-name="three.onum" horiz-adv-x="567" 
d="M-68 3l166 99q27 -64 102 -64q44 0 74 22t30 52q0 26 -31 43t-80 17q-64 0 -115 -10l160 170h-186l35 172h494l-204 -218l-2 -2q56 -17 88.5 -58.5t32.5 -97.5q0 -108 -87 -184q-85 -76 -218 -76q-86 0 -160 38q-73 37 -99 97z" />
    <glyph glyph-name="four.onum" horiz-adv-x="645" 
d="M328 0h-388l318 504h200l-216 -343h119l26 127h185l-85 -418h-185z" />
    <glyph glyph-name="five.onum" horiz-adv-x="562" 
d="M-57 12l170 94q8 -29 35 -48.5t60 -19.5q38 0 64.5 19.5t26.5 46.5q0 59 -121 59q-92 0 -171 -15l133 356h377l-35 -172h-233l-16 -42q9 3 28 3q100 0 163 -51q64 -51 64 -130q0 -100 -83 -172t-209 -72q-85 0 -159 41q-73 40 -94 103z" />
    <glyph glyph-name="six.onum" horiz-adv-x="573" 
d="M-7 216q0 26 10 76q5 19 33 65q6 11 24 33q8 9 17 20l9 12l33 36l34 39l179 200h209l-195 -222h1q84 -13 137 -69q52 -55 52 -137q0 -111 -84 -194q-82 -82 -210 -82q-109 0 -180 62q-69 63 -69 161zM181 234q0 -32 20.5 -51.5t53.5 -19.5q38 0 64 26t26 60
q0 32 -21 52.5t-54 20.5q-36 0 -62.5 -26.5t-26.5 -61.5z" />
    <glyph glyph-name="seven.onum" horiz-adv-x="557" 
d="M155 -193h-202l338 525h-272l35 172h546z" />
    <glyph glyph-name="eight.onum" horiz-adv-x="591" 
d="M0 216q0 59 35.5 111t94.5 81q-28 34 -28 79q2 89 72 153q70 66 172 66q90 0 149 -53q58 -52 58 -135q0 -38 -18.5 -72.5t-49.5 -55.5q60 -56 60 -138q0 -106 -83 -183q-82 -76 -210 -76q-111 0 -182 62q-70 63 -70 161zM322 445q27 0 45 17.5t18 41.5q0 20 -15.5 33
t-39.5 13t-42.5 -17t-18.5 -38q0 -23 14.5 -36.5t38.5 -13.5zM192 231q0 -30 21 -49t54 -19q37 0 63 24t26 56q0 30 -22 49.5t-56 19.5q-35 0 -60.5 -24.5t-25.5 -56.5z" />
    <glyph glyph-name="nine.onum" horiz-adv-x="577" 
d="M246 0h-212l198 228h-1q-79 0 -136 58t-57 143q0 109 87 192q88 83 208 83q109 0 179 -63t70 -161q0 -26 -11 -68q-3 -12 -33 -62q-6 -10 -24 -33q-6 -8 -14.5 -18.5t-10.5 -13.5l-31 -35l-32 -37zM305 375q37 0 63 26.5t26 61.5q0 31 -21 51t-53 20q-36 0 -63 -26
t-27 -60q0 -32 21 -52.5t54 -20.5z" />
    <glyph glyph-name="zero.tnum" horiz-adv-x="579" 
d="M27 207q0 30 10 80l35 174q25 128 102 187q76 58 176 58q106 0 169 -63q64 -61 64 -156q0 -28 -11 -80l-35 -173q-25 -129 -100.5 -187t-176.5 -58q-106 0 -170 62q-63 61 -63 156zM208 218q0 -27 17.5 -45t48.5 -18q63 0 81 84l43 209l1 6q1 5 1.5 12t0.5 11
q0 28 -17.5 46t-48.5 18q-63 0 -81 -85l-44 -209q-2 -24 -2 -29z" />
    <glyph glyph-name="one.tnum" horiz-adv-x="579" 
d="M377 0h-188l91 448l-131 -53l-52 156l429 183z" />
    <glyph glyph-name="two.tnum" horiz-adv-x="579" 
d="M464 0h-539l388 381l42 42q37 35 33 63q0 26 -19.5 43.5t-49.5 17.5q-34 0 -58 -23t-32 -67h-167q24 131 98 190q75 60 174 60q100 0 161 -58q63 -59 63 -148q0 -32 -4 -52q-4 -26 -28 -65t-62 -74l-150 -138h185z" />
    <glyph glyph-name="three.tnum" horiz-adv-x="579" 
d="M-21 130l162 97q25 -64 102 -64q48 0 77.5 24.5t29.5 61.5q0 33 -32 52t-89 19q-63 0 -114 -10l192 215h-196l35 172h492l-224 -259l-1 -1q58 -14 93.5 -61t35.5 -112q0 -112 -87 -192q-85 -79 -223 -79q-85 0 -155 37q-71 38 -98 100z" />
    <glyph glyph-name="four.tnum" horiz-adv-x="579" 
d="M317 118h-365l332 579h202l-243 -413h108l25 122h185l-83 -406h-185z" />
    <glyph glyph-name="five.tnum" horiz-adv-x="579" 
d="M-47 135l170 94q7 -29 38 -47.5t70 -18.5q45 0 73.5 23t28.5 59q0 30 -35.5 50t-92.5 20q-87 0 -161 -15l140 397h378l-35 -172h-230l-24 -61h9q107 0 174 -58q68 -59 68 -148q0 -111 -86 -188t-225 -77q-90 0 -165 39q-74 41 -95 103z" />
    <glyph glyph-name="six.tnum" horiz-adv-x="579" 
d="M1 228q0 51 16 92q17 43 39 71q29 37 78 95l187 218h213l-184 -208h1q65 0 130 -61q66 -61 66 -153q0 -112 -86 -198q-85 -84 -210 -84q-110 0 -180 64t-70 164zM189 245q0 -33 20.5 -54t53.5 -21q38 0 65 27.5t27 64.5q0 34 -21 55.5t-55 21.5q-38 0 -64 -28.5
t-26 -65.5z" />
    <glyph glyph-name="seven.tnum" horiz-adv-x="579" 
d="M194 0h-201l368 525h-292l35 172h568z" />
    <glyph glyph-name="eight.tnum" horiz-adv-x="579" 
d="M2 216q0 58 34 109.5t91 80.5q-29 35 -29 81q2 89 70 153q69 66 168 66q88 0 144 -53q57 -53 57 -135q0 -80 -62 -126q60 -56 60 -140q0 -106 -81 -183q-79 -76 -206 -76q-107 0 -177 62q-69 63 -69 161zM312 445q24 0 40.5 17.5t16.5 41.5q0 20 -13.5 33t-35.5 13
q-23 0 -39 -16.5t-16 -38.5t13 -36t34 -14zM194 231q0 -30 19.5 -49t49.5 -19q35 0 59 23.5t24 56.5q0 30 -20.5 49.5t-51.5 19.5q-33 0 -56.5 -24t-23.5 -57z" />
    <glyph glyph-name="nine.tnum" horiz-adv-x="579" 
d="M256 0h-213l184 208h-1q-65 0 -130 61q-66 61 -66 153q0 113 85 197q85 85 211 85q109 0 180 -65q70 -64 70 -163q0 -49 -17 -92q-18 -46 -38 -71q-29 -37 -78 -95zM298 365q38 0 64 28.5t26 65.5q0 33 -20.5 54t-53.5 21q-38 0 -65 -27.5t-27 -64.5q0 -34 21 -55.5
t55 -21.5z" />
    <glyph glyph-name="four.alt" horiz-adv-x="587" 
d="M-48 84l32 165l585 479l-100 -494h83l-31 -150h-83l-17 -84h-174l17 84h-312zM316 337l-144 -105h122z" />
    <glyph glyph-name="four.onum.alt" horiz-adv-x="580" 
d="M-61 0l39 194l544 341l-78 -385h83l-31 -150h-83l-26 -130h-174l26 130h-300zM288 241l-156 -93h137z" />
    <glyph glyph-name="four.tnum.alt" horiz-adv-x="579" 
d="M-44 84l32 165l573 479l-100 -494h83l-31 -150h-83l-17 -84h-174l17 84h-300zM308 337l-132 -105h110z" />
    <glyph glyph-name="foursuperior.alt" horiz-adv-x="364" 
d="M10 364l21 100l345 251l-51 -255h45l-20 -96h-45l-7 -36h-111l7 36h-184zM224 510l-72 -52h61z" />
    <glyph glyph-name="four.inferior.alt" horiz-adv-x="364" 
d="M-57 36l21 100l345 251l-51 -255h45l-20 -96h-45l-7 -36h-111l7 36h-184zM157 182l-72 -52h61z" />
    <glyph glyph-name="onequarter.alt" horiz-adv-x="708" 
d="M143 0h-175l616 697h175zM208 328h-133l51 252h-59l24 117h192zM287 36l21 100l345 251l-51 -255h45l-20 -96h-45l-7 -36h-111l7 36h-184zM501 182l-72 -52h61z" />
    <glyph glyph-name="threequarters.alt" horiz-adv-x="731" 
d="M187 0h-175l616 697h175zM19 387l110 70q10 -19 38 -19q38 0 38 28q0 26 -56 26q-10 0 -58 -6l90 94h-101l24 117h284l-125 -140h1q34 -9 54.5 -33.5t20.5 -56.5q0 -63 -48 -103.5t-127 -40.5q-46 0 -86.5 17.5t-58.5 46.5zM310 36l21 100l345 251l-51 -255h45l-20 -96
h-45l-7 -36h-111l7 36h-184zM524 182l-72 -52h61z" />
    <glyph glyph-name="published" horiz-adv-x="807" 
d="M21 304q-3 107 52.5 203.5t152.5 154.5t208 56q155 0 252 -94q98 -93 98 -238q0 -164 -119 -286t-298 -122q-152 0 -249 91t-97 235zM155 316q0 -94 63 -154t162 -60q115 0 193 81q79 82 79 187q0 95 -64 156q-65 62 -164 62q-111 0 -190 -82t-79 -190zM353 165h-114
l72 355h143q55 0 90 -33.5t35 -84.5q0 -58 -43 -101q-42 -44 -105 -44h-60zM404 418l-12 -58h41q13 0 22.5 10t9.5 23q0 11 -7.5 18t-18.5 7h-35z" />
    <glyph glyph-name="colon.case" horiz-adv-x="246" 
d="M140 383q-39 0 -64 23.5t-25 60.5q0 44 31 75q32 33 76 33q40 0 65 -24t25 -62q0 -43 -31 -74q-32 -32 -77 -32zM87 121q-39 0 -64 23.5t-25 60.5q0 44 31 75q31 33 76 33q40 0 65 -24t25 -62q0 -43 -31 -74q-32 -32 -77 -32z" />
    <glyph glyph-name="semicolon.case" horiz-adv-x="286" 
d="M168 383q-39 0 -64 23.5t-25 60.5q0 44 31 75q32 33 76 33q40 0 65 -24t25 -62q0 -43 -31 -74q-32 -32 -77 -32zM228 239l-175 -239h-132l136 239h171z" />
    <glyph glyph-name="bullet.case" horiz-adv-x="406" 
d="M190 212q-56 0 -91.5 33.5t-35.5 86.5q0 60 45 106t107 46q56 0 92 -34.5t36 -87.5q0 -58 -44 -105q-43 -45 -109 -45z" />
    <glyph glyph-name="periodcentered.case" horiz-adv-x="226" 
d="M104 252q-39 0 -64 23.5t-25 60.5q0 44 31 75q32 33 76 33q40 0 65 -24t25 -62q0 -43 -31 -74q-32 -32 -77 -32z" />
    <glyph glyph-name="guilsinglleft.case" horiz-adv-x="372" 
d="M287 156h-171l-87 192l166 192h186l-177 -201z" />
    <glyph glyph-name="guilsinglright.case" horiz-adv-x="372" 
d="M174 156h-186l177 201l-83 183h171l87 -192z" />
    <glyph glyph-name="guillemotleft.case" horiz-adv-x="643" 
d="M562 156h-171l-87 192l166 192h186l-177 -201zM287 156h-171l-87 192l166 192h186l-177 -201z" />
    <glyph glyph-name="guillemotright.case" horiz-adv-x="643" 
d="M448 156h-186l177 201l-83 183h171l87 -192zM174 156h-186l177 201l-83 183h171l87 -192z" />
    <glyph glyph-name="slash.case" horiz-adv-x="480" 
d="M580 778l-505 -859h-168l505 859h168z" />
    <glyph glyph-name="backslash.case" horiz-adv-x="480" 
d="M402 -81h-157l-166 859h158z" />
    <glyph glyph-name="hyphen.case" horiz-adv-x="460" 
d="M407 270h-386l32 156h386z" />
    <glyph glyph-name="endash.case" horiz-adv-x="587" 
d="M534 270h-513l32 156h513z" />
    <glyph glyph-name="emdash.case" horiz-adv-x="738" 
d="M685 270h-664l32 156h664z" />
    <glyph glyph-name="parenleft.case" horiz-adv-x="343" 
d="M277 -52l-98 -87q-160 148 -160 388q0 174 89 332q88 157 237 250l65 -93q-107 -88 -170 -216q-62 -129 -62 -269q0 -177 99 -305z" />
    <glyph glyph-name="parenright.case" horiz-adv-x="342" 
d="M-5 -149l-65 93q108 88 169 215q63 129 63 270q0 178 -99 305l98 87q160 -148 160 -388q0 -174 -89 -332q-88 -157 -237 -250z" />
    <glyph glyph-name="bracketleft.case" horiz-adv-x="408" 
d="M294 666l-129 -635h172l-32 -156h-346l193 947h346l-32 -156h-172z" />
    <glyph glyph-name="bracketright.case" horiz-adv-x="408" 
d="M-59 31h172l129 635h-172l32 156h346l-193 -947h-346z" />
    <glyph glyph-name="braceleft.case" horiz-adv-x="390" 
d="M43 46l36 176l1 4q0 5 1 10.5t1 8.5q0 27 -19.5 44.5t-51.5 17.5l17 82q84 0 101 78l42 206q22 109 129 109h143l-31 -149h-39q-44 0 -53 -44l-24 -119q-12 -57 -46.5 -87.5t-84.5 -34.5q39 -5 61.5 -29.5t22.5 -60.5q0 -13 -4 -33l-22 -106q-2 -14 -2 -15
q0 -18 13 -29.5t34 -11.5h29l-31 -149h-117q-50 0 -80.5 27t-30.5 70q0 3 5 35z" />
    <glyph glyph-name="braceright.case" horiz-adv-x="390" 
d="M69 107l24 119q12 57 46.5 87.5t84.5 34.5q-39 5 -61.5 29.5t-22.5 60.5q0 13 4 33l22 106q2 14 2 15q0 18 -13 29.5t-34 11.5h-29l31 149h117q50 0 80.5 -27t30.5 -70q0 -3 -5 -35l-36 -176l-1 -4q-1 -5 -1.5 -10.5t-0.5 -8.5q0 -27 19.5 -44.5t51.5 -17.5l-17 -82
q-85 0 -101 -78l-42 -206q-22 -109 -129 -109h-143l31 149h39q44 0 53 44z" />
    <glyph glyph-name="exclamdown.case" horiz-adv-x="312" 
d="M200 515q-39 0 -64 23.5t-25 60.5q0 44 31 75q32 33 76 33q40 0 65 -24t25 -62q0 -43 -31 -74q-32 -32 -77 -32zM193 0h-217l127 490h161z" />
    <glyph glyph-name="questiondown.case" horiz-adv-x="457" 
d="M272 529q-39 0 -63.5 23t-24.5 59q0 40 30 70q31 31 75 31q38 0 62.5 -22.5t24.5 -57.5q0 -41 -31 -72t-73 -31zM-19 137q0 117 144 171q60 22 72 32q8 8 8 18q0 19 -36 19q-31 0 -75 -14l27 133q45 20 103 20q71 0 116 -39t45 -100q0 -117 -144 -173q-35 -13 -37 -14
q-28 -9 -28 -18q0 -16 39 -16q78 0 166 47l-35 -170q-66 -45 -156 -45q-92 0 -151 42q-58 42 -58 107z" />
    <glyph glyph-name="at.case" horiz-adv-x="803" 
d="M23 316q0 158 122 280q121 121 291 121q152 0 250 -90q98 -89 98 -227q0 -102 -67 -181q-66 -79 -163 -79q-65 0 -95 41q-16 22 -16 51q-29 -45 -94 -45q-49 0 -88 39q-38 41 -38 104q0 73 52 125t116 52q70 0 77 -31l6 27h128l-44 -220q-1 -1 -1 -7q0 -21 19 -21
q31 0 50 40q21 40 21 92q0 87 -63 143q-62 57 -160 57q-108 0 -184 -79q-76 -77 -76 -181q0 -94 61 -152q62 -59 159 -59q42 0 71 13l28 -119q-43 -24 -111 -24q-154 0 -252 92q-97 93 -97 238zM400 306q19 0 32.5 13t13.5 27q0 19 -11 31t-29 12q-35 2 -44 -31
q-8 -29 12 -45q11 -9 26 -7z" />
    <glyph glyph-name="Agrave.alt1" horiz-adv-x="770" 
d="M516 600h-171l-60 97h213zM192 91l-64 -91h-200l421 583h167l184 -583h-184l-26 91h-298zM406 404l-116 -166h163z" />
    <glyph glyph-name="Aacute.alt1" horiz-adv-x="770" 
d="M525 600h-172l56 97h214zM192 91l-64 -91h-200l421 583h167l184 -583h-184l-26 91h-298zM406 404l-116 -166h163z" />
    <glyph glyph-name="Acircumflex.alt1" horiz-adv-x="770" 
d="M395 600h-179l243 112l189 -112h-167l-34 39zM192 91l-64 -91h-200l421 583h167l184 -583h-184l-26 91h-298zM406 404l-116 -166h163z" />
    <glyph glyph-name="Atilde.alt1" horiz-adv-x="770" 
d="M328 592l-93 13q35 99 135 99q38 0 87 -12q53 -11 63 -11q25 0 35 25l94 -16q-26 -92 -118 -92q-39 0 -94 9q-53 10 -69 10q-27 0 -40 -25zM192 91l-64 -91h-200l421 583h167l184 -583h-184l-26 91h-298zM406 404l-116 -166h163z" />
    <glyph glyph-name="Adieresis.alt1" horiz-adv-x="770" 
d="M128 0h-200l537 744l235 -744h-184l-26 91h-298zM616 575q-34 0 -55.5 19.5t-21.5 49.5q0 36 27 62.5t65 26.5q34 0 56 -20t22 -51q0 -34 -27.5 -60.5t-65.5 -26.5zM246 575q-34 0 -55.5 19.5t-21.5 49.5q0 36 27 62.5t65 26.5q34 0 56 -20t22 -51q0 -34 -27.5 -60.5
t-65.5 -26.5zM406 404l-116 -166h163z" />
    <glyph glyph-name="Amacron.alt1" horiz-adv-x="770" 
d="M606 600h-346l20 97h346zM192 91l-64 -91h-200l421 583h167l184 -583h-184l-26 91h-298zM406 404l-116 -166h163z" />
    <glyph glyph-name="Abreve.alt1" horiz-adv-x="770" 
d="M439 600q-72 0 -113 28t-41 69h120q5 -20 45 -20q38 0 53 20h124q-47 -97 -188 -97zM192 91l-64 -91h-200l421 583h167l184 -583h-184l-26 91h-298zM406 404l-116 -166h163z" />
    <glyph glyph-name="Aring.alt1" horiz-adv-x="770" 
d="M192 91l-64 -91h-200l370 512q-11 25 -11 50q0 60 46 103q47 45 110 45q58 0 95 -33.5t37 -85.5q0 -49 -34 -89l159 -502h-184l-26 91h-298zM427 538q21 0 34.5 13t13.5 31q0 17 -11 27.5t-29 10.5q-19 0 -33 -14t-14 -32q0 -16 11 -26t28 -10zM406 404l-116 -166h163z
" />
    <glyph glyph-name="Aringacute.alt1" horiz-adv-x="770" 
d="M192 91l-64 -91h-200l348 481q-2 18 -2 21q0 60 46 105t112 45q16 0 31 -3l28 48h190l-124 -122q8 -22 8 -43q0 -29 -15 -56l150 -476h-184l-26 91h-298zM416 478q21 0 34.5 13t13.5 32q0 17 -11 27.5t-29 10.5q-19 0 -33.5 -14t-14.5 -33q0 -16 11 -26t29 -10zM406 404
l-116 -166h163z" />
    <glyph glyph-name="Aogonek.alt1" horiz-adv-x="770" 
d="M128 0h-200l537 744l185 -585q-51 -21 -51 -53q0 -23 40 -23q29 0 60 10l-40 -99q-36 -14 -83 -14q-43 0 -71.5 20.5t-28.5 52.5q0 20 14 37l2 1h-300zM406 404l-116 -166h163z" />
    <glyph glyph-name="AEacute.alt1" horiz-adv-x="960" 
d="M652 600h-172l56 97h214zM192 91l-96 -91h-213l591 583h486l-35 -169h-244l-9 -44h225l-30 -150h-225l-11 -54h252l-34 -166h-439l19 91h-237zM496 397l-159 -159h121z" />
    <glyph glyph-name="Cacute.alt1" horiz-adv-x="634" 
d="M483 600h-172l56 97h214zM12 265q0 127 111 225q112 97 266 97q152 0 238 -77l-37 -184q-84 91 -214 91q-68 0 -120 -41q-50 -41 -50 -95q0 -53 42 -87t109 -34q115 0 209 51l-36 -176q-74 -45 -189 -45q-145 0 -237 77t-92 198z" />
    <glyph glyph-name="Ccircumflex.alt1" horiz-adv-x="634" 
d="M368 600h-179l243 112l189 -112h-167l-34 39zM12 265q0 127 111 225q112 97 266 97q152 0 238 -77l-37 -184q-84 91 -214 91q-68 0 -120 -41q-50 -41 -50 -95q0 -53 42 -87t109 -34q115 0 209 51l-36 -176q-74 -45 -189 -45q-145 0 -237 77t-92 198z" />
    <glyph glyph-name="Ccaron.alt1" horiz-adv-x="634" 
d="M648 697l-243 -109l-189 109h167l34 -39l52 39h179zM12 265q0 127 111 225q112 97 266 97q152 0 238 -77l-37 -184q-84 91 -214 91q-68 0 -120 -41q-50 -41 -50 -95q0 -53 42 -87t109 -34q115 0 209 51l-36 -176q-74 -45 -189 -45q-145 0 -237 77t-92 198z" />
    <glyph glyph-name="Cdotaccent.alt1" horiz-adv-x="634" 
d="M412 595q-29 0 -48 16.5t-19 42.5q0 30 24 52.5t57 22.5q30 0 49 -17t19 -43q0 -30 -23.5 -52t-58.5 -22zM12 265q0 127 111 225q112 97 266 97q152 0 238 -77l-37 -184q-84 91 -214 91q-68 0 -120 -41q-50 -41 -50 -95q0 -53 42 -87t109 -34q115 0 209 51l-36 -176
q-74 -45 -189 -45q-145 0 -237 77t-92 198z" />
    <glyph glyph-name="Ccedilla.alt1" horiz-adv-x="634" 
d="M167 2l34 57q19 -12 43 -12q35 0 35 17t-51 17h-1l24 43q-99 27 -157 97t-58 164q0 127 111 225q112 97 266 97q152 0 238 -77l-37 -184q-85 91 -214 91q-68 0 -120 -41q-50 -41 -50 -95q0 -53 42 -87t109 -34q114 0 209 51l-36 -176q-74 -45 -189 -45q-21 0 -26 1
l-8 -16q30 0 49 -14t19 -38q0 -35 -33 -53t-92 -18q-66 0 -107 30z" />
    <glyph glyph-name="Dcaron.alt1" horiz-adv-x="719" 
d="M634 697l-235 -112l-188 112h167l36 -39l53 39h167zM270 0h-284l119 583h283q142 0 219 -64.5t77 -174.5q0 -151 -109 -248q-108 -96 -305 -96zM258 403l-47 -231h82q98 0 148 44q49 43 49 100q0 87 -151 87h-81z" />
    <glyph glyph-name="Egrave.alt1" 
d="M460 600h-171l-60 97h213zM508 0h-522l119 583h514l-35 -169h-324l-9 -44h302l-30 -150h-302l-11 -54h332z" />
    <glyph glyph-name="Eacute.alt1" 
d="M440 600h-172l56 97h214zM508 0h-522l119 583h514l-35 -169h-324l-9 -44h302l-30 -150h-302l-11 -54h332z" />
    <glyph glyph-name="Ecircumflex.alt1" 
d="M327 600h-179l243 112l189 -112h-167l-34 39zM508 0h-522l119 583h514l-35 -169h-324l-9 -44h302l-30 -150h-302l-11 -54h332z" />
    <glyph glyph-name="Ecaron.alt1" 
d="M603 697l-240 -111l-192 111h167l34 -39l52 39h179zM508 0h-522l119 583h514l-35 -169h-324l-9 -44h302l-30 -150h-302l-11 -54h332z" />
    <glyph glyph-name="Edieresis.alt1" 
d="M463 595q-29 0 -48 16.5t-19 42.5q0 30 24 52.5t57 22.5q30 0 49 -17t19 -43q0 -30 -23.5 -52t-58.5 -22zM269 595q-29 0 -48 16.5t-19 42.5q0 30 24 52.5t57 22.5q30 0 49 -17t19 -43q0 -30 -23.5 -52t-58.5 -22zM508 0h-522l119 583h514l-35 -169h-324l-9 -44h302
l-30 -150h-302l-11 -54h332z" />
    <glyph glyph-name="Emacron.alt1" 
d="M532 600h-346l20 97h346zM508 0h-522l119 583h514l-35 -169h-324l-9 -44h302l-30 -150h-302l-11 -54h332z" />
    <glyph glyph-name="Ebreve.alt1" 
d="M362 600q-72 0 -113 28t-41 69h120q5 -20 45 -20q38 0 53 20h124q-47 -97 -188 -97zM508 0h-522l119 583h514l-35 -169h-324l-9 -44h302l-30 -150h-302l-11 -54h332z" />
    <glyph glyph-name="Edotaccent.alt1" 
d="M364 595q-29 0 -48 16.5t-19 42.5q0 30 24 52.5t57 22.5q30 0 49 -17t19 -43q0 -30 -23.5 -52t-58.5 -22zM508 0h-522l119 583h514l-35 -169h-324l-9 -44h302l-30 -150h-302l-11 -54h332z" />
    <glyph glyph-name="Eogonek.alt1" 
d="M397 114h-388l119 583h514l-35 -169h-324l-9 -44h302l-30 -150h-302l-11 -54h332l-22 -107q-70 -37 -70 -69q0 -21 31 -21q29 0 60 10l-40 -99q-36 -14 -83 -14q-39 0 -65.5 17.5t-26.5 46.5q0 36 48 70z" />
    <glyph glyph-name="Gcircumflex.alt1" horiz-adv-x="709" 
d="M366 600h-179l243 112l189 -112h-167l-34 39zM12 251q0 134 113 236q114 102 271 102q127 0 200 -46l-33 -162q-81 38 -183 38q-70 0 -122 -46t-52 -106q0 -47 38.5 -77t99.5 -30q86 0 159 52v1h-167l31 153h315l-51 -255q-125 -121 -303 -121q-140 0 -228 73t-88 188z
" />
    <glyph glyph-name="Gbreve.alt1" horiz-adv-x="709" 
d="M413 600q-72 0 -113 28t-41 69h120q5 -20 45 -20q38 0 53 20h124q-47 -97 -188 -97zM12 251q0 134 113 236q114 102 271 102q127 0 200 -46l-33 -162q-81 38 -183 38q-70 0 -122 -46t-52 -106q0 -47 38.5 -77t99.5 -30q86 0 159 52v1h-167l31 153h315l-51 -255
q-125 -121 -303 -121q-140 0 -228 73t-88 188z" />
    <glyph glyph-name="Gdotaccent.alt1" horiz-adv-x="709" 
d="M413 595q-29 0 -48 16.5t-19 42.5q0 30 24 52.5t57 22.5q30 0 49 -17t19 -43q0 -30 -23.5 -52t-58.5 -22zM12 251q0 134 113 236q114 102 271 102q127 0 200 -46l-33 -162q-81 38 -183 38q-70 0 -122 -46t-52 -106q0 -47 38.5 -77t99.5 -30q86 0 159 52v1h-167l31 153
h315l-51 -255q-125 -121 -303 -121q-140 0 -228 73t-88 188z" />
    <glyph glyph-name="Gcommaaccent.alt1" horiz-adv-x="709" 
d="M36 369q0 134 113 236q114 102 271 102q127 0 200 -46l-33 -162q-81 38 -183 38q-70 0 -122 -46t-52 -106q0 -47 38.5 -77t99.5 -30q86 0 159 52v1h-167l31 153h315l-51 -255q-125 -121 -303 -121q-140 0 -228 73t-88 188zM348 0h-172l56 97h214z" />
    <glyph glyph-name="Hcircumflex.alt1" horiz-adv-x="832" 
d="M433 600h-130l187 112l142 -112h-120l-32 35zM176 0h-190l142 697h190l-49 -242h338l49 242h190l-142 -697h-190l57 281h-338z" />
    <glyph glyph-name="Igrave.alt1" horiz-adv-x="312" 
d="M300 600h-171l-60 97h213zM180 0h-190l119 583h190z" />
    <glyph glyph-name="Iacute.alt1" horiz-adv-x="312" 
d="M285 600h-172l56 97h214zM180 0h-190l119 583h190z" />
    <glyph glyph-name="Icircumflex.alt1" horiz-adv-x="312" 
d="M165 600h-130l187 112l142 -112h-120l-32 35zM180 0h-190l119 583h190z" />
    <glyph glyph-name="Itilde.alt1" horiz-adv-x="352" 
d="M136 592l-93 13q35 99 135 99q28 0 64 -12q39 -11 46 -11q25 0 35 25l94 -16q-26 -92 -118 -92q-29 0 -71 9q-39 10 -52 10q-27 0 -40 -25zM200 0h-190l119 583h190z" />
    <glyph glyph-name="Idieresis.alt1" horiz-adv-x="312" 
d="M296 595q-29 0 -48 16.5t-19 42.5q0 30 24 52.5t57 22.5q30 0 49 -17t19 -43q0 -30 -23.5 -52t-58.5 -22zM127 595q-29 0 -48 16.5t-19 42.5q0 30 24 52.5t57 22.5q30 0 49 -17t19 -43q0 -30 -23.5 -52t-58.5 -22zM180 0h-190l119 583h190z" />
    <glyph glyph-name="Imacron.alt1" horiz-adv-x="312" 
d="M367 600h-326l20 97h326zM180 0h-190l119 583h190z" />
    <glyph glyph-name="Ibreve.alt1" horiz-adv-x="312" 
d="M210 600q-65 0 -102 28t-37 69h120q3 -20 30 -20t38 20h124q-42 -97 -173 -97zM180 0h-190l119 583h190z" />
    <glyph glyph-name="Idotaccent.alt1" horiz-adv-x="312" 
d="M210 589q-36 0 -59 17t-23 44q0 32 29.5 55.5t70.5 23.5q37 0 60 -17.5t23 -45.5q0 -31 -29.5 -54t-71.5 -23zM180 0h-190l119 583h190z" />
    <glyph glyph-name="Iogonek.alt1" horiz-adv-x="312" 
d="M21 44q0 37 51 70h-59l119 583h190l-107 -524q-70 -37 -70 -69q0 -21 31 -21q29 0 60 10l-40 -99q-36 -14 -83 -14q-39 0 -65.5 17.5t-26.5 46.5z" />
    <glyph glyph-name="Jcircumflex.alt1" horiz-adv-x="391" 
d="M257 600h-125l187 112l142 -112h-125l-33 33zM47 -10q-72 0 -113 15l35 167q25 -12 71 -12q42 0 64.5 20t31.5 63l70 340h190l-68 -335q-28 -135 -92.5 -196.5t-188.5 -61.5z" />
    <glyph glyph-name="Kcommaaccent.alt1" horiz-adv-x="747" 
d="M176 0h-190l142 697h190l-63 -309l310 309h237l-350 -343l230 -354h-216l-222 336zM330 0h-147l56 97h159z" />
    <glyph glyph-name="Lacute.alt1" horiz-adv-x="532" 
d="M280 600h-172l56 97h214zM441 0h-455l119 583h190l-84 -411h265z" />
    <glyph glyph-name="Lcommaaccent.alt1" horiz-adv-x="532" 
d="M464 114h-455l119 583h190l-84 -411h265zM253 0h-172l56 97h214z" />
    <glyph glyph-name="Nacute.alt1" horiz-adv-x="778" 
d="M168 0h-182l148 725l391 -398l85 370h182l-158 -725l-391 394zM487 600h-172l56 97h214z" />
    <glyph glyph-name="Ncaron.alt1" horiz-adv-x="778" 
d="M168 0h-182l148 725l391 -398l85 370h182l-158 -725l-391 394zM609 697l-193 -112l-150 112h121l37 -33l54 33h131z" />
    <glyph glyph-name="Ntilde.alt1" horiz-adv-x="798" 
d="M168 0h-182l148 725l419 -406l77 378h182l-148 -725l-418 408zM358 590l-93 15q31 99 127 99q24 0 55 -12q33 -11 43 -11q25 0 35 25l95 -14q-27 -94 -121 -94q-24 0 -57 9q-30 10 -44 10q-26 0 -40 -27z" />
    <glyph glyph-name="Ncommaaccent.alt1" horiz-adv-x="778" 
d="M168 0h-182l148 725l391 -398l85 370h182l-158 -725l-391 394zM385 0h-172l56 97h214z" />
    <glyph glyph-name="Ograve.alt1" horiz-adv-x="735" 
d="M511 600h-171l-60 97h213zM6 261q0 131 108 228q110 98 265 98q142 0 234 -77t92 -195q0 -131 -106 -228q-104 -97 -267 -97q-144 0 -235 76t-91 195zM203 272q0 -50 37.5 -81t98.5 -31q69 0 118 43q50 44 50 100q0 50 -38 82t-98 32q-66 0 -118 -44q-50 -44 -50 -101z
" />
    <glyph glyph-name="Oacute.alt1" horiz-adv-x="735" 
d="M493 600h-172l56 97h214zM6 261q0 131 108 228q110 98 265 98q142 0 234 -77t92 -195q0 -131 -106 -228q-104 -97 -267 -97q-144 0 -235 76t-91 195zM203 272q0 -50 37.5 -81t98.5 -31q69 0 118 43q50 44 50 100q0 50 -38 82t-98 32q-66 0 -118 -44q-50 -44 -50 -101z
" />
    <glyph glyph-name="Ocircumflex.alt1" horiz-adv-x="735" 
d="M362 600h-179l243 112l189 -112h-167l-34 39zM6 261q0 131 108 228q110 98 265 98q142 0 234 -77t92 -195q0 -131 -106 -228q-104 -97 -267 -97q-144 0 -235 76t-91 195zM203 272q0 -50 37.5 -81t98.5 -31q69 0 118 43q50 44 50 100q0 50 -38 82t-98 32q-66 0 -118 -44
q-50 -44 -50 -101z" />
    <glyph glyph-name="Otilde.alt1" horiz-adv-x="735" 
d="M294 592l-93 13q35 99 135 99q38 0 87 -12q53 -11 63 -11q25 0 35 25l94 -16q-26 -92 -118 -92q-39 0 -94 9q-53 10 -69 10q-27 0 -40 -25zM6 261q0 131 108 228q110 98 265 98q142 0 234 -77t92 -195q0 -131 -106 -228q-104 -97 -267 -97q-144 0 -235 76t-91 195z
M203 272q0 -50 37.5 -81t98.5 -31q69 0 118 43q50 44 50 100q0 50 -38 82t-98 32q-66 0 -118 -44q-50 -44 -50 -101z" />
    <glyph glyph-name="Odieresis.alt1" horiz-adv-x="829" 
d="M703 654q0 30 24 52.5t57 22.5q30 0 49 -17t19 -43q0 -30 -23.5 -52t-58.5 -22q-29 0 -48 16.5t-19 42.5zM96 595q-29 0 -48 16.5t-19 42.5q0 30 24 52.5t57 22.5q30 0 49 -17t19 -43q0 -30 -23.5 -52t-58.5 -22zM22 311q0 156 121 274t294 118q156 0 256 -91
q101 -90 101 -231q0 -74 -30.5 -145.5t-84.5 -126.5q-55 -56 -133.5 -88.5t-165.5 -32.5q-158 0 -258 90q-100 91 -100 233zM218 325q0 -75 48 -121q47 -46 124 -46q86 0 147 63q61 62 61 144q0 75 -48 121q-49 47 -124 47q-83 0 -146 -63q-62 -64 -62 -145z" />
    <glyph glyph-name="Omacron.alt1" horiz-adv-x="735" 
d="M584 600h-346l20 97h346zM6 261q0 131 108 228q110 98 265 98q142 0 234 -77t92 -195q0 -131 -106 -228q-104 -97 -267 -97q-144 0 -235 76t-91 195zM203 272q0 -50 37.5 -81t98.5 -31q69 0 118 43q50 44 50 100q0 50 -38 82t-98 32q-66 0 -118 -44q-50 -44 -50 -101z
" />
    <glyph glyph-name="Obreve.alt1" horiz-adv-x="735" 
d="M421 600q-72 0 -113 28t-41 69h120q5 -20 45 -20q38 0 53 20h124q-47 -97 -188 -97zM6 261q0 131 108 228q110 98 265 98q142 0 234 -77t92 -195q0 -131 -106 -228q-104 -97 -267 -97q-144 0 -235 76t-91 195zM203 272q0 -50 37.5 -81t98.5 -31q69 0 118 43q50 44 50 100
q0 50 -38 82t-98 32q-66 0 -118 -44q-50 -44 -50 -101z" />
    <glyph glyph-name="Ohungarumlaut.alt1" horiz-adv-x="735" 
d="M558 600h-141l78 97h173zM366 600h-131l68 97h173zM6 261q0 131 108 228q110 98 265 98q142 0 234 -77t92 -195q0 -131 -106 -228q-104 -97 -267 -97q-144 0 -235 76t-91 195zM203 272q0 -50 37.5 -81t98.5 -31q69 0 118 43q50 44 50 100q0 50 -38 82t-98 32
q-66 0 -118 -44q-50 -44 -50 -101z" />
    <glyph glyph-name="Oslashacute.alt1" horiz-adv-x="735" 
d="M498 600h-172l56 97h214zM110 -53l-100 89l58 58q-62 71 -62 167q0 131 108 228q110 98 265 98q85 0 151 -28l69 69l99 -89l-57 -57q64 -70 64 -167q0 -131 -106 -228q-104 -97 -267 -97q-82 0 -152 27zM211 231l184 184q-22 2 -24 2q-66 0 -118 -44q-50 -44 -50 -101
q0 -20 8 -41zM498 346l-182 -185q5 -1 23 -1q69 0 118 43q50 44 50 100q0 23 -9 43z" />
    <glyph glyph-name="Racute.alt1" horiz-adv-x="680" 
d="M441 600h-172l56 97h214zM176 0h-190l119 583h298q100 0 165 -53q64 -52 64 -136q0 -64 -36.5 -121.5t-99.5 -89.5l112 -183h-209l-96 162h-94zM260 411l-21 -100h138q25 0 43.5 17.5t18.5 39.5q0 18 -14.5 30.5t-37.5 12.5h-127z" />
    <glyph glyph-name="Rcaron.alt1" horiz-adv-x="680" 
d="M609 697l-240 -111l-192 111h167l34 -39l52 39h179zM176 0h-190l119 583h298q100 0 165 -53q64 -52 64 -136q0 -64 -36.5 -121.5t-99.5 -89.5l112 -183h-209l-96 162h-94zM260 411l-21 -100h138q25 0 43.5 17.5t18.5 39.5q0 18 -14.5 30.5t-37.5 12.5h-127z" />
    <glyph glyph-name="Rcommaaccent.alt1" horiz-adv-x="721" 
d="M176 0h-190l142 697h337q101 0 163 -61q64 -60 64 -155q0 -68 -35.5 -129t-96.5 -97l88 -255h-194l-75 217h-159zM283 525l-32 -156h163q35 0 60 26.5t25 62.5q0 30 -19.5 48.5t-51.5 18.5h-145zM338 0h-154l56 97h178z" />
    <glyph glyph-name="Sacute.alt1" horiz-adv-x="594" 
d="M419 600h-172l56 97h214zM-23 64l37 173q105 -78 246 -78q95 0 95 21q0 7 -15 11l-59 15q-55 13 -77 20q-81 22 -119 62.5t-38 106.5q0 81 75 135q74 55 195 55q149 0 238 -59l-33 -159q-89 50 -204 50q-84 0 -84 -22q0 -12 23 -20q23 -7 72 -18q55 -12 79 -20
q140 -45 140 -150q0 -90 -75 -142q-76 -53 -203 -53q-182 0 -293 72z" />
    <glyph glyph-name="Scircumflex.alt1" horiz-adv-x="594" 
d="M305 600h-179l243 112l189 -112h-167l-34 39zM-23 64l37 173q105 -78 246 -78q95 0 95 21q0 7 -15 11l-59 15q-55 13 -77 20q-81 22 -119 62.5t-38 106.5q0 81 75 135q74 55 195 55q149 0 238 -59l-33 -159q-89 50 -204 50q-84 0 -84 -22q0 -12 23 -20q23 -7 72 -18
q55 -12 79 -20q140 -45 140 -150q0 -90 -75 -142q-76 -53 -203 -53q-182 0 -293 72z" />
    <glyph glyph-name="Scaron.alt1" horiz-adv-x="594" 
d="M582 697l-240 -111l-192 111h167l34 -39l52 39h179zM-23 64l37 173q105 -78 246 -78q95 0 95 21q0 7 -15 11l-59 15q-55 13 -77 20q-81 22 -119 62.5t-38 106.5q0 81 75 135q74 55 195 55q149 0 238 -59l-33 -159q-89 50 -204 50q-84 0 -84 -22q0 -12 23 -20
q23 -7 72 -18q55 -12 79 -20q140 -45 140 -150q0 -90 -75 -142q-76 -53 -203 -53q-182 0 -293 72z" />
    <glyph glyph-name="Scommaaccent.alt1" horiz-adv-x="594" 
d="M2 186l37 173q105 -78 246 -78q95 0 95 21q0 7 -15 11l-59 15q-55 13 -77 20q-81 22 -119 62.5t-38 106.5q0 81 75 135q74 55 195 55q149 0 238 -59l-33 -159q-88 50 -204 50q-84 0 -84 -22q0 -12 23 -20q22 -7 72 -18q55 -12 79 -20q140 -45 140 -150q0 -90 -75 -142
q-76 -53 -203 -53q-182 0 -293 72zM276 0h-172l56 97h214z" />
    <glyph glyph-name="Scedilla.alt1" horiz-adv-x="594" 
d="M115 2l34 57q19 -12 43 -12q35 0 35 17t-51 17h-1l22 39q-120 16 -195 66l37 173q105 -78 246 -78q95 0 95 21q0 7 -15 11l-59 15q-55 13 -77 20q-81 22 -119 62.5t-38 106.5q0 81 75 135q74 55 195 55q149 0 238 -59l-33 -159q-88 50 -204 50q-84 0 -84 -22
q0 -12 23 -20q22 -7 72 -18q55 -12 79 -20q140 -45 140 -150q0 -91 -75.5 -143t-208.5 -52l-10 -19q30 0 49 -14t19 -38q0 -35 -33 -53t-92 -18q-66 0 -107 30z" />
    <glyph glyph-name="Tcaron.alt1" horiz-adv-x="572" 
d="M566 697l-240 -111l-192 111h167l34 -39l52 39h179zM312 0h-190l84 411h-192l35 172h570l-35 -172h-188z" />
    <glyph glyph-name="Tcommaaccent.alt1" horiz-adv-x="572" 
d="M335 114h-190l84 411h-192l35 172h570l-35 -172h-188zM256 0h-172l56 97h214z" />
    <glyph glyph-name="Ugrave.alt1" horiz-adv-x="730" 
d="M30 258q0 39 11 94l70 345h190l-82 -400q-2 -16 -2 -30q0 -49 31 -77t87 -28q115 0 142 132l82 403h190l-83 -407q-31 -153 -114 -226.5t-234 -73.5q-74 0 -143 30q-64 25 -104 84.5t-41 153.5zM529 600h-157l-60 97h199z" />
    <glyph glyph-name="Uacute.alt1" horiz-adv-x="730" 
d="M30 258q0 39 11 94l70 345h190l-82 -400q-2 -16 -2 -30q0 -49 31 -77t87 -28q112 0 139 132l82 403h190l-83 -407q-31 -153 -113.5 -226.5t-231.5 -73.5q-74 0 -143 30q-64 25 -104 84.5t-41 153.5zM452 600h-152l56 97h194z" />
    <glyph glyph-name="Ucircumflex.alt1" horiz-adv-x="790" 
d="M404 600h-121l184 112l130 -112h-113l-31 33zM30 258q0 39 11 94l70 345h190l-82 -400q-2 -16 -2 -30q0 -49 39.5 -77t108.5 -28q70 0 114.5 33.5t57.5 98.5l82 403h190l-83 -407q-31 -152 -122.5 -226t-255.5 -74q-83 0 -158 30q-70 25 -114.5 84.5t-45.5 153.5z" />
    <glyph glyph-name="Utilde.alt1" horiz-adv-x="816" 
d="M379 592l-93 13q16 51 47 75t83 24q24 0 56 -12q33 -11 42 -11q22 0 32 25l94 -16q-26 -92 -123 -92q-24 0 -57 9q-31 10 -41 10q-27 0 -40 -25zM30 258q0 39 11 94l70 345h190l-82 -400q-2 -16 -2 -30q0 -49 42 -77t119 -28q76 0 124 33.5t61 98.5l82 403h190l-83 -407
q-31 -152 -125.5 -226t-265.5 -74q-86 0 -165 30q-73 25 -119 84.5t-47 153.5z" />
    <glyph glyph-name="Udieresis.alt1" horiz-adv-x="810" 
d="M537 595q-29 0 -48 16.5t-19 42.5q0 30 23.5 52.5t56.5 22.5q30 0 49 -17t19 -43q0 -30 -24 -52t-57 -22zM375 595q-29 0 -48 16.5t-19 42.5q0 30 23.5 52.5t56.5 22.5q30 0 49 -17t19 -43q0 -30 -24 -52t-57 -22zM30 258q0 39 11 94l70 345h190l-82 -400q-2 -16 -2 -30
q0 -49 41.5 -77t116.5 -28q74 0 121.5 33.5t60.5 98.5l82 403h190l-83 -407q-31 -152 -125 -226t-263 -74q-85 0 -164 30q-48 18 -81 46q-37 29 -60 80t-23 112z" />
    <glyph glyph-name="Umacron.alt1" horiz-adv-x="790" 
d="M30 258q0 39 11 94l70 345h190l-82 -400q-2 -16 -2 -30q0 -49 39.5 -77t108.5 -28q70 0 114.5 33.5t57.5 98.5l82 403h190l-83 -407q-31 -152 -122.5 -226t-255.5 -74q-83 0 -158 30q-70 25 -114.5 84.5t-45.5 153.5zM573 600h-267l20 97h267z" />
    <glyph glyph-name="Ubreve.alt1" horiz-adv-x="790" 
d="M30 258q0 39 11 94l70 345h190l-82 -400q-2 -16 -2 -30q0 -49 39.5 -77t108.5 -28q70 0 114.5 33.5t57.5 98.5l82 403h190l-83 -407q-31 -152 -122.5 -226t-255.5 -74q-83 0 -158 30q-70 25 -114.5 84.5t-45.5 153.5zM448 594q-65 0 -99 29t-34 74h99q5 -23 42 -23
q38 0 52 23h99q-40 -103 -159 -103z" />
    <glyph glyph-name="Uring.alt1" horiz-adv-x="790" 
d="M425 462q-55 0 -89 30.5t-34 78.5q0 55 43 97t104 42q55 0 89.5 -31.5t34.5 -80.5q0 -53 -43 -95q-44 -41 -105 -41zM30 258q0 39 11 94l70 345h190l-82 -400q-2 -16 -2 -30q0 -49 39.5 -77t108.5 -28q70 0 114.5 33.5t57.5 98.5l82 403h190l-83 -407
q-31 -152 -122.5 -226t-255.5 -74q-83 0 -158 30q-70 25 -114.5 84.5t-45.5 153.5zM434 552q17 0 28 11t11 26q0 14 -9 22.5t-23 8.5q-16 0 -27.5 -11.5t-11.5 -26.5q0 -13 9 -21.5t23 -8.5z" />
    <glyph glyph-name="Uhungarumlaut.alt1" horiz-adv-x="790" 
d="M30 258q0 39 11 94l70 345h190l-82 -400q-2 -16 -2 -30q0 -49 39.5 -77t108.5 -28q70 0 114.5 33.5t57.5 98.5l82 403h190l-83 -407q-31 -152 -122.5 -226t-255.5 -74q-83 0 -158 30q-70 25 -114.5 84.5t-45.5 153.5zM503 600h-84l68 97h126zM375 600h-84l68 97h126z" />
    <glyph glyph-name="Uogonek.alt1" horiz-adv-x="730" 
d="M339 44q0 39 49 70q-12 -4 -43 -4q-74 0 -143 30q-64 25 -104 84.5t-41 153.5q0 39 11 94l46 225h190l-58 -280q-2 -16 -2 -30q0 -49 31 -77t87 -28q112 0 139 132l58 283h190l-59 -287q-18 -88 -48 -143.5t-86 -93.5q-19 -12 -41 -23q-29 -15 -40.5 -25t-11.5 -21
q0 -21 31 -21q29 0 60 10l-40 -99q-36 -14 -83 -14q-39 0 -65.5 17.5t-26.5 46.5z" />
    <glyph glyph-name="Wgrave.alt1" horiz-adv-x="995" 
d="M494 290l-293 -320l-117 727h186l60 -360l213 234l105 -225l201 351h205l-413 -727zM661 600h-171l-60 97h213z" />
    <glyph glyph-name="Wacute.alt1" horiz-adv-x="995" 
d="M494 290l-293 -320l-117 727h186l60 -360l213 234l105 -225l201 351h205l-413 -727zM605 600h-172l56 97h214z" />
    <glyph glyph-name="Wcircumflex.alt1" horiz-adv-x="995" 
d="M502 600h-179l243 112l189 -112h-167l-34 39zM494 290l-293 -320l-117 727h186l60 -360l213 234l105 -225l201 351h205l-413 -727z" />
    <glyph glyph-name="Wdieresis.alt1" horiz-adv-x="995" 
d="M494 290l-293 -320l-117 727h186l60 -360l213 234l105 -225l201 351h205l-413 -727zM639 595q-29 0 -48 16.5t-19 42.5q0 30 24 52.5t57 22.5q30 0 49 -17t19 -43q0 -30 -23.5 -52t-58.5 -22zM458 595q-29 0 -48 16.5t-19 42.5q0 30 24 52.5t57 22.5q30 0 49 -17t19 -43
q0 -30 -23.5 -52t-58.5 -22z" />
    <glyph glyph-name="Ygrave.alt1" horiz-adv-x="766" 
d="M406 0h-188l48 238l-197 459h202l116 -271l224 271h228l-385 -459zM528 600h-165l-58 97h207z" />
    <glyph glyph-name="Yacute.alt1" horiz-adv-x="766" 
d="M406 0h-188l48 238l-197 459h202l116 -271l224 271h228l-385 -459zM487 600h-172l56 97h214z" />
    <glyph glyph-name="Ycircumflex.alt1" horiz-adv-x="816" 
d="M422 600h-106l155 112l110 -112h-97l-24 36zM436 0h-188l47 231l-226 466h198l143 -291l261 291h228l-416 -466z" />
    <glyph glyph-name="Ydieresis.alt1" horiz-adv-x="816" 
d="M436 0h-188l47 231l-226 466h198l143 -291l261 291h228l-416 -466zM530 593q-29 0 -47.5 17t-18.5 42q0 31 23.5 54t55.5 23q29 0 48 -17.5t19 -43.5q0 -30 -23.5 -52.5t-56.5 -22.5zM371 593q-29 0 -47.5 17t-18.5 42q0 31 23.5 54t55.5 23q29 0 48 -17.5t19 -43.5
q0 -30 -23.5 -52.5t-56.5 -22.5z" />
    <glyph glyph-name="Zacute.alt1" horiz-adv-x="656" 
d="M477 600h-172l56 97h214zM559 0h-629l385 411h-234l35 172h577l-378 -411h279z" />
    <glyph glyph-name="Zcaron.alt1" horiz-adv-x="656" 
d="M641 697l-240 -111l-192 111h167l34 -39l52 39h179zM559 0h-629l385 411h-234l35 172h577l-378 -411h279z" />
    <glyph glyph-name="Zdotaccent.alt1" horiz-adv-x="656" 
d="M406 595q-29 0 -48 16.5t-19 42.5q0 30 24 52.5t57 22.5q30 0 49 -17t19 -43q0 -30 -23.5 -52t-58.5 -22zM559 0h-629l385 411h-234l35 172h577l-378 -411h279z" />
    <glyph glyph-name="Eng.alt1" horiz-adv-x="783" 
d="M168 0h-182l148 725l417 -368v1l70 339h190l-91 -449q-28 -135 -92.5 -196.5t-188.5 -61.5q-73 0 -113 15l35 167q25 -12 71 -12q41 0 63 19l-248 208z" />
    <glyph glyph-name="Cacute.alt2" horiz-adv-x="652" 
d="M479 600h-172l56 97h214zM12 258q0 131 110 230q111 99 267 99q182 0 272 -122l-146 -110q-47 62 -137 62q-68 0 -120 -44q-50 -44 -50 -101q0 -50 37 -81t97 -31q86 0 151 64l106 -128q-106 -106 -267 -106q-140 0 -230 75t-90 193z" />
    <glyph glyph-name="Ccircumflex.alt2" horiz-adv-x="652" 
d="M358 600h-179l243 112l189 -112h-167l-34 39zM12 258q0 131 110 230q111 99 267 99q182 0 272 -122l-146 -110q-47 62 -137 62q-68 0 -120 -44q-50 -44 -50 -101q0 -50 37 -81t97 -31q86 0 151 64l106 -128q-106 -106 -267 -106q-140 0 -230 75t-90 193z" />
    <glyph glyph-name="Ccaron.alt2" horiz-adv-x="652" 
d="M649 697l-243 -109l-189 109h167l34 -39l52 39h179zM12 258q0 131 110 230q111 99 267 99q182 0 272 -122l-146 -110q-47 62 -137 62q-68 0 -120 -44q-50 -44 -50 -101q0 -50 37 -81t97 -31q86 0 151 64l106 -128q-106 -106 -267 -106q-140 0 -230 75t-90 193z" />
    <glyph glyph-name="Cdotaccent.alt2" horiz-adv-x="652" 
d="M420 595q-29 0 -48 16.5t-19 42.5q0 30 24 52.5t57 22.5q30 0 49 -17t19 -43q0 -30 -23.5 -52t-58.5 -22zM12 258q0 131 110 230q111 99 267 99q182 0 272 -122l-146 -110q-47 62 -137 62q-68 0 -120 -44q-50 -44 -50 -101q0 -50 37 -81t97 -31q86 0 151 64l106 -128
q-106 -106 -267 -106q-140 0 -230 75t-90 193z" />
    <glyph glyph-name="Ccedilla.alt2" horiz-adv-x="652" 
d="M180 2l34 57q20 -12 43 -12q35 0 35 17t-51 17h-1l22 39q-103 22 -165 92q-61 70 -61 166q0 131 110 230q111 99 267 99q182 0 272 -122l-146 -110q-47 62 -137 62q-68 0 -120 -44q-50 -44 -50 -101q0 -50 37 -81t97 -31q86 0 151 64l106 -128q-106 -106 -267 -106h-5
l-7 -15q30 0 49 -14t19 -38q0 -35 -33 -53t-92 -18q-67 0 -107 30z" />
    <glyph glyph-name="Gcircumflex.alt2" horiz-adv-x="709" 
d="M364 600h-179l243 112l189 -112h-167l-34 39zM12 258q0 131 110 230q111 99 267 99q179 0 267 -102l-136 -112q-50 44 -142 44q-68 0 -120 -44q-50 -44 -50 -101q0 -50 37 -81t97 -31q99 0 151 52v1h-165l31 153h324l-46 -231q-121 -145 -305 -145q-140 0 -230 75
t-90 193z" />
    <glyph glyph-name="Gbreve.alt2" horiz-adv-x="709" 
d="M416 600q-72 0 -113 28t-41 69h120q5 -20 45 -20q38 0 53 20h124q-47 -97 -188 -97zM12 258q0 131 110 230q111 99 267 99q179 0 267 -102l-136 -112q-50 44 -142 44q-68 0 -120 -44q-50 -44 -50 -101q0 -50 37 -81t97 -31q99 0 151 52v1h-165l31 153h324l-46 -231
q-121 -145 -305 -145q-140 0 -230 75t-90 193z" />
    <glyph glyph-name="Gdotaccent.alt2" horiz-adv-x="709" 
d="M415 595q-29 0 -48 16.5t-19 42.5q0 30 24 52.5t57 22.5q30 0 49 -17t19 -43q0 -30 -23.5 -52t-58.5 -22zM12 258q0 131 110 230q111 99 267 99q179 0 267 -102l-136 -112q-50 44 -142 44q-68 0 -120 -44q-50 -44 -50 -101q0 -50 37 -81t97 -31q99 0 151 52v1h-165
l31 153h324l-46 -231q-121 -145 -305 -145q-140 0 -230 75t-90 193z" />
    <glyph glyph-name="Gcommaaccent.alt2" horiz-adv-x="709" 
d="M355 110q-140 0 -230 75t-90 193q0 131 110 230q111 99 267 99q178 0 267 -102l-136 -112q-50 44 -142 44q-68 0 -120 -44q-50 -44 -50 -101q0 -50 37 -81t97 -31q99 0 151 52v1h-165l31 153h324l-46 -231q-121 -145 -305 -145zM356 0h-172l56 97h214z" />
    <glyph glyph-name="Kcommaaccent.alt2" horiz-adv-x="751" 
d="M176 0h-190l142 697h190l-58 -283l324 283h236l-344 -319l212 -378h-207l-152 262l-122 -107zM342 0h-155l56 97h181z" />
    <glyph glyph-name="Sacute.alt2" horiz-adv-x="588" 
d="M422 600h-172l56 97h214zM-43 115l142 110q20 -30 69 -49q48 -19 102 -19q85 0 85 21q0 12 -23 20q-19 6 -74 16q-50 10 -84 21q-59 19 -94 58t-35 92q0 83 75 141q77 59 196 59q79 0 141.5 -28t95.5 -68l-133 -111q-36 45 -119 45q-74 0 -74 -22q0 -13 16 -17
q5 -1 13.5 -3t24.5 -5t28 -6q52 -9 97 -25q134 -47 134 -148q0 -95 -73.5 -150t-212.5 -55q-117 0 -193 38q-76 40 -104 85z" />
    <glyph glyph-name="Scircumflex.alt2" horiz-adv-x="588" 
d="M296 600h-179l243 112l189 -112h-167l-34 39zM-43 115l142 110q20 -30 69 -49q48 -19 102 -19q85 0 85 21q0 12 -23 20q-19 6 -74 16q-50 10 -84 21q-59 19 -94 58t-35 92q0 83 75 141q77 59 196 59q79 0 141.5 -28t95.5 -68l-133 -111q-36 45 -119 45q-74 0 -74 -22
q0 -13 16 -17q5 -1 13.5 -3t24.5 -5t28 -6q52 -9 97 -25q134 -47 134 -148q0 -95 -73.5 -150t-212.5 -55q-117 0 -193 38q-76 40 -104 85z" />
    <glyph glyph-name="Scaron.alt2" horiz-adv-x="588" 
d="M576 697l-240 -111l-192 111h167l34 -39l52 39h179zM-43 115l142 110q20 -30 69 -49q48 -19 102 -19q85 0 85 21q0 12 -23 20q-19 6 -74 16q-50 10 -84 21q-59 19 -94 58t-35 92q0 83 75 141q77 59 196 59q79 0 141.5 -28t95.5 -68l-133 -111q-36 45 -119 45
q-74 0 -74 -22q0 -13 16 -17q5 -1 13.5 -3t24.5 -5t28 -6q52 -9 97 -25q134 -47 134 -148q0 -95 -73.5 -150t-212.5 -55q-117 0 -193 38q-76 40 -104 85z" />
    <glyph glyph-name="Scommaaccent.alt2" horiz-adv-x="588" 
d="M278 114q-117 0 -193 38q-76 40 -104 85l142 110q20 -30 69 -49q48 -19 102 -19q85 0 85 21q0 12 -23 20q-19 6 -74 16q-50 10 -84 21q-59 19 -94 58t-35 92q0 83 75 141q77 59 196 59q79 0 141.5 -28t95.5 -68l-133 -111q-36 45 -119 45q-74 0 -74 -22q0 -13 16 -17
q5 -1 13.5 -3t24.5 -5t28 -6q52 -9 97 -25q134 -47 134 -148q0 -95 -73.5 -150t-212.5 -55zM270 0h-172l56 97h214z" />
    <glyph glyph-name="Scedilla.alt2" horiz-adv-x="588" 
d="M128 2l34 57q19 -12 43 -12q35 0 35 17t-51 17h-1l21 37q-84 11 -143 44t-85 75l142 110q20 -30 69 -49q48 -19 102 -19q85 0 85 21q0 12 -23 20q-19 6 -74 16q-50 10 -84 21q-59 19 -94 58t-35 92q0 83 75 141q77 59 196 59q79 0 141.5 -28t95.5 -68l-133 -111
q-36 45 -119 45q-74 0 -74 -22q0 -13 16 -17q5 -1 13.5 -3t24.5 -5t28 -6q52 -9 97 -25q134 -47 134 -148q0 -90 -67.5 -145t-194.5 -60h-1l-9 -19q30 0 49 -14t19 -38q0 -35 -33 -53t-92 -18q-67 0 -107 30z" />
    <glyph glyph-name="Wgrave.alt2" horiz-adv-x="962" 
d="M633 600h-171l-60 97h213zM448 214l-189 -248l-207 617h179l104 -291l44 58l-86 233h161l35 -93l67 93h176l-177 -233l25 -60l227 293h199l-459 -617z" />
    <glyph glyph-name="Wacute.alt2" horiz-adv-x="962" 
d="M586 600h-172l56 97h214zM448 214l-189 -248l-207 617h179l104 -291l44 58l-86 233h161l35 -93l67 93h176l-177 -233l25 -60l227 293h199l-459 -617z" />
    <glyph glyph-name="Wcircumflex.alt2" horiz-adv-x="962" 
d="M473 600h-179l243 112l189 -112h-167l-34 39zM448 214l-189 -248l-207 617h179l104 -291l44 58l-86 233h161l35 -93l67 93h176l-177 -233l25 -60l227 293h199l-459 -617z" />
    <glyph glyph-name="Wdieresis.alt2" horiz-adv-x="962" 
d="M598 595q-29 0 -48 16.5t-19 42.5q0 30 24 52.5t57 22.5q30 0 49 -17t19 -43q0 -30 -23.5 -52t-58.5 -22zM429 595q-29 0 -48 16.5t-19 42.5q0 30 24 52.5t57 22.5q30 0 49 -17t19 -43q0 -30 -23.5 -52t-58.5 -22zM448 214l-189 -248l-207 617h179l104 -291l44 58
l-86 233h161l35 -93l67 93h176l-177 -233l25 -60l227 293h199l-459 -617z" />
    <glyph glyph-name="A.smcp" horiz-adv-x="674" 
d="M163 55l-47 -55h-186l456 590l216 -590h-171l-21 55h-247zM336 294l-88 -105h126z" />
    <glyph glyph-name="B.smcp" horiz-adv-x="575" 
d="M326 0h-340l114 558h276q64 0 105.5 -36t41.5 -91q0 -47 -28.5 -84.5t-75.5 -45.5q49 -9 73.5 -41.5t24.5 -76.5q0 -76 -52 -129q-51 -54 -139 -54zM249 415l-15 -77h70q22 0 37 13t15 30q0 15 -12 24.5t-31 9.5h-64zM211 228l-16 -83h100q23 0 38 14t15 33q0 16 -13 26
t-33 10h-91z" />
    <glyph glyph-name="C.smcp" horiz-adv-x="577" 
d="M10 252q0 124 105 219q106 94 253 94q131 0 198 -61l-32 -170q-70 73 -176 73q-69 0 -118 -43q-49 -42 -49 -99q0 -50 39 -82t100 -32q101 0 180 59l-33 -173q-59 -44 -160 -44q-135 0 -221 72q-86 74 -86 187z" />
    <glyph glyph-name="D.smcp" horiz-adv-x="657" 
d="M296 0h-310l114 558h239q123 0 201 -72q79 -70 79 -181q0 -121 -93 -213q-92 -92 -230 -92zM244 390l-47 -230h98q60 0 101 38q42 39 42 88q0 45 -33.5 74.5t-87.5 29.5h-73z" />
    <glyph glyph-name="E.smcp" horiz-adv-x="559" 
d="M448 0h-462l114 558h455l-33 -159h-278l-10 -51h259l-29 -141h-259l-10 -52h285z" />
    <glyph glyph-name="F.smcp" horiz-adv-x="540" 
d="M165 0h-179l114 558h450l-33 -161h-271l-12 -58h246l-31 -150h-246z" />
    <glyph glyph-name="G.smcp" horiz-adv-x="659" 
d="M10 254q0 124 106 217q106 94 252 94q126 0 193 -49l-29 -152q-83 43 -177 43q-67 0 -116 -43q-48 -44 -48 -99q0 -51 39 -82q40 -32 100 -32t107 33l7 20h-149l28 146h300l-52 -261q-107 -96 -254 -96q-135 0 -221 72q-86 74 -86 189z" />
    <glyph glyph-name="H.smcp" horiz-adv-x="675" 
d="M165 0h-179l114 558h179l-38 -182h203l38 182h179l-114 -558h-179l43 212h-203z" />
    <glyph glyph-name="I.smcp" horiz-adv-x="301" 
d="M169 0h-179l114 558h179z" />
    <glyph glyph-name="J.smcp" horiz-adv-x="368" 
d="M37 -7q-67 0 -101 12l31 155q24 -10 61 -10q36 0 54.5 13t25.5 43l73 352h179l-71 -347q-24 -115 -82 -166.5t-170 -51.5z" />
    <glyph glyph-name="K.smcp" 
d="M163 0h-177l114 558h177l-48 -233l212 233h220l-267 -287l163 -271h-197l-148 240z" />
    <glyph glyph-name="L.smcp" horiz-adv-x="479" 
d="M387 0h-401l114 558h179l-81 -396h222z" />
    <glyph glyph-name="M.smcp" horiz-adv-x="777" 
d="M150 0h-164l118 581l260 -290l404 299l-120 -590h-164l43 211l-189 -133l-139 147z" />
    <glyph glyph-name="N.smcp" horiz-adv-x="673" 
d="M155 0h-169l119 581l330 -285l55 262h169l-119 -581l-330 282z" />
    <glyph glyph-name="O.smcp" horiz-adv-x="671" 
d="M9 245q0 127 100 223q100 97 238 97q126 0 205 -73q80 -72 80 -184q0 -124 -98 -220q-98 -95 -242 -95q-125 0 -204 70t-79 182zM189 264q0 -47 33 -77t85 -30q62 0 102 40q41 41 41 94q0 48 -33.5 79t-86.5 31q-57 0 -100 -41q-41 -41 -41 -96z" />
    <glyph glyph-name="P.smcp" horiz-adv-x="586" 
d="M165 0h-179l114 558h257q93 0 152 -54t59 -138q0 -90 -71 -161q-70 -70 -175 -70h-130zM246 397l-22 -105h99q27 0 47 17.5t20 41.5q0 19 -16.5 32.5t-40.5 13.5h-87z" />
    <glyph glyph-name="Q.smcp" horiz-adv-x="670" 
d="M9 245q0 127 100 223q100 97 238 97q126 0 205 -73q80 -72 80 -184q0 -124 -94 -215l75 -93h-171l-16 19q-64 -26 -134 -26q-125 0 -204 70t-79 182zM189 264q0 -46 33 -76.5t83 -30.5h1l-83 97h179l25 -34q23 32 23 71q0 48 -33.5 79t-86.5 31q-57 0 -100 -41
q-41 -41 -41 -96z" />
    <glyph glyph-name="R.smcp" horiz-adv-x="604" 
d="M164 0h-178l114 558h264q88 0 143 -51q56 -51 56 -129q0 -60 -35 -113t-94 -82l102 -183h-194l-85 161h-60zM244 398l-20 -98h96q26 0 44.5 16.5t18.5 38.5q0 18 -14.5 30.5t-38.5 12.5h-86z" />
    <glyph glyph-name="S.smcp" horiz-adv-x="537" 
d="M-17 62l31 158q92 -69 216 -69q84 0 84 22q0 8 -13 12q-15 7 -49 17q-38 10 -66 21q-136 49 -136 161q0 76 66 129q65 52 169 52q141 0 216 -60l-32 -156q-83 58 -177 58q-70 0 -70 -19q0 -11 35 -25l32 -12l74 -23q128 -44 128 -148q0 -85 -68 -136t-186 -51
q-171 0 -254 69z" />
    <glyph glyph-name="T.smcp" horiz-adv-x="510" 
d="M273 0h-178l81 396h-164l33 162h506l-33 -162h-164z" />
    <glyph glyph-name="U.smcp" horiz-adv-x="640" 
d="M25 219q0 33 9 77l54 262h177l-64 -311q-2 -10 -2 -18q0 -36 23.5 -56.5t65.5 -20.5q82 0 102 93l64 313h177l-65 -314q-27 -129 -95.5 -190.5t-196.5 -61.5q-63 0 -120 22q-129 50 -129 205z" />
    <glyph glyph-name="V.smcp" horiz-adv-x="675" 
d="M722 558l-463 -591l-220 591h182l94 -253l198 253h209z" />
    <glyph glyph-name="W.smcp" horiz-adv-x="862" 
d="M419 251l-251 -276l-112 583h173l47 -218l196 208l86 -209l141 219h193l-363 -584z" />
    <glyph glyph-name="X.smcp" horiz-adv-x="614" 
d="M131 0h-208l267 300l-135 258h190l70 -135l125 135h206l-245 -278l149 -280h-191l-85 155z" />
    <glyph glyph-name="Y.smcp" horiz-adv-x="630" 
d="M330 0h-175l39 190l-151 368h186l80 -196l155 196h207l-304 -381z" />
    <glyph glyph-name="Z.smcp" horiz-adv-x="565" 
d="M471 0h-544l343 398h-204l31 160h501l-342 -398h246z" />
    <glyph glyph-name="Agrave.smcp" horiz-adv-x="674" 
d="M464 596h-154l-52 101h189zM163 55l-47 -55h-186l456 590l216 -590h-171l-21 55h-247zM336 294l-88 -105h126z" />
    <glyph glyph-name="Aacute.smcp" horiz-adv-x="674" 
d="M457 596h-155l54 101h193zM163 55l-47 -55h-186l456 590l216 -590h-171l-21 55h-247zM336 294l-88 -105h126z" />
    <glyph glyph-name="Acircumflex.smcp" horiz-adv-x="674" 
d="M343 596h-154l212 116l163 -116h-143l-32 33zM163 55l-47 -55h-186l456 590l216 -590h-171l-21 55h-247zM336 294l-88 -105h126z" />
    <glyph glyph-name="Atilde.smcp" horiz-adv-x="674" 
d="M264 574l-86 15q13 52 51.5 85.5t88.5 33.5q37 0 78 -16t64 -16q33 0 51 31l87 -15q-14 -54 -50.5 -83.5t-90.5 -29.5q-37 0 -80 15t-66 15q-33 0 -47 -35zM163 55l-47 -55h-186l456 590l216 -590h-171l-21 55h-247zM336 294l-88 -105h126z" />
    <glyph glyph-name="Adieresis.smcp" horiz-adv-x="674" 
d="M507 573q-31 0 -51 17.5t-20 43.5q0 30 24.5 53t57.5 23q31 0 51 -18t20 -45q0 -30 -24.5 -52t-57.5 -22zM257 573q-31 0 -51 17.5t-20 43.5q0 30 24.5 53t57.5 23q31 0 51 -18t20 -45q0 -30 -24.5 -52t-57.5 -22zM163 55l-47 -55h-186l456 590l216 -590h-171l-21 55
h-247zM336 294l-88 -105h126z" />
    <glyph glyph-name="Amacron.smcp" horiz-adv-x="674" 
d="M546 596h-328l21 101h328zM163 55l-47 -55h-186l456 590l216 -590h-171l-21 55h-247zM336 294l-88 -105h126z" />
    <glyph glyph-name="Abreve.smcp" horiz-adv-x="674" 
d="M163 55l-47 -55h-186l446 577q-65 4 -101.5 37t-37.5 83h104q8 -29 50 -29q47 0 67 29h108q-19 -52 -64 -85.5t-111 -34.5l211 -577h-171l-21 55h-247zM336 294l-88 -105h126z" />
    <glyph glyph-name="Aring.smcp" horiz-adv-x="674" 
d="M163 55l-47 -55h-186l373 482q-44 26 -44 78q0 48 38 84q38 37 93 37q48 0 79 -27.5t31 -69.5q0 -33 -20 -62t-53 -45l175 -477h-171l-21 55h-247zM376 547q13 0 22 8.5t9 19.5q0 10 -7.5 17t-18.5 7q-13 0 -21.5 -8.5t-8.5 -20.5q0 -23 25 -23zM336 294l-88 -105h126z
" />
    <glyph glyph-name="Aringacute.smcp" horiz-adv-x="674" 
d="M491 715h-155l54 101h193zM163 55l-47 -55h-186l373 482q-44 26 -44 78q0 48 38 84q38 37 93 37q48 0 79 -27.5t31 -69.5q0 -33 -20 -62t-53 -45l175 -477h-171l-21 55h-247zM376 547q13 0 22 8.5t9 19.5q0 10 -7.5 17t-18.5 7q-13 0 -21.5 -8.5t-8.5 -20.5q0 -23 25 -23
zM336 294l-88 -105h126z" />
    <glyph glyph-name="Aogonek.smcp" horiz-adv-x="689" 
d="M163 55l-47 -55h-186l456 590l216 -590q-84 -38 -84 -66q0 -20 43 -20q14 0 46 4l-43 -102q-15 -5 -35 -5q-52 0 -85.5 26.5t-33.5 67.5q0 32 28.5 57.5t70.5 37.5h-78l-21 55h-247zM336 294l-88 -105h126z" />
    <glyph glyph-name="AE.smcp" horiz-adv-x="836" 
d="M148 53l-57 -53h-205l577 558h369l-33 -159h-208l-10 -51h192l-29 -141h-192l-10 -52h215l-32 -155h-378l11 53h-210zM410 308l-122 -119h97z" />
    <glyph glyph-name="AEacute.smcp" horiz-adv-x="836" 
d="M624 596h-155l54 101h193zM148 53l-57 -53h-205l577 558h369l-33 -159h-208l-10 -51h192l-29 -141h-192l-10 -52h215l-32 -155h-378l11 53h-210zM410 308l-122 -119h97z" />
    <glyph glyph-name="Cacute.smcp" horiz-adv-x="577" 
d="M456 596h-155l54 101h193zM10 252q0 124 105 219q106 94 253 94q131 0 198 -61l-32 -170q-70 73 -176 73q-69 0 -118 -43q-49 -42 -49 -99q0 -50 39 -82t100 -32q101 0 180 59l-33 -173q-59 -44 -160 -44q-135 0 -221 72q-86 74 -86 187z" />
    <glyph glyph-name="Ccircumflex.smcp" horiz-adv-x="577" 
d="M349 596h-154l212 116l163 -116h-143l-32 33zM10 252q0 124 105 219q106 94 253 94q131 0 198 -61l-32 -170q-70 73 -176 73q-69 0 -118 -43q-49 -42 -49 -99q0 -50 39 -82t100 -32q101 0 180 59l-33 -173q-59 -44 -160 -44q-135 0 -221 72q-86 74 -86 187z" />
    <glyph glyph-name="Ccaron.smcp" horiz-adv-x="577" 
d="M591 697l-212 -116l-163 116h143l32 -33l46 33h154zM10 252q0 124 105 219q106 94 253 94q131 0 198 -61l-32 -170q-70 73 -176 73q-69 0 -118 -43q-49 -42 -49 -99q0 -50 39 -82t100 -32q101 0 180 59l-33 -173q-59 -44 -160 -44q-135 0 -221 72q-86 74 -86 187z" />
    <glyph glyph-name="Cdotaccent.smcp" horiz-adv-x="577" 
d="M394 579q-32 0 -51.5 17t-19.5 44q0 30 24 53t57 23q32 0 52 -17.5t20 -45.5q0 -30 -24.5 -52t-57.5 -22zM10 252q0 124 105 219q106 94 253 94q131 0 198 -61l-32 -170q-70 73 -176 73q-69 0 -118 -43q-49 -42 -49 -99q0 -50 39 -82t100 -32q101 0 180 59l-33 -173
q-59 -44 -160 -44q-135 0 -221 72q-86 74 -86 187z" />
    <glyph glyph-name="Ccedilla.smcp" horiz-adv-x="577" 
d="M123 -159l42 63q15 -15 38 -15q14 0 23.5 9t9.5 21q0 25 -41 25h-1l37 58q-102 21 -161 88q-60 68 -60 162q0 124 105 219q106 94 253 94q131 0 198 -61l-32 -170q-70 73 -176 73q-69 0 -118 -43q-49 -42 -49 -99q0 -50 39 -82t100 -32q101 0 180 59l-33 -173
q-59 -44 -160 -44h-9l-15 -22q18 0 32 -17t14 -42q0 -43 -34 -72t-87 -29q-68 0 -95 30z" />
    <glyph glyph-name="Dcaron.smcp" horiz-adv-x="657" 
d="M563 697l-212 -116l-163 116h143l32 -33l46 33h154zM296 0h-310l114 558h239q123 0 201 -72q79 -70 79 -181q0 -121 -93 -213q-92 -92 -230 -92zM244 390l-47 -230h98q60 0 101 38q42 39 42 88q0 45 -33.5 74.5t-87.5 29.5h-73z" />
    <glyph glyph-name="Dcroat.smcp" horiz-adv-x="657" 
d="M296 0h-310l46 228h-50l21 101h50l47 229h239q123 0 201 -72q79 -70 79 -181q0 -121 -93 -213q-92 -92 -230 -92zM211 228l-14 -68h98q60 0 101 38q42 39 42 88q0 45 -33.5 74.5t-87.5 29.5h-73l-13 -61h100l-21 -101h-99z" />
    <glyph glyph-name="Egrave.smcp" horiz-adv-x="559" 
d="M419 596h-154l-52 101h189zM448 0h-462l114 558h455l-33 -159h-278l-10 -51h259l-29 -141h-259l-10 -52h285z" />
    <glyph glyph-name="Eacute.smcp" horiz-adv-x="559" 
d="M397 596h-155l54 101h193zM448 0h-462l114 558h455l-33 -159h-278l-10 -51h259l-29 -141h-259l-10 -52h285z" />
    <glyph glyph-name="Ecircumflex.smcp" horiz-adv-x="559" 
d="M301 596h-154l212 116l163 -116h-143l-32 33zM448 0h-462l114 558h455l-33 -159h-278l-10 -51h259l-29 -141h-259l-10 -52h285z" />
    <glyph glyph-name="Ecaron.smcp" horiz-adv-x="559" 
d="M549 697l-212 -116l-163 116h143l32 -33l46 33h154zM448 0h-462l114 558h455l-33 -159h-278l-10 -51h259l-29 -141h-259l-10 -52h285z" />
    </font>
</defs>
</svg>
